<?xml version="1.0" encoding="utf-8"?>
<!-- Generator: Adobe Illustrator 24.2.3, SVG Export Plug-In . SVG Version: 6.00 Build 0)  -->
<svg version="1.1" xmlns="http://www.w3.org/2000/svg" xmlns:xlink="http://www.w3.org/1999/xlink" x="0px" y="0px"
	 viewBox="0 0 750 500" style="enable-background:new 0 0 750 500;" xml:space="preserve">
<g id="BACKGROUND">
</g>
<g id="OBJECTS">
	<g>
		<path style="fill:#5686C4;" d="M166.49,459.13h29.11c0,0,2.48-7.71-5.75-7.17c-3.78,0.25-5.94,2.42-5.94,2.42
			s-0.21-12.28-8.71-11.53S163.13,451.63,166.49,459.13z"/>
		<path style="fill:#5686C4;" d="M439.37,448.95c0,0-2.65-7.69,5.11-8.37c5.12-0.45,6.78,2.3,6.78,2.3s0.67-9.51,6.63-11.4
			c5.96-1.89,6.64,13.17,6.64,13.17s0.15-4.07,6.44-4.52c6.29-0.45,5.96,5.18,5.96,5.18s7.45-0.99,7.45,3.64H439.37z"/>
		<g>
			<polygon style="fill:#2A4F9A;" points="368.1,415.44 409.62,422.8 409.62,435.67 368.1,428.84 			"/>
			<line style="fill:none;stroke:#C6D8ED;stroke-miterlimit:10;" x1="400.39" y1="430.16" x2="374.51" y2="425.92"/>
			<line style="fill:none;stroke:#C6D8ED;stroke-miterlimit:10;" x1="405.01" y1="425.92" x2="370.73" y2="420.3"/>
			<polygon style="fill:#2A4F9A;" points="409.62,422.8 434.85,406.77 434.85,420.17 409.62,435.67 			"/>
			<line style="fill:none;stroke:#C6D8ED;stroke-miterlimit:10;" x1="431.03" y1="413.51" x2="414.48" y2="423.68"/>
			<line style="fill:none;stroke:#C6D8ED;stroke-miterlimit:10;" x1="431.97" y1="417.94" x2="414.48" y2="428.68"/>
			<polygon style="fill:#5686C4;" points="394.12,400.99 434.85,406.77 409.62,422.8 368.1,415.44 			"/>
			<polygon style="fill:#C6D8ED;" points="412.36,400.99 371.63,406.77 396.86,422.8 438.38,415.44 			"/>
		</g>
		<path style="fill:#2A4F9A;" d="M549.25,451c0.1-0.2,0.16-0.4,0.16-0.61c0-1.62-3.2-2.93-7.15-2.93c-3.95,0-7.15,1.31-7.15,2.93
			c0,1.62,3.2,2.93,7.15,2.93c0.28,0,0.55-0.01,0.81-0.02c-0.02,0.09-0.06,0.19-0.06,0.29c0,1.44,2.58,2.61,5.76,2.61
			c3.18,0,5.76-1.17,5.76-2.61C554.53,452.22,552.2,451.11,549.25,451z"/>
		<path style="fill:#2A4F9A;" d="M535.11,454.76c0,0.8-1.72,1.44-3.84,1.44c-2.12,0-3.84-0.64-3.84-1.44c0-0.79,1.72-1.44,3.84-1.44
			C533.39,453.32,535.11,453.97,535.11,454.76z"/>
		<path style="fill:#2A4F9A;" d="M588.94,465.59c-0.76,0-1.48,0.09-2.12,0.24c-0.36-2.04-5.21-3.65-11.17-3.65
			c-1.07,0-2.1,0.05-3.08,0.15c0.26-0.24,0.41-0.51,0.41-0.79c0-1.12-2.32-2.03-5.17-2.03s-5.17,0.91-5.17,2.03
			c0,1.03,1.97,1.87,4.52,2c-1.68,0.68-2.7,1.57-2.7,2.53c0,2.15,5.02,3.89,11.2,3.89c3.58,0,6.75-0.58,8.8-1.49
			c0.63,0.87,2.39,1.49,4.48,1.49c2.62,0,4.75-0.98,4.75-2.19C593.68,466.57,591.56,465.59,588.94,465.59z"/>
		<path style="fill:#2A4F9A;" d="M599.77,457.06c0,0.71-1.53,1.28-3.42,1.28c-1.88,0-3.41-0.57-3.41-1.28
			c0-0.71,1.53-1.28,3.41-1.28C598.24,455.78,599.77,456.35,599.77,457.06z"/>
		<g>
			<path style="fill:#5686C4;" d="M589.26,443.04c0,1.1-0.9,2-2,2h-28.92c-1.1,0-2-0.9-2-2v-26.57c0-1.1,0.9-2,2-2h28.92
				c1.1,0,2,0.9,2,2V443.04z"/>
			<path style="fill:#2A4F9A;" d="M589.26,415.15c0,1.51-4.59,2.79-11,3.26c-1.37,0.11-2.82,0.17-4.32,0.19
				c-0.38,0.01-0.76,0.01-1.14,0.01c-9.09,0-16.46-1.55-16.46-3.46c0-1.91,7.37-3.46,16.46-3.46c1.11,0,2.19,0.02,3.24,0.07
				c1.45,0.06,2.83,0.16,4.12,0.3C585.56,412.62,589.26,413.8,589.26,415.15z"/>
			<path style="fill:#B7C1DA;" d="M584.57,397.29l-4.41,14.77l-1.9,6.35c-1.37,0.11-2.82,0.17-4.32,0.19l2.1-6.84l4.78-15.58
				c0.3-1.03,1.39-1.62,2.43-1.32C584.28,395.17,584.87,396.26,584.57,397.29z"/>
			<g>
				<path style="fill:#FFFFFF;" d="M584.57,436.48c0,0.55-0.45,1-1,1h-21.54c-0.55,0-1-0.45-1-1v-8.25c0-0.55,0.45-1,1-1h21.54
					c0.55,0,1,0.45,1,1V436.48z"/>
			</g>
			<path style="fill:none;stroke:#353C73;stroke-miterlimit:10;" d="M589.26,415.79c0,0,8.63-25.03-16.46-25.03
				c-25.09,0-16.46,25.03-16.46,25.03"/>
			<line style="fill:none;stroke:#353C73;stroke-miterlimit:10;" x1="556.35" y1="415.79" x2="554.91" y2="415.79"/>
			<line style="fill:none;stroke:#353C73;stroke-miterlimit:10;" x1="589.26" y1="415.79" x2="590.79" y2="415.79"/>
		</g>
		<path style="fill:#C6D8ED;" d="M287.06,67.79h-16.85c1.09-1.74,1.73-3.79,1.73-6c0-6.26-5.07-11.33-11.33-11.33h-18.8
			c0.09-0.54,0.15-1.1,0.15-1.67c0-5.34-4.33-9.67-9.67-9.67h-19.42c-5.34,0-9.67,4.33-9.67,9.67c0,0.57,0.06,1.12,0.15,1.67h-9.82
			c-6.26,0-11.33,5.07-11.33,11.33c0,2.21,0.64,4.26,1.73,6h-4.88c-6.63,0-12,5.37-12,12v2.18c0,6.63,5.37,12,12,12h108
			c6.63,0,12-5.37,12-12v-2.18C299.06,73.16,293.69,67.79,287.06,67.79z"/>
		<path style="fill:#C6D8ED;" d="M564.02,91.92h-8.74c0.21-0.75,0.33-1.53,0.33-2.35c0-4.75-3.85-8.61-8.61-8.61h-6.46
			c0.46-0.98,0.73-2.08,0.73-3.23c0-4.21-3.42-7.63-7.63-7.63h-22.67c-4.21,0-7.63,3.42-7.63,7.63c0,1.16,0.27,2.25,0.73,3.23h-5.47
			c-4.75,0-8.61,3.85-8.61,8.61c0,0.82,0.12,1.6,0.33,2.35h-11.78c-5.11,0-9.26,4.14-9.26,9.26c0,5.11,4.14,9.26,9.26,9.26h85.49
			c5.11,0,9.26-4.14,9.26-9.26C573.28,96.07,569.13,91.92,564.02,91.92z"/>
		<g>
			<path style="fill:#C6D8ED;" d="M541.53,326.89c0,6.63-5.37,12-12,12H206.68c-6.63,0-12-5.37-12-12V144.6c0-6.63,5.37-12,12-12
				h322.85c6.63,0,12,5.37,12,12V326.89z"/>
			<path style="fill:#B7C1DA;" d="M194.68,155.64v-11.37c0-6.63,5.37-12,12-12h322.85c6.63,0,12,5.37,12,12v11.37H194.68z"/>
			<circle style="fill:#2A4F9A;" cx="526.1" cy="143.96" r="3.5"/>
			<circle style="fill:#2A4F9A;" cx="509.1" cy="143.96" r="3.5"/>
			<circle style="fill:#2A4F9A;" cx="492.1" cy="143.96" r="3.5"/>
			<path style="fill:#FFFFFF;" d="M374.51,143.96c0,2.95-2.74,5.33-6.12,5.33H212.7c-3.38,0-6.12-2.39-6.12-5.33l0,0
				c0-2.95,2.74-5.33,6.12-5.33h155.69C371.77,138.63,374.51,141.02,374.51,143.96L374.51,143.96z"/>
		</g>
		<g>
			<path style="fill:#5686C4;" d="M290.48,381.27c0,0-0.67-11.98,14.67-11.98c0,0,5.67,0,8,5.99c0,0-3.33-19.32,8-21.32
				c11.33-2,11,18,11,18s3.83-5.17,12.08-4.42c8.25,0.75,8.58,5.08,8.58,5.08s14.92-3.38,15.29,8.64H290.48z"/>
			<line style="fill:none;stroke:#353C73;stroke-miterlimit:10;" x1="322.77" y1="361.27" x2="324.81" y2="381.27"/>
			<line style="fill:none;stroke:#353C73;stroke-miterlimit:10;" x1="317.44" y1="365.3" x2="323.79" y2="374.63"/>
			<line style="fill:none;stroke:#353C73;stroke-miterlimit:10;" x1="345.44" y1="374.63" x2="342.44" y2="381.1"/>
			<line style="fill:none;stroke:#353C73;stroke-miterlimit:10;" x1="301.44" y1="374.63" x2="305.44" y2="381.27"/>
		</g>
		<path style="fill:#B7C1DA;" d="M448.51,381.39h26.42c0,0,2.78-15.69-14.82-9.9C445.35,370.21,448.51,381.39,448.51,381.39z"/>
		<g>
			<path style="fill:#5686C4;" d="M166.82,381.1c0,0-25.28-32.99-16.49-36.84c8.78-3.86,22.49,26.78,22.49,26.78
				s-23.99-69.4-8.57-72.19c15.42-2.79,24.85,36.2,22.06,72.4c0,0,4.93-17.57,12-15.85c7.07,1.71,3.64,13.92-3.64,25.71H166.82z"/>
			<line style="fill:none;stroke:#353C73;stroke-miterlimit:10;" x1="166.49" y1="305.13" x2="183.92" y2="381.1"/>
			<line style="fill:none;stroke:#353C73;stroke-miterlimit:10;" x1="153.27" y1="349.96" x2="175.33" y2="381.27"/>
			<line style="fill:none;stroke:#353C73;stroke-miterlimit:10;" x1="174.87" y1="341.65" x2="179.31" y2="326.63"/>
			<line style="fill:none;stroke:#353C73;stroke-miterlimit:10;" x1="164.3" y1="321.96" x2="171.81" y2="328.33"/>
			<line style="fill:none;stroke:#353C73;stroke-miterlimit:10;" x1="179.31" y1="361" x2="172.6" y2="353.82"/>
			<line style="fill:none;stroke:#353C73;stroke-miterlimit:10;" x1="161.44" y1="357.3" x2="161.44" y2="361.56"/>
		</g>
		<g>
			<rect x="205.45" y="245.8" style="fill:#FFFFFF;" width="74.32" height="12.43"/>
			<rect x="205.45" y="265.8" style="fill:#FFFFFF;" width="74.32" height="12.43"/>
			<rect x="205.45" y="285.8" style="fill:#FFFFFF;" width="62.91" height="12.43"/>
			<rect x="205.45" y="305.8" style="fill:#FFFFFF;" width="29.04" height="12.43"/>
		</g>
		<path style="fill:#2A4F9A;" d="M210.75,258.23c0,0,4.93,6.82-1.06,14.28c-6.33,7.89-3.69-13.86-3.69-13.86L210.75,258.23z"/>
		<line style="fill:none;stroke:#353C73;stroke-width:2;stroke-miterlimit:10;" x1="601.56" y1="381.27" x2="134.65" y2="381.27"/>
		<g>
			<path style="fill:#2A4F9A;" d="M180.13,395.7c-1.12,2.19-4.78,3.11-6.12,3.78c-1.93,0.96-4.81,1.91-4.64,7.25
				c0.09,2.66,15.34-0.17,19.81-2.38c2.14-1.06,3.09-1.88,3.8-6.83C193.36,394.82,181.25,393.52,180.13,395.7z"/>
			<path style="fill:#2A4F9A;" d="M223.72,395.7c1.12,2.19,4.78,3.11,6.12,3.78c1.93,0.96,4.81,1.91,4.64,7.25
				c-0.09,2.66-15.34-0.17-19.81-2.38c-2.14-1.06-3.09-1.88-3.8-6.83C210.48,394.82,222.6,393.52,223.72,395.7z"/>
			<path style="fill:#B7C1DA;" d="M185.36,330.8l-6.05,65c0,0,4.5,4.25,15.75,0l3.94-46.75h5.31l5.25,46.75c0,0,6.5,2.25,15.5-0.75
				l-7.64-65.47L185.36,330.8z"/>
			<path style="fill:#FBADB1;" d="M179.34,294.82c-8.53-5.63-19.79-19.9-10.98-55.03c0,0-9.15-12.88-3.71-16.5
				c3.88-2.58,9.05,11.7,9.05,11.7s3.24-3.7,4-3.05c0.99,0.85,0.74,2.1-3.14,7.1c0,0-7.28,34.97,9.47,46.29"/>
			<path style="fill:#FBADB1;" d="M212.3,285.17c7.97-5.84,12.75-19.36,12.75-47.12c0-2.18-3.81-8.94-2.56-9.5
				c1.1-0.49,2.15,2.04,2.44,2.75c0,0,2.35-3.08,7.46-3.83c10.92-1.6,5.54,5.21-2.17,8.28c0,0,9.16,44.03-14.26,59.27"/>
			<path style="fill:#353C73;" d="M184.03,285.34c2.5,1.69,5.54,2.85,9.22,3.29c7.39,0.88,13.89,0.32,19.05-3.46l3.66,9.85
				c-2.04,1.33-4.34,2.44-6.9,3.28l9.86,30.67c0,0-15.33,7.33-35.33,1.33l3.67-32c0,0-3.61-0.64-7.92-3.47L184.03,285.34z"/>
			<path style="fill:#FBADB1;" d="M202.59,277.88c0,0-1.75,8,3.75,10.75c0,0-1.5,4-7.5,4h0.33c-6,0-7.5-4-7.5-4
				c5.5-2.75,3.75-10.75,3.75-10.75H202.59z"/>
			<path style="fill:#FBADB1;" d="M210.75,266.38c0,8.15-4.41,15.5-11.75,15.5s-11.75-7.35-11.75-15.5
				c0-8.15,5.26-14.75,11.75-14.75C205.49,251.63,210.75,258.23,210.75,266.38z"/>
			<path style="fill:#2A4F9A;" d="M188.51,273.02c0,0-1.65-14.53,4.85-14.79c6.5-0.26,14.58,6.57,21-0.6c0,0-3,0.6-5.83-3.25
				c-3.01-4.09-12.17-7.42-20,0.08C179.6,263.01,188.51,273.02,188.51,273.02z"/>
		</g>
		<g>
			
				<line style="fill:none;stroke:#353C73;stroke-width:1.5;stroke-miterlimit:10;" x1="471.38" y1="272.32" x2="495.38" y2="435.32"/>
			
				<line style="fill:none;stroke:#353C73;stroke-width:1.5;stroke-miterlimit:10;" x1="515.88" y1="272.32" x2="539.88" y2="435.32"/>
			<line style="fill:none;stroke:#353C73;stroke-width:1.5;stroke-miterlimit:10;" x1="473.6" y1="287.37" x2="518.1" y2="287.37"/>
			<line style="fill:none;stroke:#353C73;stroke-width:1.5;stroke-miterlimit:10;" x1="476.6" y1="307.37" x2="521.1" y2="307.37"/>
			
				<line style="fill:none;stroke:#353C73;stroke-width:1.5;stroke-miterlimit:10;" x1="479.6" y1="327.37" x2="524.31" y2="327.37"/>
			<line style="fill:none;stroke:#353C73;stroke-width:1.5;stroke-miterlimit:10;" x1="482.6" y1="347.37" x2="527.1" y2="347.37"/>
			
				<line style="fill:none;stroke:#353C73;stroke-width:1.5;stroke-miterlimit:10;" x1="485.6" y1="367.37" x2="529.88" y2="367.37"/>
			
				<line style="fill:none;stroke:#353C73;stroke-width:1.5;stroke-miterlimit:10;" x1="488.6" y1="387.37" x2="532.82" y2="387.37"/>
			
				<line style="fill:none;stroke:#353C73;stroke-width:1.5;stroke-miterlimit:10;" x1="491.6" y1="407.37" x2="536.14" y2="407.37"/>
		</g>
		<polyline style="fill:none;stroke:#353C73;stroke-miterlimit:10;stroke-dasharray:6;" points="444.33,250 444.33,329.58 
			380.88,329.58 380.88,250 		"/>
		<g>
			<rect x="380.88" y="168.3" style="fill:#FFFFFF;" width="63.46" height="77.5"/>
			<path style="fill:#B7C1DA;" d="M405.15,189.67c0,5.66-4.59,10.25-10.25,10.25s-10.25-4.59-10.25-10.25
				c0-5.66,4.59-10.25,10.25-10.25S405.15,184.01,405.15,189.67z"/>
			<rect x="385.6" y="207.05" style="fill:#353C73;" width="54.96" height="5.25"/>
			<rect x="408.6" y="197.05" style="fill:#353C73;" width="31.96" height="5.25"/>
			<rect x="408.6" y="187.05" style="fill:#353C73;" width="31.96" height="5.25"/>
			<rect x="408.6" y="177.05" style="fill:#353C73;" width="31.96" height="5.25"/>
			<rect x="385.6" y="217.05" style="fill:#353C73;" width="54.96" height="5.25"/>
			<rect x="385.6" y="227.05" style="fill:#353C73;" width="54.96" height="5.25"/>
			<rect x="385.6" y="237.05" style="fill:#353C73;" width="54.96" height="5.25"/>
		</g>
		<g>
			<path style="fill:#353C73;" d="M430.97,124.38c-12.4-14.25,2.56-23.05-2.6-37.03c-4.13-11.22-15.04-10.07-15.95-9.55
				c0,0-11.68-1.67-15.81,9.55c-5.15,13.98,9.81,22.79-2.6,37.03"/>
			<path style="fill:#5686C4;" d="M390.1,132.6c0,0,1.77-13.97,22.38-13.97c20.62,0,22.62,13.97,22.62,13.97H390.1z"/>
			<path style="fill:#FBADB1;" d="M416.07,109.61c0,0-1.75,8,3.75,10.75c0,0-1.5,4-7.5,4h0.33c-6,0-7.5-4-7.5-4
				c5.5-2.75,3.75-10.75,3.75-10.75H416.07z"/>
			<ellipse style="fill:#FBADB1;" cx="412.49" cy="96.64" rx="11.75" ry="14.75"/>
			<path style="fill:#353C73;" d="M411.19,80.63c-8.04,0-9.58,8-9.58,8s2.6-2.73,4.98,0c2.38,2.73,4.46,0.83,5.19,0
				c0.73-0.83,3.99-2.42,6.1,0c2.11,2.42,3.66,1.93,5.35,0C423.22,88.63,423.02,80.63,411.19,80.63z"/>
			<path style="fill:#5686C4;" d="M403.86,119.62c0,0-30.75,5.67-15.42,48.67l7.18-2.69c0,0-8.84-21.65,8.25-35.64"/>
			<path style="fill:#5686C4;" d="M420.85,119.62c0,0,30.75,5.67,15.42,48.67l-7.18-2.69c0,0,8.84-21.65-8.25-35.64"/>
			<path style="fill:#FBADB1;" d="M388.44,168.3c0,0,3.17,11.5,7.42,11.5s1.5-8.5,1.5-8.5s1.75,2.5,3,0.5c0,0,1.02-3.63-4.74-6.19
				L388.44,168.3z"/>
			<path style="fill:#FBADB1;" d="M436.28,168.3c0,0-3.17,11.5-7.42,11.5s-1.5-8.5-1.5-8.5s-1.75,2.5-3,0.5c0,0-1.02-3.63,4.74-6.19
				L436.28,168.3z"/>
		</g>
		<g>
			<g>
				<line style="fill:none;stroke:#353C73;stroke-miterlimit:10;" x1="264.35" y1="224.88" x2="267.35" y2="224.88"/>
				
					<line style="fill:none;stroke:#353C73;stroke-miterlimit:10;stroke-dasharray:6.1,6.1;" x1="273.45" y1="224.88" x2="355.8" y2="224.88"/>
				<polyline style="fill:none;stroke:#353C73;stroke-miterlimit:10;" points="358.85,224.88 361.85,224.88 361.85,221.88 				"/>
				
					<line style="fill:none;stroke:#353C73;stroke-miterlimit:10;stroke-dasharray:6.6429,6.6429;" x1="361.85" y1="215.24" x2="361.85" y2="178.7"/>
				<polyline style="fill:none;stroke:#353C73;stroke-miterlimit:10;" points="361.85,175.38 361.85,172.38 358.85,172.38 				"/>
				
					<line style="fill:none;stroke:#353C73;stroke-miterlimit:10;stroke-dasharray:5.6912,5.6912;" x1="353.16" y1="172.38" x2="264.95" y2="172.38"/>
				<line style="fill:none;stroke:#353C73;stroke-miterlimit:10;" x1="262.1" y1="172.38" x2="259.1" y2="172.38"/>
			</g>
		</g>
		<g>
			
				<rect x="169.65" y="179.59" transform="matrix(0.9945 -0.1045 0.1045 0.9945 -20.2055 23.5199)" style="fill:#B7C1DA;" width="89.41" height="50"/>
			
				<rect x="181.26" y="219.39" transform="matrix(0.9945 -0.1045 0.1045 0.9945 -21.9864 23.568)" style="fill:#5686C4;" width="65.34" height="4.45"/>
			
				<rect x="213.59" y="206.34" transform="matrix(0.9945 -0.1045 0.1045 0.9945 -20.5133 25.6008)" style="fill:#5686C4;" width="40.95" height="4.45"/>
			
				<rect x="212.59" y="196.34" transform="matrix(0.9945 -0.1045 0.1045 0.9945 -19.4737 25.4415)" style="fill:#5686C4;" width="40.95" height="4.45"/>
			
				<rect x="211.59" y="186.34" transform="matrix(0.9945 -0.1045 0.1045 0.9945 -18.4342 25.2823)" style="fill:#5686C4;" width="40.95" height="4.45"/>
			
				<rect x="174.29" y="187.6" transform="matrix(0.9945 -0.1045 0.1045 0.9945 -19.4299 20.3596)" style="fill:#353C73;" width="20.53" height="15.96"/>
			
				<rect x="188.03" y="194.85" transform="matrix(0.9945 -0.1045 0.1045 0.9945 -20.1124 21.8351)" style="fill:#FBADB1;" width="20.53" height="15.96"/>
		</g>
		<g>
			
				<rect x="461" y="193.03" transform="matrix(0.0777 -0.997 0.997 0.0777 228.1008 697.6608)" style="fill:#2A4F9A;" width="60.25" height="65.04"/>
			
				<rect x="466.6" y="179.42" transform="matrix(0.9948 -0.1015 0.1015 0.9948 -18.6841 51.7196)" style="fill:#5686C4;" width="65.03" height="60.25"/>
			<circle style="fill:#FFFFFF;" cx="495.6" cy="179.8" r="7.35"/>
			<path style="fill:#FBADB1;" d="M505.63,184.21c0,3.03-2.46,5.49-5.5,5.49c-3.04,0-5.5-2.46-5.5-5.49c0-3.03,2.46-5.5,5.5-5.5
				C503.17,178.71,505.63,181.17,505.63,184.21z"/>
			<line style="fill:none;stroke:#353C73;stroke-miterlimit:10;" x1="471.1" y1="194.21" x2="524.25" y2="189.67"/>
			<line style="fill:none;stroke:#353C73;stroke-miterlimit:10;" x1="472.55" y1="206.86" x2="525.69" y2="202.32"/>
			<line style="fill:none;stroke:#353C73;stroke-miterlimit:10;" x1="473.57" y1="218.25" x2="526.71" y2="213.72"/>
			<line style="fill:none;stroke:#353C73;stroke-miterlimit:10;" x1="475.57" y1="229.25" x2="528.71" y2="224.72"/>
		</g>
		
			<rect x="459.1" y="266.38" style="fill:none;stroke:#353C73;stroke-miterlimit:10;stroke-dasharray:6;" width="70.5" height="63.2"/>
		<g>
			<rect x="287.77" y="245.8" style="fill:#5686C4;" width="74.08" height="74.08"/>
			<path style="fill:#FBADB1;" d="M321.05,260.93c0,5.14-4.16,9.3-9.3,9.3c-5.14,0-9.3-4.17-9.3-9.3c0-5.14,4.16-9.3,9.3-9.3
				C316.89,251.63,321.05,255.79,321.05,260.93z"/>
			<path style="fill:#FFFFFF;" d="M316.46,281.92h-2.38c0.01-0.09,0.03-0.19,0.03-0.28c0-1.48-1.2-2.68-2.68-2.68h-6.39
				c-1.48,0-2.68,1.2-2.68,2.68c0,0.1,0.02,0.19,0.03,0.28H302c-1.32,0-2.4,1.07-2.4,2.4c0,1.32,1.07,2.39,2.4,2.39h14.46
				c1.32,0,2.39-1.07,2.39-2.39C318.85,283,317.78,281.92,316.46,281.92z"/>
			<path style="fill:#FFFFFF;" d="M348.6,267.26h-3.16c0.02-0.11,0.03-0.21,0.03-0.32c0-1.28-1.04-2.32-2.32-2.32h-4.35
				c-1.28,0-2.32,1.04-2.32,2.32c0,0.12,0.02,0.24,0.04,0.36c-1.15,0.17-2.04,1.15-2.04,2.34c0,1.31,1.06,2.38,2.38,2.38h11.75
				c1.31,0,2.38-1.06,2.38-2.38C350.98,268.33,349.92,267.26,348.6,267.26z"/>
			<path style="fill:#2A4F9A;" d="M287.77,296.38c0,0,16.08-2.25,40.58,3.25s33.5-4.83,33.5-4.83v25.08h-74.08V296.38z"/>
		</g>
		<g>
			<g>
				<path style="fill:#5686C4;" d="M539.28,381.17c0,0-10.3-18.62-0.57-19.53c4.37-0.41,9.04,9.61,9.04,9.61s4.73-71.26,32.81-71.26
					s-15.26,65.31-15.26,65.31s14.65-13.43,20.75-7.93c6.1,5.49-17.09,17.09-17.09,17.09s16.48-4.27,16.48,6.71H539.28z"/>
				<line style="fill:none;stroke:#353C73;stroke-miterlimit:10;" x1="578.44" y1="309.3" x2="553.42" y2="381.1"/>
				<line style="fill:none;stroke:#353C73;stroke-miterlimit:10;" x1="561.52" y1="332.96" x2="565.93" y2="345.2"/>
				<line style="fill:none;stroke:#353C73;stroke-miterlimit:10;" x1="540.64" y1="367.55" x2="547.94" y2="381.1"/>
				<line style="fill:none;stroke:#353C73;stroke-miterlimit:10;" x1="578.44" y1="361.27" x2="553.42" y2="381.1"/>
			</g>
			<line style="fill:none;stroke:#353C73;stroke-miterlimit:10;" x1="572.85" y1="325.33" x2="583.77" y2="316.96"/>
		</g>
		<line style="fill:none;stroke:#353C73;stroke-miterlimit:10;" x1="165.6" y1="374.09" x2="170.07" y2="374.09"/>
		<g>
			<polygon style="fill:#C6D8ED;" points="296.76,412.78 236.7,422.11 261.92,437.13 322.77,427.23 			"/>
			<polygon style="fill:#B7C1DA;" points="236.7,422.11 236.7,427.38 261.35,442.88 322.77,432.99 322.77,427.23 261.92,437.13 			
				"/>
			<polyline style="fill:none;stroke:#2A4F9A;stroke-miterlimit:10;" points="241.26,427.83 261.92,440.13 320.17,430.65 			"/>
		</g>
		<path style="fill:#B7C1DA;" d="M298.99,471.67c0,0,8.68,3.08,22.73,0c0,0-0.86-12.54-11.76-12.54
			C299.06,459.13,298.99,471.67,298.99,471.67z"/>
		<g>
			<path style="fill:#353C73;" d="M225.83,457.63c0,0.25-0.35,0.46-0.78,0.46c-0.43,0-0.77-0.2-0.77-0.46
				c0-0.25,0.35-0.46,0.77-0.46C225.49,457.17,225.83,457.38,225.83,457.63z"/>
			<path style="fill:#353C73;" d="M234.23,462.33c0,0.36-0.49,0.65-1.11,0.65c-0.61,0-1.1-0.29-1.1-0.65c0-0.36,0.49-0.65,1.1-0.65
				C233.74,461.68,234.23,461.97,234.23,462.33z"/>
		</g>
		<g>
			<path style="fill:#353C73;" d="M159.77,417.94c0,0.44-0.61,0.8-1.35,0.8c-0.75,0-1.35-0.36-1.35-0.8c0-0.44,0.61-0.8,1.35-0.8
				C159.17,417.14,159.77,417.5,159.77,417.94z"/>
			<path style="fill:#353C73;" d="M155.35,427.01c0,0.32-0.44,0.58-0.99,0.58c-0.54,0-0.99-0.26-0.99-0.58s0.44-0.58,0.99-0.58
				C154.91,426.43,155.35,426.69,155.35,427.01z"/>
			<path style="fill:#353C73;" d="M166.08,423.11c0,0.58-0.8,1.05-1.78,1.05c-0.99,0-1.78-0.47-1.78-1.05c0-0.58,0.8-1.05,1.78-1.05
				C165.28,422.05,166.08,422.53,166.08,423.11z"/>
		</g>
		<path style="fill:#353C73;" d="M361.22,456.63c0,0.73-1,1.32-2.23,1.32c-1.23,0-2.23-0.59-2.23-1.32c0-0.73,1-1.32,2.23-1.32
			C360.22,455.31,361.22,455.9,361.22,456.63z"/>
		<g>
			<path style="fill:#353C73;" d="M343.21,417.14c0,0.25-0.35,0.46-0.78,0.46c-0.43,0-0.77-0.21-0.77-0.46
				c0-0.25,0.35-0.46,0.77-0.46C342.87,416.68,343.21,416.89,343.21,417.14z"/>
			<path style="fill:#353C73;" d="M328.38,406.77c0,0.58-0.8,1.05-1.78,1.05c-0.99,0-1.78-0.47-1.78-1.05c0-0.58,0.8-1.05,1.78-1.05
				C327.58,405.72,328.38,406.19,328.38,406.77z"/>
			<path style="fill:#353C73;" d="M322.81,411.25c0,0.35-0.49,0.64-1.09,0.64c-0.6,0-1.09-0.29-1.09-0.64
				c0-0.36,0.49-0.64,1.09-0.64C322.32,410.61,322.81,410.9,322.81,411.25z"/>
		</g>
		<g>
			<path style="fill:#353C73;" d="M476.24,466.73c0,0.43-0.59,0.78-1.32,0.78c-0.73,0-1.32-0.35-1.32-0.78
				c0-0.43,0.59-0.78,1.32-0.78C475.65,465.95,476.24,466.3,476.24,466.73z"/>
			<path style="fill:#353C73;" d="M483.22,460.07c0,0.33-0.46,0.61-1.03,0.61c-0.57,0-1.03-0.27-1.03-0.61
				c0-0.33,0.46-0.61,1.03-0.61C482.76,459.46,483.22,459.73,483.22,460.07z"/>
		</g>
		<g>
			<path style="fill:#353C73;" d="M402.71,440.9c0,0.5-0.68,0.9-1.52,0.9c-0.84,0-1.52-0.4-1.52-0.9c0-0.5,0.68-0.9,1.52-0.9
				C402.02,440,402.71,440.4,402.71,440.9z"/>
			<path style="fill:#353C73;" d="M406.77,445.04c0,0.29-0.4,0.52-0.88,0.52c-0.49,0-0.88-0.23-0.88-0.52
				c0-0.29,0.39-0.52,0.88-0.52C406.37,444.52,406.77,444.75,406.77,445.04z"/>
		</g>
		<g>
			<path style="fill:#353C73;" d="M465.22,397.69c0,0.58-0.8,1.05-1.78,1.05c-0.99,0-1.78-0.47-1.78-1.05c0-0.58,0.8-1.05,1.78-1.05
				C464.42,396.63,465.22,397.11,465.22,397.69z"/>
			<path style="fill:#353C73;" d="M471.1,405.72c0,0.29-0.4,0.52-0.88,0.52c-0.49,0-0.88-0.23-0.88-0.52c0-0.29,0.39-0.52,0.88-0.52
				C470.71,405.2,471.1,405.43,471.1,405.72z"/>
		</g>
	</g>
</g>
<g id="DESIGNED_BY_FREEPIK">
</g>
</svg>
