<?xml version="1.0" encoding="utf-8"?>
<!-- Generator: Adobe Illustrator 24.2.3, SVG Export Plug-In . SVG Version: 6.00 Build 0)  -->
<svg version="1.1" xmlns="http://www.w3.org/2000/svg" xmlns:xlink="http://www.w3.org/1999/xlink" x="0px" y="0px"
	 viewBox="0 0 750 500" style="enable-background:new 0 0 750 500;" xml:space="preserve">
<g id="BACKGROUND">
</g>
<g id="OBJECTS">
	<g>
		<path style="fill:#FFB27D;" d="M413.29,251.86c0,0-23.3,46.62-46.97,78.79c-9.42,12.81-18.89,23.33-26.98,27.71
			c-7.92,4.29-14.62,10.96-20.17,18.35c-14.36,19.14-20.99,43.09-20.99,43.09l-60.53-91.57c0,0,2.07-89.51,9.33-104.48
			c10.59-21.82,15.71-65.9,19.78-74.68c3.02-6.51,11.64-40.14,12.47-42.61c0.36-1.06,3.23-2.7,6.95-2.69c2.99,0,8.06,2.89,9.34,8.83
			c6.47,30.01-1.32,49.8-1.23,50.68c2.28,23.06-4.58,40.18,0.23,44.72c0.18,0.17,0.51,0.09,0.98-0.21
			c8.34-5.36,60.13-80.86,66.51-82.49C368.76,123.58,413.29,251.86,413.29,251.86z"/>
		<path style="fill:#F99746;" d="M316.38,401.69c0,0-0.82,40.69-3.18,95.5H160.53c34.9-74.42,65.24-137.05,65.24-137.05
			S312.7,362.79,316.38,401.69z"/>
		<path style="fill:#FFB27D;" d="M466.21,94.1l-18.74,27.48l-18.39,26.97c-1.12,1.35-2.42,1.82-3.82,1.69
			c-4.41-0.42-9.87-6.78-14.13-10.31l-0.43-0.35c-5.61-4.64-6.4-13.03-1.76-18.64l28.11-33.98v0l8.34-10.08
			c4.64-5.61,13.03-6.4,18.64-1.76l0.43,0.35C470.06,80.09,470.85,88.48,466.21,94.1z"/>
		<path style="fill:#EFA26F;" d="M447.46,121.57l-18.39,26.97c-1.12,1.35-2.42,1.82-3.82,1.69l11.79-63.29
			C437.06,87.29,439.06,115.69,447.46,121.57z"/>
		<path style="fill:#EFA26F;" d="M366.32,330.65c-9.42,12.81-18.89,23.33-26.98,27.71c-7.92,4.29-14.62,10.96-20.17,18.35
			c-6.38-2.97-13.65-6.46-20.76-9.92c-8.66-4.21-8.99-16.5-0.51-21.05c0.08-0.04,0.16-0.09,0.24-0.13
			c7.94-4.55,16.08-20.6,16.08-20.6L366.32,330.65z"/>
		<path style="fill:#FFC197;" d="M278.8,107.86l-4.9,19.8c0,0,4.29,1.75,7.04,0.39C283.69,126.69,285.94,108.92,278.8,107.86z"/>
		<g>
			<path style="fill:#2B478B;" d="M367.11,340.01L367.11,340.01c-39.37,0-71.59-32.21-71.59-71.59V142.08
				c0-39.37,32.21-71.59,71.59-71.59h0c39.37,0,71.59,32.21,71.59,71.59v126.34C438.7,307.79,406.48,340.01,367.11,340.01z"/>
			<g>
				<path style="fill:#C0D8FB;" d="M431.6,91.14v226.42c0,7.68-6.24,13.96-13.86,13.96H316.48c-7.62,0-13.86-6.28-13.86-13.96V91.14
					c0-7.68,6.24-13.96,13.86-13.96h101.26C425.36,77.17,431.6,83.46,431.6,91.14z"/>
				<path style="fill:#CBE1FD;" d="M417.74,77.17l-100,254.35h-1.25c-7.62,0-13.86-6.28-13.86-13.96V91.14
					c0-7.68,6.24-13.96,13.86-13.96H417.74z"/>
			</g>
			<path style="fill:#2B478B;" d="M387.78,85.59h-41.33c-3.72,0-6.76-3.04-6.76-6.76v0c0-3.72,3.04-6.76,6.76-6.76h41.33
				c3.72,0,6.76,3.04,6.76,6.76v0C394.54,82.55,391.5,85.59,387.78,85.59z"/>
		</g>
		<g>
			<path style="fill:#FFB27D;" d="M456.88,197.86l-2.8,1.06l-18.8,7.14c-0.44,0.17-0.89,0.31-1.33,0.42
				c-6.22,1.62-12.85-1.7-15.18-7.84l-0.28-0.72c-2.5-6.58,0.84-14.01,7.42-16.51l17.52-6.66l1.27-0.48l2.8-1.06
				c6.58-2.5,14.01,0.84,16.51,7.42l0.28,0.72C466.8,187.93,463.46,195.36,456.88,197.86z"/>
			<path style="fill:#FFD3B6;" d="M441.61,198.29c-3.14,1.19-8.82,3.3-11.85,3.73c-0.86,0.12-2.44-0.34-3.92-1.96
				c-0.89-0.97-1.73-2.35-2.36-4.26c-0.3-0.9-0.54-1.8-0.64-2.72c-0.12-1.08-0.09-2.16,0.1-3.24c0.17-0.97,0.83-1.84,1.79-2.31
				c0,0,0.01,0,0.01-0.01c3.23-1.54,7.58-3.42,11.4-4.47c2.64-0.73,5.31,0.44,6.14,2.75l0.4,1.08l2.02,5.52
				C445.53,194.7,444.17,197.33,441.61,198.29z"/>
			<path style="fill:#FFC197;" d="M441.61,198.29c-3.14,1.19-8.82,3.3-11.85,3.73c-0.86,0.12-2.44-0.34-3.92-1.96
				c-0.16-0.37-0.3-0.76-0.44-1.17c-0.3-0.9-0.54-1.8-0.64-2.72c-0.12-1.08-0.09-2.16,0.1-3.24c0.17-0.97,0.83-1.84,1.79-2.31
				c0,0,0.01,0,0.01-0.01c3.23-1.54,7.58-3.42,11.4-4.47c1.69-0.47,3.39-0.16,4.61,0.73l2.02,5.52
				C445.53,194.7,444.17,197.33,441.61,198.29z"/>
		</g>
		<g>
			<path style="fill:#FFB27D;" d="M448.35,224.28l-14.49,3.95c-4.4,1.2-8.99-1.42-10.19-5.83l-0.45-1.64
				c-1.2-4.4,1.42-8.99,5.83-10.19l14.49-3.95c4.4-1.2,8.99,1.42,10.19,5.83l0.45,1.64C455.37,218.5,452.75,223.09,448.35,224.28z"
				/>
			<path style="fill:#FFD3B6;" d="M440.51,223.57c-2.66,0.71-7.48,1.97-10,2.1c-0.92,0.05-2.76-0.72-3.95-3.14
				c-0.3-0.58-0.55-1.26-0.74-2.04c-0.18-0.71-0.31-1.42-0.32-2.13c-0.02-0.84,0.09-1.67,0.32-2.48c0.21-0.73,0.82-1.36,1.64-1.66
				c0.01,0,0.01,0,0.01-0.01c2.76-0.98,6.47-2.14,9.68-2.7c2.22-0.39,4.32,0.68,4.84,2.5l0.37,1.31l1.12,3.92
				C443.99,221.07,442.68,223,440.51,223.57z"/>
			<path style="fill:#FFC197;" d="M440.51,223.57c-2.66,0.71-7.48,1.97-10,2.1c-0.92,0.05-2.76-0.72-3.95-3.14
				c-0.16-0.66-0.28-1.33-0.29-2c-0.02-0.84,0.09-1.67,0.32-2.48c0.21-0.73,0.82-1.36,1.64-1.66c0.01,0,0.01,0,0.01-0.01
				c2.76-0.98,6.47-2.14,9.68-2.7c1.83-0.32,3.59,0.35,4.44,1.63l1.12,3.92C443.99,221.07,442.68,223,440.51,223.57z"/>
		</g>
		<path style="fill:#ED7D2B;" d="M210.9,391c0,0,29.83,28.57,49.95,39.61l15.23-10.8v15.93c0,0,29.95,5.3,39.39,0v-43.45
			l-84.11-42.17L210.9,391z"/>
		<path style="fill:#DCEAFF;" d="M321.83,432.29c-11.59,2.38-36.56-6.73-36.56-6.73l4.03-38.91l-28.22,32.32
			c-14.36-5.34-36.82-19.29-50.17-27.97c-6.64-4.32-11.03-7.34-11.03-7.34c18.83-30.3,37.78-58.65,37.78-58.65
			c5.56,11.12,18.72,20.78,32.99,28.51c23.71,12.84,50.47,20.34,50.47,20.34C321.09,396.99,321.83,432.29,321.83,432.29z"/>
		<g>
			<path style="fill:#FFB27D;" d="M456.42,170.08c-0.1,0.04-0.21,0.07-0.31,0.11l-19,4.88c-8.36,2.15-17-2.37-19.2-10.05l-1.13-3.93
				c-2.12-7.37,2.44-15.07,10.2-17.57l6.27-1.61l12.73-3.27c8.36-2.15,17,2.37,19.2,10.05l1.13,3.93
				C468.39,159.89,463.99,167.48,456.42,170.08z"/>
			<path style="fill:#FFD3B6;" d="M447.71,164.78l-9.23,4.16c-0.01,0-0.03,0.01-0.06,0.01c-0.37,0.1-0.75,0.18-1.12,0.23
				c-0.15,0.02-0.31,0.04-0.47,0.06c-0.07,0.01-0.13,0.01-0.2,0c-1.02-0.03-1.71-1.11-1.27-2.08c0.87-1.9,1.11-4.1,0.52-6.26
				l-0.22-0.8c0-0.01,0-0.02-0.01-0.02l-0.71-2.62c-0.57-2.09-1.77-3.84-3.35-5.1c-0.19-0.15-0.38-0.3-0.58-0.44
				c-1.82-1.26-1.36-4.13,0.78-4.72c0.02-0.01,0.04-0.01,0.06-0.02l10.13-1.53c2.5-0.68,4.92,1.25,5.6,3.75l0.81,2.99l1.73,6.37
				C450.81,161.26,450.21,164.1,447.71,164.78z"/>
			<path style="fill:#FFC197;" d="M447.71,164.78l-9.23,4.16c-0.01,0-0.03,0.01-0.06,0.01c-0.22,0.04-0.89,0.15-1.78,0.29
				c-1.02-0.03-1.71-1.11-1.27-2.08c0.87-1.9,1.11-4.1,0.52-6.26l-0.22-0.8c0-0.01,0-0.02-0.01-0.02l-0.71-2.62
				c-0.57-2.09-1.77-3.84-3.35-5.1c0.33-0.48,0.81-0.86,1.45-1.03c0.02-0.01,0.04-0.01,0.06-0.02l10.13-1.53
				c2.11-0.57,4.15,0.7,5.15,2.61l1.73,6.37C450.81,161.26,450.21,164.1,447.71,164.78z"/>
		</g>
		<path style="fill:#EFA26F;" d="M295.52,268.92c0,0-4.15-36.19-7.97-43.24c-3.82-7.06-7.06-21.19-1.18-31.69
			c5.88-10.5,7.92-30.71,7.92-30.71c2.28,23.06-4.58,40.18,0.23,44.72c0.18,0.17,0.51,0.09,0.98-0.21L295.52,268.92z"/>
		<path style="fill:#699DEE;" d="M272.28,209.98h87.7c20.54,0,37.18-16.65,37.18-37.18v-1.39c0-20.54-16.65-37.18-37.18-37.18h-87.7
			c-20.54,0-37.18,16.65-37.18,37.18v1.39C235.1,193.33,251.74,209.98,272.28,209.98z"/>
		<g>
			<path style="fill:#9ABFF6;" d="M383.78,124.63h-45.66c-7.13,0-12.91-5.78-12.91-12.91v0c0-7.13,5.78-12.91,12.91-12.91h45.66
				c7.13,0,12.91,5.78,12.91,12.91v0C396.69,118.85,390.91,124.63,383.78,124.63z"/>
		</g>
		<g>
			<path style="fill:#9ABFF6;" d="M379.79,313.99h-51.23c-8.8,0-15.93-7.13-15.93-15.93v0c0-8.8,7.13-15.93,15.93-15.93h51.23
				c8.8,0,15.93,7.13,15.93,15.93v0C395.72,306.86,388.59,313.99,379.79,313.99z"/>
		</g>
		<g>
			<path style="fill:#F99746;" d="M399.9,268.92h-37.36c-12.63,0-22.87-10.24-22.87-22.87v0c0-12.63,10.24-22.87,22.87-22.87h37.36
				c12.63,0,22.87,10.24,22.87,22.87v0C422.76,258.68,412.53,268.92,399.9,268.92z"/>
		</g>
		<path style="fill:#FFB27D;" d="M585.42,497.2H473.46c-5.37-3.6-33.25-22.62-44.79-36.8c-2.44-3.01-11.39-28.9-18.26-49.93
			c-4.29-13.13-7.78-24.37-8.36-26.95c-0.2-0.9-0.34-2.68-0.42-5.09v-0.02c-0.29-8.6,0.11-25.18,0.52-38.35l0-0.06l0.01-0.17
			c0.02-0.58,0.04-1.15,0.06-1.71v-0.02c0-0.06,0-0.11,0-0.17c0.08-2.29,0.15-4.44,0.22-6.41c0.17-4.9,0.32-8.59,0.38-10.03
			l0.02-0.67c0,0,0,0,0.01,0c0.18-0.1,5.56-2.97,12.76,2.21c1.74,1.25,3.34,4.28,4.81,8.23c0.94,2.52,1.82,5.42,2.63,8.47
			c3.14,11.74,5.4,25.77,6.61,29.53c1.94,6.07,24.83,32.78,26.26,34.43c0.02,0.03,0.05,0.06,0.07,0.08v-42.17l-17.28-46.24
			l-7.09-18.98l-3.57-9.54c0,0-5.47-8.98-10.06-19.78c-2.01-4.73-3.85-9.8-4.99-14.62c-0.27-1.15-0.5-2.29-0.69-3.4c0,0,0,0,0,0
			c-0.67-4.08-0.72-7.86,0.22-10.94c1.67-5.48,5.44-6.52,8.33-6.4c0.3,0.01,0.59,0.04,0.87,0.07c0.28,0.03,0.56,0.09,0.83,0.16
			c0.51,0.13,0.99,0.34,1.44,0.6c0.01,0,0.01,0,0.01,0c0.74,0.43,1.38,1.03,1.88,1.76c0,0,2.44,3.19,5.72,7.48
			c2.16,2.82,4.68,6.12,7.09,9.3c4.31,5.66,8.31,10.95,9.41,12.49c5.95,8.37,21.95,35.64,21.95,35.64l18.74,0.79
			c2.97,0.12,5.79,1.31,7.97,3.33c6.66,6.22,21.03,19.69,22.79,21.69c0,0.66,11.16,6.02,19.79,10.81
			c6.17,2.61,17.89,11.84,17.89,11.84c2.43,2.14,4.28,4.28,5.22,6.32c4.02,8.74,14.92,84.8,20.13,122.39
			C584.25,488.47,585.34,496.58,585.42,497.2z"/>
		<path style="fill:#EFA26F;" d="M470.06,299.2c0,0,17.36,28.34,19.66,29.62c2.3,1.28,11.23,3.06,12.25,0
			C502.99,325.76,470.06,299.2,470.06,299.2z"/>
		<path style="fill:#EFA26F;" d="M557.32,347.75c-0.03-0.03-0.06-0.05-0.09-0.08c0,0-11.72-9.24-17.89-11.84
			c-7.92-4.39-17.98-9.27-19.57-10.55c1.84,2.1,14.77,16.73,19.74,17.83C543.89,344.06,553.81,346.78,557.32,347.75z"/>
		<path style="fill:#EFA26F;" d="M455.98,403.78v-42.17c0,0,10.02,16.76,10.78,25.95C467.53,396.75,462.6,411.62,455.98,403.78z"/>
		<path style="fill:#FFD3B6;" d="M419.63,249.03c-1.47-2.51-4.09-7.07-4.99-9.61c-0.26-0.72-0.22-2.16,0.66-3.7
			c0.53-0.92,1.37-1.88,2.63-2.73c0.59-0.4,1.2-0.76,1.84-0.99c0.76-0.28,1.55-0.42,2.36-0.44c0.73-0.01,1.5,0.42,2.02,1.17
			c0,0,0,0.01,0.01,0.01c1.74,2.53,3.94,5.98,5.43,9.1c1.04,2.16,0.71,4.65-0.8,5.74l-0.7,0.52l-3.61,2.63
			C422.98,251.83,420.82,251.09,419.63,249.03z"/>
		<path style="fill:#FFC197;" d="M419.63,249.03c-1.47-2.51-4.09-7.07-4.99-9.61c-0.26-0.72-0.22-2.16,0.66-3.7
			c0.24-0.2,0.49-0.38,0.76-0.57c0.59-0.4,1.2-0.76,1.84-0.99c0.76-0.28,1.55-0.42,2.36-0.44c0.73-0.01,1.5,0.42,2.02,1.17
			c0,0,0,0.01,0.01,0.01c1.74,2.53,3.94,5.98,5.43,9.1c0.66,1.38,0.77,2.9,0.36,4.1l-3.61,2.63
			C422.98,251.83,420.82,251.09,419.63,249.03z"/>
		<g>
			<path style="fill:#DFEBFD;" d="M507.74,140.95h-4.14c-11.49,0-20.89-9.4-20.89-20.89v0c0-11.49,9.4-20.89,20.89-20.89h4.14
				c11.49,0,20.89,9.4,20.89,20.89v0C528.63,131.54,519.23,140.95,507.74,140.95z"/>
			<g>
				<path style="fill:#F99746;" d="M493.47,119.71c1.28,3.36,12.21,12.19,12.21,12.19s3.56-2.9,6.87-6.01
					c2.47-2.31,4.78-4.74,5.33-6.18c1.3-3.34-0.08-8.12-4.86-8.93c-4.76-0.81-7.33,4.17-7.33,4.17s-2.57-4.98-7.35-4.17
					c-0.83,0.14-1.56,0.4-2.19,0.77C493.16,113.21,492.41,116.96,493.47,119.71z"/>
			</g>
		</g>
		<g>
			<path style="fill:#DFEBFD;" d="M139.96,249.77h70.31c5.6,0,10.19,4.59,10.19,10.19v30.85c0,5.15-4.21,9.36-9.36,9.36h-1.81
				l3.39,14.31l-21.27-14.31h-52.06c-5.6,0-10.18-4.58-10.18-10.18v-29.43C129.17,254.63,134.03,249.77,139.96,249.77z"/>
			<path style="fill:#CBE1FD;" d="M138.08,272.16h73.32c1,0,1.82-0.82,1.82-1.82l0,0c0-1-0.82-1.82-1.82-1.82h-73.32
				c-1,0-1.82,0.82-1.82,1.82l0,0C136.26,271.35,137.08,272.16,138.08,272.16z"/>
			<path style="fill:#CBE1FD;" d="M138.08,280.29h73.32c1,0,1.82-0.82,1.82-1.82l0,0c0-1-0.82-1.82-1.82-1.82h-73.32
				c-1,0-1.82,0.82-1.82,1.82l0,0C136.26,279.47,137.08,280.29,138.08,280.29z"/>
			<path style="fill:#CBE1FD;" d="M138.08,288.42h73.32c1,0,1.82-0.82,1.82-1.82l0,0c0-1-0.82-1.82-1.82-1.82h-73.32
				c-1,0-1.82,0.82-1.82,1.82l0,0C136.26,287.6,137.08,288.42,138.08,288.42z"/>
			<path style="fill:#CBE1FD;" d="M178.02,259.54h31.12c1.19,0,2.16-0.97,2.16-2.16l0,0c0-1.19-0.97-2.16-2.16-2.16h-31.12
				c-1.19,0-2.16,0.97-2.16,2.16l0,0C175.86,258.57,176.83,259.54,178.02,259.54z"/>
			<path style="fill:#CBE1FD;" d="M151.72,259.54h17.82c1.19,0,2.16-0.97,2.16-2.16l0,0c0-1.19-0.97-2.16-2.16-2.16h-17.82
				c-1.19,0-2.16,0.97-2.16,2.16v0C149.56,258.57,150.54,259.54,151.72,259.54z"/>
		</g>
		<g>
			<polygon style="fill:#9EC3F6;" points="493.27,265.42 537.49,279.88 511,254.06 508.31,260.37 496.93,260.42 			"/>
			<polygon style="fill:#FFFFFF;" points="537.49,279.88 503.17,253.77 466.5,245.39 			"/>
			<polygon style="fill:#FFFFFF;" points="511,254.06 537.49,279.88 519.83,243.71 			"/>
		</g>
		<g>
			<polygon style="fill:#9EC3F6;" points="232.48,100.66 191.14,106.56 218.58,87.86 219.97,93.86 230.02,95.68 			"/>
			<polygon style="fill:#FFFFFF;" points="191.14,106.56 225.54,88.82 259.26,87.13 			"/>
			<polygon style="fill:#FFFFFF;" points="218.58,87.86 191.14,106.56 212.38,77.34 			"/>
		</g>
		<path style="fill:#FFFFFF;" d="M297.38,169.24c0,5.39-1.82,10.36-4.87,14.33c-1.01,1.32-2.17,2.52-3.43,3.59
			c-4.09,3.47-9.39,5.56-15.18,5.56c-5.26,0-10.11-1.73-14.03-4.65c-1.73-1.28-3.27-2.8-4.58-4.51c-3.06-3.97-4.87-8.93-4.87-14.33
			c0-12.97,10.51-23.48,23.48-23.48C286.87,145.76,297.38,156.27,297.38,169.24z"/>
		<path style="fill:#2B478B;" d="M283.33,180.34c-0.06-0.07-0.12-0.14-0.18-0.2c-0.27-0.21-0.54-0.34-1.63-0.52
			c-0.55-0.09-1.32-0.2-2.41-0.34c0,0-0.23-0.03-0.36-0.04c-0.08-0.01-0.17-0.01-0.27-0.02c-0.31-0.16-0.39-1.46-0.39-2.82
			c0-0.1,0-0.2,0-0.31c0-0.52,0.02-1.02,0.04-1.48c0-0.03,0-0.06,0-0.09c0.67,0.06,1.12,0.05,1.12,0.05
			c1.25-0.1,2.03-3.45,2.31-6.16c0,0,0.62-1.49,0.62-3.1c0-0.91-0.19-1.85-0.8-2.59c-0.32-0.38-0.61-0.63-0.88-0.79
			c-0.08-0.08-0.16-0.15-0.24-0.22c-1.16-1.29-5.89-6.14-9-3.33c-0.08-0.28-1.09-3.42-5.99-2.39c0.3-0.03,2.48-0.24,3.1,0.64
			c-0.09-0.04-1.98-0.88-3.18-0.14c-0.55,0.34-0.9,1.03-1.09,1.77c0,0,0,0.01,0,0.01c0,0,0,0.01,0,0.01v0c0,0.01,0,0.01,0,0.02
			c-0.02,0.1-0.05,0.2-0.07,0.3c0,0.01-0.01,0.03-0.01,0.05c0,0,0,0.01,0,0.01c0,0,0,0,0,0c-0.15,0.76-0.15,1.5-0.06,1.85
			c0.18,0.77,1.53,3.05,2.43,3.05c0.34,0,0.7-0.11,1.02-0.25c-0.14,0.4-0.26,0.85-0.37,1.33c-0.95,4.48,2.02,7.88,3.56,7.03
			c0.99-0.54,1.74,1.19,1.74,1.19l0-0.01c-0.15,3.27-1.04,5.41-1.71,5.94c-0.24,0.03-0.75,0.09-1.4,0.19v0c0,0-2.27,0.25-4,1
			c-0.01,0-0.03,0.01-0.04,0.02c-0.39,0.16-0.73,0.35-0.98,0.55c0,0,0,0.01-0.01,0.01v0c-0.13,0.1-0.24,0.21-0.32,0.33
			c-0.04,0.05-0.08,0.1-0.1,0.15c-0.58,1.1-1.16,2.75-1.72,4.69c3.32,2.48,7.44,3.94,11.9,3.94c4.91,0,9.4-1.77,12.87-4.72
			C285.58,182.32,284.13,180.95,283.33,180.34z"/>
		<path style="fill:#FFFFFF;" d="M339.74,157.41h-25.87c-1.15,0-2.08-0.94-2.08-2.08l0,0c0-1.15,0.94-2.08,2.08-2.08h25.87
			c1.15,0,2.08,0.94,2.08,2.08v0C341.82,156.48,340.88,157.41,339.74,157.41z"/>
		<g>
			<path style="fill:#FFFFFF;" d="M340.46,172.39h-27.32c-0.75,0-1.36-0.61-1.36-1.36l0,0c0-0.75,0.61-1.36,1.36-1.36h27.32
				c0.75,0,1.36,0.61,1.36,1.36l0,0C341.82,171.78,341.21,172.39,340.46,172.39z"/>
			<path style="fill:#FFFFFF;" d="M328.05,178.81h-14.91c-0.75,0-1.36-0.61-1.36-1.36v0c0-0.75,0.61-1.36,1.36-1.36h14.91
				c0.75,0,1.36,0.61,1.36,1.36l0,0C329.41,178.2,328.8,178.81,328.05,178.81z"/>
			<path style="fill:#FFFFFF;" d="M360,178.81h-25.01c-0.75,0-1.36-0.61-1.36-1.36l0,0c0-0.75,0.61-1.36,1.36-1.36H360
				c0.75,0,1.36,0.61,1.36,1.36l0,0C361.35,178.2,360.74,178.81,360,178.81z"/>
			<path style="fill:#FFFFFF;" d="M383.52,172.39h-35.83c-0.75,0-1.36-0.61-1.36-1.36l0,0c0-0.75,0.61-1.36,1.36-1.36h35.83
				c0.75,0,1.36,0.61,1.36,1.36l0,0C384.88,171.78,384.27,172.39,383.52,172.39z"/>
			<path style="fill:#FFFFFF;" d="M340.46,185.24h-27.32c-0.75,0-1.36-0.61-1.36-1.36l0,0c0-0.75,0.61-1.36,1.36-1.36h27.32
				c0.75,0,1.36,0.61,1.36,1.36l0,0C341.82,184.63,341.21,185.24,340.46,185.24z"/>
			<path style="fill:#FFFFFF;" d="M383.52,185.24h-35.83c-0.75,0-1.36-0.61-1.36-1.36l0,0c0-0.75,0.61-1.36,1.36-1.36h35.83
				c0.75,0,1.36,0.61,1.36,1.36l0,0C384.88,184.63,384.27,185.24,383.52,185.24z"/>
		</g>
		<path style="fill:#FFFFFF;" d="M365.5,157.41h-17.87c-1.15,0-2.08-0.94-2.08-2.08l0,0c0-1.15,0.94-2.08,2.08-2.08h17.88
			c1.15,0,2.08,0.94,2.08,2.08v0C367.58,156.48,366.64,157.41,365.5,157.41z"/>
		<g>
			<path style="fill:#699DEE;" d="M341.7,291.18h-18.4c-0.81,0-1.48-0.67-1.48-1.48l0,0c0-0.81,0.67-1.48,1.48-1.48h18.4
				c0.81,0,1.48,0.67,1.48,1.48v0C343.18,290.51,342.51,291.18,341.7,291.18z"/>
			<g>
				<path style="fill:#699DEE;" d="M342.22,298.76h-19.43c-0.53,0-0.97-0.43-0.97-0.97l0,0c0-0.53,0.43-0.97,0.97-0.97h19.43
					c0.53,0,0.97,0.43,0.97,0.97l0,0C343.18,298.33,342.75,298.76,342.22,298.76z"/>
				<path style="fill:#699DEE;" d="M333.39,303.33h-10.6c-0.53,0-0.97-0.43-0.97-0.97v0c0-0.53,0.43-0.97,0.97-0.97h10.6
					c0.53,0,0.97,0.43,0.97,0.97l0,0C334.36,302.9,333.92,303.33,333.39,303.33z"/>
				<path style="fill:#699DEE;" d="M356.1,303.33h-17.78c-0.53,0-0.97-0.43-0.97-0.97l0,0c0-0.53,0.43-0.97,0.97-0.97h17.78
					c0.53,0,0.97,0.43,0.97,0.97l0,0C357.07,302.9,356.63,303.33,356.1,303.33z"/>
				<path style="fill:#699DEE;" d="M372.83,298.76h-25.47c-0.53,0-0.97-0.43-0.97-0.97l0,0c0-0.53,0.43-0.97,0.97-0.97h25.47
					c0.53,0,0.97,0.43,0.97,0.97l0,0C373.79,298.33,373.36,298.76,372.83,298.76z"/>
				<path style="fill:#699DEE;" d="M342.22,307.9h-19.43c-0.53,0-0.97-0.43-0.97-0.97l0,0c0-0.53,0.43-0.97,0.97-0.97h19.43
					c0.53,0,0.97,0.43,0.97,0.97l0,0C343.18,307.47,342.75,307.9,342.22,307.9z"/>
				<path style="fill:#699DEE;" d="M372.83,307.9h-25.47c-0.53,0-0.97-0.43-0.97-0.97l0,0c0-0.53,0.43-0.97,0.97-0.97h25.47
					c0.53,0,0.97,0.43,0.97,0.97l0,0C373.79,307.47,373.36,307.9,372.83,307.9z"/>
			</g>
			<path style="fill:#699DEE;" d="M360.02,291.18h-12.71c-0.81,0-1.48-0.67-1.48-1.48l0,0c0-0.81,0.67-1.48,1.48-1.48h12.71
				c0.81,0,1.48,0.67,1.48,1.48v0C361.5,290.51,360.83,291.18,360.02,291.18z"/>
		</g>
		<g>
			<path style="fill:#699DEE;" d="M354.28,106.74h-18.4c-0.81,0-1.48-0.67-1.48-1.48v0c0-0.81,0.67-1.48,1.48-1.48h18.4
				c0.81,0,1.48,0.67,1.48,1.48l0,0C355.76,106.08,355.1,106.74,354.28,106.74z"/>
			<g>
				<path style="fill:#699DEE;" d="M354.8,114.33h-19.43c-0.53,0-0.97-0.43-0.97-0.97l0,0c0-0.53,0.43-0.97,0.97-0.97h19.43
					c0.53,0,0.97,0.43,0.97,0.97l0,0C355.76,113.89,355.33,114.33,354.8,114.33z"/>
				<path style="fill:#699DEE;" d="M345.97,118.9h-10.6c-0.53,0-0.97-0.43-0.97-0.97l0,0c0-0.53,0.43-0.97,0.97-0.97h10.6
					c0.53,0,0.97,0.43,0.97,0.97v0C346.94,118.46,346.5,118.9,345.97,118.9z"/>
				<path style="fill:#699DEE;" d="M368.68,118.9H350.9c-0.53,0-0.97-0.43-0.97-0.97l0,0c0-0.53,0.43-0.97,0.97-0.97h17.78
					c0.53,0,0.97,0.43,0.97,0.97l0,0C369.65,118.46,369.21,118.9,368.68,118.9z"/>
				<path style="fill:#699DEE;" d="M385.41,114.33h-25.47c-0.53,0-0.97-0.43-0.97-0.97l0,0c0-0.53,0.43-0.97,0.97-0.97h25.47
					c0.53,0,0.97,0.43,0.97,0.97l0,0C386.37,113.89,385.94,114.33,385.41,114.33z"/>
			</g>
			<path style="fill:#699DEE;" d="M372.6,106.74h-12.71c-0.81,0-1.48-0.67-1.48-1.48l0,0c0-0.81,0.67-1.48,1.48-1.48h12.71
				c0.81,0,1.48,0.67,1.48,1.48v0C374.08,106.08,373.41,106.74,372.6,106.74z"/>
		</g>
		<g>
			<path style="fill:#ED7D2B;" d="M371.02,234.81h-20.14c-0.89,0-1.62-0.73-1.62-1.62v0c0-0.89,0.73-1.62,1.62-1.62h20.14
				c0.89,0,1.62,0.73,1.62,1.62l0,0C372.64,234.08,371.91,234.81,371.02,234.81z"/>
			<g>
				<path style="fill:#ED7D2B;" d="M371.58,243.11h-21.27c-0.58,0-1.06-0.48-1.06-1.06l0,0c0-0.58,0.48-1.06,1.06-1.06h21.27
					c0.58,0,1.06,0.48,1.06,1.06l0,0C372.64,242.64,372.16,243.11,371.58,243.11z"/>
				<path style="fill:#ED7D2B;" d="M361.92,248.11h-11.61c-0.58,0-1.06-0.48-1.06-1.06l0,0c0-0.58,0.48-1.06,1.06-1.06h11.61
					c0.58,0,1.06,0.48,1.06,1.06l0,0C362.98,247.64,362.5,248.11,361.92,248.11z"/>
				<path style="fill:#ED7D2B;" d="M386.79,248.11h-19.47c-0.58,0-1.06-0.48-1.06-1.06l0,0c0-0.58,0.48-1.06,1.06-1.06h19.47
					c0.58,0,1.06,0.48,1.06,1.06v0C387.84,247.64,387.37,248.11,386.79,248.11z"/>
				<path style="fill:#ED7D2B;" d="M405.1,243.11h-27.89c-0.58,0-1.06-0.48-1.06-1.06l0,0c0-0.58,0.48-1.06,1.06-1.06h27.89
					c0.58,0,1.06,0.48,1.06,1.06l0,0C406.15,242.64,405.68,243.11,405.1,243.11z"/>
				<path style="fill:#ED7D2B;" d="M371.58,253.12h-21.27c-0.58,0-1.06-0.48-1.06-1.06l0,0c0-0.58,0.48-1.06,1.06-1.06h21.27
					c0.58,0,1.06,0.48,1.06,1.06l0,0C372.64,252.64,372.16,253.12,371.58,253.12z"/>
				<path style="fill:#ED7D2B;" d="M405.1,253.12h-27.89c-0.58,0-1.06-0.48-1.06-1.06l0,0c0-0.58,0.48-1.06,1.06-1.06h27.89
					c0.58,0,1.06,0.48,1.06,1.06l0,0C406.15,252.64,405.68,253.12,405.1,253.12z"/>
			</g>
			<g>
				<path style="fill:#ED7D2B;" d="M371.58,258.32h-21.27c-0.58,0-1.06-0.48-1.06-1.06l0,0c0-0.58,0.48-1.06,1.06-1.06h21.27
					c0.58,0,1.06,0.48,1.06,1.06l0,0C372.64,257.85,372.16,258.32,371.58,258.32z"/>
				<path style="fill:#ED7D2B;" d="M405.1,258.32h-27.89c-0.58,0-1.06-0.48-1.06-1.06l0,0c0-0.58,0.48-1.06,1.06-1.06h27.89
					c0.58,0,1.06,0.48,1.06,1.06l0,0C406.15,257.85,405.68,258.32,405.1,258.32z"/>
			</g>
			<path style="fill:#ED7D2B;" d="M391.07,234.81h-13.91c-0.89,0-1.62-0.73-1.62-1.62v0c0-0.89,0.73-1.62,1.62-1.62h13.91
				c0.89,0,1.62,0.73,1.62,1.62l0,0C392.69,234.08,391.96,234.81,391.07,234.81z"/>
		</g>
		<g>
			<path style="fill:#FFFFFF;" d="M322.15,91.34l-1.44,1.04l-1.45-1.02c0.32-0.45,0.85-0.75,1.45-0.75
				C321.3,90.6,321.82,90.89,322.15,91.34z"/>
			<g>
				<path style="fill:#FFFFFF;" d="M320.7,88.07c-1.45,0-2.73,0.72-3.51,1.83l0.92,0.64c0.58-0.82,1.53-1.35,2.59-1.35
					c1.06,0,2.01,0.52,2.58,1.33l0.91-0.65C323.41,88.78,322.14,88.07,320.7,88.07z"/>
			</g>
			<g>
				<path style="fill:#FFFFFF;" d="M320.7,83.28c-3.07,0-5.78,1.53-7.43,3.86l0.92,0.64c1.44-2.04,3.82-3.38,6.51-3.38
					c2.66,0,5.03,1.32,6.48,3.33l0.91-0.65C326.44,84.78,323.75,83.28,320.7,83.28z"/>
			</g>
			<g>
				<path style="fill:#FFFFFF;" d="M320.7,85.9c-2.18,0-4.12,1.08-5.3,2.74l0.92,0.64c0.98-1.36,2.57-2.26,4.38-2.26
					c1.79,0,3.38,0.88,4.36,2.22l0.91-0.65C324.79,86.96,322.87,85.9,320.7,85.9z"/>
			</g>
		</g>
		<path style="fill:#FFFFFF;" d="M312.6,244.19c0,2.12,0.71,4.07,1.91,5.63c0.4,0.52,0.85,0.99,1.35,1.41
			c0.49,0.42,1.03,0.79,1.61,1.1c1.3,0.7,2.78,1.09,4.35,1.09c1.97,0,3.79-0.62,5.29-1.67c0.08-0.05,0.15-0.11,0.22-0.16
			c0.68-0.51,1.28-1.1,1.8-1.77c1.2-1.56,1.91-3.51,1.91-5.63c0-5.09-4.13-9.22-9.22-9.22C316.73,234.96,312.6,239.09,312.6,244.19z
			"/>
		<path style="fill:#699DEE;" d="M324.32,250.1l-0.85-0.75c-0.07,0.01-0.14,0.03-0.21,0.04c-0.15-0.11-0.32-0.21-0.5-0.31
			c0.06-0.34,0.1-0.66,0.14-0.94c0.13-0.99,0.14-1.58,0.14-1.68c0.45-0.02,0.75-0.07,0.75-0.07c0.85-0.2,0.89-3.11,0.7-4.62
			c0.16,0,0.32-0.02,0.47-0.09c0.64-0.28,0.68-1.26,0.68-1.26s-0.19,0.35-0.46,0.46c0,0,1.08-1.48-0.17-2.49
			c-1.25-1.01-2.52-0.35-3.24-0.31c-1.59,0.1-2.62,0.19-3.14,1.24c-0.51,1.03-0.31,3.87,0.67,4.91c0.02,0.1,0.03,0.19,0.05,0.29
			c0.06,0.37,0.19,0.68,0.39,0.93c-0.22,1.22-0.73,2.13-1.18,2.74c-0.31,0.24-0.59,0.55-0.85,0.91c-0.01,0-0.02,0.01-0.02,0.01
			s0,0,0.01,0c-0.48,0.68-0.87,1.57-1.19,2.61c0,0,0,0.01,0,0.01c0.52,0.37,1.09,0.68,1.68,0.92c0.04,0.02,0.08,0.03,0.12,0.05
			c0.01,0,0.02,0.01,0.03,0.01c0.06,0.03,0.13,0.05,0.19,0.08c0.16,0.06,0.31,0.12,0.47,0.17c0.17,0.05,0.33,0.1,0.5,0.15
			c0.08,0.02,0.16,0.04,0.23,0.06c0.07,0.02,0.14,0.03,0.21,0.04c0.01,0,0.02,0,0.03,0.01c0.05,0.01,0.09,0.02,0.14,0.03
			c0.11,0.02,0.22,0.04,0.33,0.06c0.02,0,0.05,0.01,0.08,0.01c0.06,0.01,0.12,0.02,0.18,0.02c0.09,0.01,0.17,0.02,0.26,0.03
			c0.09,0.01,0.19,0.02,0.29,0.02c0.09,0.01,0.18,0.01,0.27,0.01c0.1,0,0.19,0,0.29,0c0.1,0,0.21,0,0.31,0c0.01,0,0.02,0,0.03,0
			c0.02,0,0.05,0,0.08,0c0.05,0,0.1,0,0.15-0.01c0.01,0,0.01,0,0.02,0c0.1,0,0.19-0.01,0.29-0.02c1.25-0.12,2.42-0.49,3.48-1.05
			C325.62,251.4,324.95,250.69,324.32,250.1z"/>
		<path style="fill:#FFFFFF;" d="M403.16,297.8c0,2.13,0.72,4.1,1.93,5.66c0.4,0.52,0.86,1,1.36,1.42c1.62,1.37,3.71,2.2,6,2.2
			c2.08,0,4-0.68,5.55-1.84c0.68-0.51,1.29-1.11,1.81-1.78c1.21-1.57,1.93-3.53,1.93-5.66c0-5.13-4.16-9.29-9.29-9.29
			C407.31,288.51,403.16,292.67,403.16,297.8z"/>
		<path style="fill:#F99746;" d="M417.19,303.06c-0.01-0.02-0.03-0.05-0.05-0.07c-0.04-0.05-0.09-0.1-0.15-0.15l0,0
			c-0.12-0.09-0.27-0.18-0.46-0.26c-0.01,0-0.01,0-0.02-0.01c-0.81-0.35-1.86-0.47-1.86-0.47c-0.3-0.05-0.54-0.08-0.65-0.09
			c-0.31-0.25-0.73-1.25-0.8-2.77l0,0c0,0,0.35-0.81,0.81-0.55c0.72,0.39,2.11-1.19,1.66-3.28c-0.05-0.22-0.11-0.43-0.17-0.62
			c0.15,0.06,0.32,0.12,0.48,0.12c0.42,0,1.05-1.07,1.13-1.42c0.09-0.36-0.01-1.53-0.58-1.88c-0.56-0.34-1.44,0.05-1.48,0.07
			c0.28-0.4,1.26-0.32,1.44-0.3c-2.27-0.47-2.74,0.99-2.78,1.12c-1.45-1.31-3.65,0.95-4.2,1.56c-0.04,0.03-0.07,0.07-0.11,0.1
			c-0.12,0.07-0.26,0.19-0.41,0.37c-0.28,0.35-0.37,0.79-0.37,1.21c0,0.75,0.29,1.44,0.29,1.44c0.13,1.26,0.5,2.83,1.08,2.87
			c0,0,0.21,0,0.52-0.02c0,0.01,0,0.03,0,0.04c0.01,0.21,0.02,0.45,0.02,0.69v0.14c0,0.64-0.04,1.24-0.18,1.31
			c-0.05,0-0.09,0.01-0.13,0.01c-0.06,0-0.17,0.02-0.17,0.02c-0.51,0.07-0.87,0.12-1.12,0.16c-0.51,0.09-0.63,0.15-0.76,0.24
			c-0.03,0.03-0.06,0.06-0.09,0.09c-0.37,0.28-1.05,0.92-1.64,2.16c1.62,1.37,3.71,2.2,6,2.2c2.08,0,4-0.68,5.55-1.84
			C417.73,304.34,417.46,303.57,417.19,303.06z"/>
		<path style="fill:#FFFFFF;" d="M403.16,111.16c0,2.13,0.72,4.1,1.93,5.66c0.4,0.52,0.86,1,1.36,1.42c1.62,1.37,3.71,2.2,6,2.2
			c2.08,0,4-0.68,5.55-1.84c0.68-0.51,1.29-1.11,1.81-1.78c1.21-1.57,1.93-3.53,1.93-5.66c0-5.13-4.16-9.29-9.29-9.29
			C407.31,101.88,403.16,106.03,403.16,111.16z"/>
		<path style="fill:#F99746;" d="M417.19,116.42c-0.01-0.02-0.03-0.05-0.05-0.07c-0.04-0.05-0.09-0.1-0.15-0.15l0,0
			c-0.12-0.09-0.27-0.18-0.46-0.26c-0.01,0-0.01,0-0.02-0.01c-0.81-0.35-1.86-0.47-1.86-0.47v0c-0.3-0.05-0.54-0.08-0.65-0.09
			c-0.08-0.06-0.16-0.16-0.24-0.3v0c-0.26-0.45-0.51-1.3-0.56-2.47l0,0c0,0,0.35-0.81,0.81-0.55c0.72,0.39,2.11-1.19,1.66-3.28
			c-0.05-0.23-0.11-0.43-0.17-0.62c0.15,0.06,0.32,0.12,0.48,0.12c0.42,0,1.05-1.07,1.13-1.42c0.09-0.36-0.01-1.54-0.58-1.88
			c-0.56-0.34-1.44,0.05-1.48,0.07c0.28-0.4,1.26-0.32,1.44-0.3c-2.27-0.47-2.74,0.99-2.78,1.12c-1.45-1.3-3.65,0.95-4.2,1.56
			c-0.04,0.03-0.07,0.07-0.11,0.1c-0.12,0.07-0.26,0.19-0.41,0.37c-0.28,0.34-0.37,0.78-0.37,1.2c0,0.75,0.29,1.44,0.29,1.44
			c0.13,1.27,0.5,2.83,1.08,2.87c0,0,0.21,0,0.52-0.02c0,0.01,0,0.02,0,0.04c0.01,0.21,0.02,0.45,0.02,0.69v0.14
			c0,0.64-0.04,1.24-0.18,1.31c-0.05,0-0.09,0.01-0.13,0.01c-0.06,0-0.17,0.02-0.17,0.02c-0.51,0.07-0.87,0.12-1.12,0.16
			c-0.51,0.09-0.63,0.15-0.76,0.24c-0.03,0.03-0.06,0.06-0.09,0.09c-0.37,0.28-1.05,0.92-1.64,2.16c0.09,0.08,0.18,0.15,0.27,0.22
			c0.01,0.01,0.03,0.02,0.05,0.04c0.07,0.05,0.14,0.1,0.21,0.15c0.05,0.04,0.1,0.08,0.15,0.11c0.05,0.04,0.1,0.07,0.15,0.1
			c0.07,0.05,0.15,0.1,0.23,0.15c0.05,0.03,0.1,0.07,0.16,0.1c0.06,0.04,0.13,0.08,0.19,0.11c0.07,0.04,0.15,0.08,0.22,0.12
			c0.01,0,0.01,0.01,0.02,0.01c0,0,0.01,0,0.01,0.01h0c0.01,0,0.02,0.01,0.03,0.02c0.06,0.03,0.12,0.06,0.18,0.09c0,0,0.01,0,0.01,0
			c0.02,0.01,0.04,0.02,0.05,0.03c0.03,0.02,0.07,0.03,0.1,0.05c0.03,0.01,0.06,0.03,0.1,0.05c0.07,0.03,0.15,0.07,0.23,0.1
			c0.08,0.03,0.15,0.06,0.23,0.09c0.04,0.01,0.07,0.03,0.1,0.04c0.03,0.01,0.07,0.03,0.1,0.04c0.07,0.03,0.14,0.05,0.21,0.08
			c0.08,0.03,0.15,0.05,0.22,0.07c0.06,0.02,0.13,0.04,0.19,0.06c0.01,0,0.01,0,0.02,0c0.04,0.01,0.08,0.02,0.12,0.03
			c0.22,0.06,0.45,0.11,0.68,0.16c0.1,0.02,0.2,0.04,0.3,0.05c0.03,0,0.05,0.01,0.08,0.01c0.01,0,0.01,0,0.02,0c0,0,0.01,0,0.01,0
			c0.07,0.01,0.13,0.02,0.19,0.02c0.01,0,0.03,0,0.04,0c0.01,0,0.02,0,0.03,0c0.06,0.01,0.12,0.01,0.18,0.02c0.01,0,0.02,0,0.03,0
			c0.02,0,0.04,0,0.06,0.01c0.11,0.01,0.22,0.02,0.33,0.02h0.02c0.03,0,0.07,0,0.1,0c0.02,0,0.04,0,0.06,0
			c0.11,0,0.21,0.01,0.32,0.01c2.08,0,4-0.68,5.55-1.84C417.73,117.7,417.46,116.94,417.19,116.42z"/>
		<path style="fill:#EFA26F;" d="M529.17,479.89l-33.45,17.32h-22.27c-5.37-3.6-33.25-22.62-44.79-36.8
			c-2.44-3.01-11.39-28.9-18.26-49.93v-0.01c0.91,2.79,20.09,43.64,25.55,48.29c5.46,4.64,34.14,31.68,42.05,31.4
			c7.67-0.26,48.51-9.66,51.04-10.24C529.1,479.91,529.13,479.9,529.17,479.89z"/>
		<path style="fill:#D2E3FC;" d="M596.47,497.2H475.89c6.05-2.37,29.19-11.21,53.17-17.29c0.04-0.01,0.08-0.02,0.11-0.03
			c20.6-5.21,41.8-8.37,53.32-3.63l0.08,0.12L596.47,497.2z"/>
		<path style="fill:#EFA26F;" d="M402.21,337.93C402.21,337.93,402.21,337.93,402.21,337.93c2.04-0.75,4.89-1.24,6.28,1.08
			c2.16,3.61-5.87,35.43-6.87,39.43L402.21,337.93z"/>
		<path style="fill:#FFC197;" d="M402.83,320.82l-0.69,19.25c0,0,4.05,0.66,6.35-1.06C410.79,337.29,409.57,320.59,402.83,320.82z"
			/>
		<path style="fill:#CBE1FD;" d="M321.83,432.29c-11.59,2.38-36.56-6.73-36.56-6.73l4.03-38.91l-28.22,32.32
			c-14.36-5.34-36.82-19.29-50.17-27.97c34.2-3.73,59.73-37.48,59.73-37.48c23.71,12.84,50.47,20.34,50.47,20.34
			C321.09,396.99,321.83,432.29,321.83,432.29z"/>
		<path style="fill:#F99746;" d="M242.31,396.95c0.02-2.59,2.15-4.68,4.74-4.65c2.59,0.02,4.68,2.15,4.65,4.74
			c-0.02,2.59-2.15,4.68-4.74,4.65C244.37,401.66,242.29,399.54,242.31,396.95z"/>
	</g>
</g>
<g id="DESIGNED_BY_FREEPIK">
</g>
</svg>
