<?xml version="1.0" encoding="utf-8"?>
<!-- Generator: Adobe Illustrator 24.2.3, SVG Export Plug-In . SVG Version: 6.00 Build 0)  -->
<svg version="1.1" xmlns="http://www.w3.org/2000/svg" xmlns:xlink="http://www.w3.org/1999/xlink" x="0px" y="0px"
	 viewBox="0 0 750 500" style="enable-background:new 0 0 750 500;" xml:space="preserve">
<g id="BACKGROUND">
</g>
<g id="OBJECTS">
</g>
<g id="DESIGNED_BY_FREEPIK">
	<g>
		<linearGradient id="SVGID_1_" gradientUnits="userSpaceOnUse" x1="638.7293" y1="589.0925" x2="261.9387" y2="121.1421">
			<stop  offset="0" style="stop-color:#DAE3FE"/>
			<stop  offset="1" style="stop-color:#E9EFFD"/>
		</linearGradient>
		<path style="fill:url(#SVGID_1_);" d="M535.07,404.55c-8.65,9.11-16.84,14.99-23.31,19.63c-76.05,54.57-166.04,38.66-185.17,34.78
			c-28.24-5.74-82.84-16.82-122.3-63.24c-59.71-70.22-50.42-180.86-4.1-253.89c8.47-13.36,53.23-87.5,144.19-99.39
			c55.05-7.2,119.22,7.32,165.69,46.25C607.6,170.41,600.66,335.5,535.07,404.55z"/>
		<g>
			<path style="fill:#91B3FA;" d="M544.55,85.02c0.89-1.98-1.31-3.93-3.18-2.83c-19.01,11.14-66.66,46.61-74.81,125.7
				c-10.23,99.23-38.36,129.88-68.29,145.67c0,0,36.68-2.28,66.46-33.1C537.82,244.78,528.68,120.18,544.55,85.02z"/>
			<path style="fill:#FFFFFF;" d="M525.77,112.46c-4.41,10.3-8.61,20.69-12.42,31.21c-3.87,10.5-7.42,21.11-10.64,31.82
				c-3.17,10.72-6.14,21.5-8.65,32.39c-2.56,10.88-4.65,21.85-6.7,32.88c-2.12,11.01-4.19,22.11-7.4,33.03
				c-3.2,10.9-7.75,21.6-14.12,31.15c-1.59,2.38-3.23,4.74-4.99,6.98c-1.72,2.27-3.55,4.47-5.41,6.63
				c-3.75,4.31-7.78,8.38-12.11,12.13c-8.66,7.48-18.46,13.63-28.79,18.38c-1.09,0.5-2.37,0.02-2.87-1.06
				c-0.49-1.07-0.04-2.33,1.01-2.84l0.01,0c2.48-1.23,4.94-2.48,7.34-3.83c1.21-0.66,2.39-1.37,3.58-2.06
				c1.16-0.73,2.36-1.42,3.5-2.19c4.61-3,9-6.32,13.13-9.94c8.28-7.2,15.52-15.68,21.63-24.79c3-4.59,5.66-9.4,7.93-14.39
				c2.27-4.99,4.17-10.17,5.77-15.46c3.2-10.58,5.34-21.55,7.54-32.55c2.21-10.99,4.51-22.02,7.26-32.94
				c1.36-5.46,2.82-10.9,4.37-16.31c0.76-2.71,1.58-5.4,2.38-8.1c0.83-2.69,1.68-5.37,2.56-8.04c3.5-10.69,7.33-21.27,11.49-31.71
				c4.21-10.42,8.69-20.73,13.56-30.85c0.14-0.29,0.49-0.41,0.78-0.27C525.77,111.85,525.89,112.18,525.77,112.46z"/>
		</g>
		<g>
			<g>
				<path style="fill:#BDD0FB;" d="M478.02,361.57c0.35,3.44,4.11,5.4,7.15,3.77c16.82-9.01,62.07-38.8,74.54-103.49
					c10.53-54.63,21.43-83.25,27.28-95.9c1.24-2.67-1.66-5.37-4.24-3.96C554.24,177.63,465.22,236.9,478.02,361.57z"/>
				<path style="fill:#FFFFFF;" d="M482.55,362.73c0.06,0.06,0.12,0.12,0.19,0.17c0.6,0.44,1.44,0.32,1.89-0.28
					c0.5-0.68,50.57-68.76,68.64-144.06c0.17-0.72-0.27-1.45-1-1.63c-0.73-0.17-1.45,0.27-1.63,1
					c-17.94,74.74-67.68,142.4-68.18,143.08C482.07,361.54,482.13,362.26,482.55,362.73z"/>
			</g>
		</g>
		<g>
			<linearGradient id="SVGID_2_" gradientUnits="userSpaceOnUse" x1="364.9102" y1="359.4044" x2="330.005" y2="527.77">
				<stop  offset="0" style="stop-color:#09005D"/>
				<stop  offset="1" style="stop-color:#1A0F91"/>
			</linearGradient>
			<polygon style="fill:url(#SVGID_2_);" points="313.28,353.03 304.78,429.25 403.38,429.25 390.54,353.03 			"/>
			<linearGradient id="SVGID_3_" gradientUnits="userSpaceOnUse" x1="382.8932" y1="307.885" x2="343.8813" y2="477.2781">
				<stop  offset="0" style="stop-color:#09005D"/>
				<stop  offset="1" style="stop-color:#1A0F91"/>
			</linearGradient>
			<path style="fill:url(#SVGID_3_);" d="M424.62,444.85H280.31c-3.92,0-6.86-2.79-6.11-5.79l1.85-7.32
				c0.56-2.2,2.98-3.82,5.86-3.91l139.12-4.34c3.01-0.09,5.67,1.5,6.32,3.79l3.34,11.66C431.56,441.97,428.6,444.85,424.62,444.85z"
				/>
			<linearGradient id="SVGID_4_" gradientUnits="userSpaceOnUse" x1="414.1521" y1="-43.3671" x2="336.1283" y2="396.0284">
				<stop  offset="0" style="stop-color:#09005D"/>
				<stop  offset="1" style="stop-color:#1A0F91"/>
			</linearGradient>
			<path style="fill:url(#SVGID_4_);" d="M189.58,188.61v174.57c0,14.36,11.44,26.1,25.8,26.47c63.76,1.64,227.98,5.63,288.68,4.74
				c10.43-0.15,18.88-8.5,19.18-18.93c1.17-40.55,3.07-138.07-3.96-183.35c-1.48-9.53-9.53-16.66-19.17-16.97
				c-53.42-1.71-231.04-7.14-291.71-5.77C197.94,169.59,189.58,178.14,189.58,188.61z"/>
			<path style="fill:#91B3FA;" d="M200.54,187.76v165.85c0,8.38,6.73,15.22,15.11,15.34l279.68,4.18
				c8.31,0.12,15.12-6.56,15.16-14.88l0.57-164.37c0.02-5.94-4.71-10.81-10.66-10.96l-287.74-7
				C206.01,175.77,200.54,181.11,200.54,187.76z"/>
			<path style="fill:#91B3FA;" d="M513.04,380.01c0,0-0.01,0-0.01,0l-312.5-6.33c-0.3-0.01-0.55-0.26-0.54-0.56
				c0.01-0.3,0.27-0.55,0.56-0.54l312.5,6.33c0.3,0.01,0.55,0.26,0.54,0.56C513.58,379.77,513.33,380.01,513.04,380.01z"/>
			<g>
				<linearGradient id="SVGID_5_" gradientUnits="userSpaceOnUse" x1="183.4446" y1="424.8766" x2="487.2746" y2="76.6094">
					<stop  offset="0" style="stop-color:#FF928E"/>
					<stop  offset="1" style="stop-color:#FE7062"/>
				</linearGradient>
				<path style="fill:url(#SVGID_5_);" d="M226.96,369.12l250.61,4.01c0,0-2.24-210.38-5.35-277.24c-0.25-5.38-4.76-9.58-10.15-9.45
					l-232.76,5.69c-5.87,0.14-10.5,5.03-10.32,10.9L226.96,369.12z"/>
				<path style="opacity:0.88;fill:#FFFFFF;" d="M232.64,369.21l233.33,3.74l-4.88-261.32c-0.09-4.72-3.98-8.47-8.7-8.38
					l-218.93,4.14c-4.87,0.09-8.72,4.14-8.58,9.01L232.64,369.21z"/>
				<path style="opacity:0.6;fill:#FFFFFF;" d="M427.14,97.03c0,1.89-1.93,3.23-3.82,3.23c-1.89,0-3.8-1.53-3.8-3.42
					c0-1.89,1.91-3.42,3.8-3.42C425.21,93.42,427.14,95.14,427.14,97.03z"/>
				<path style="opacity:0.6;fill:#FFFFFF;" d="M437.65,96.8c0,1.89-1.93,3.23-3.82,3.23c-1.89,0-3.8-1.53-3.8-3.42
					c0-1.89,1.91-3.42,3.8-3.42C435.72,93.18,437.65,94.91,437.65,96.8z"/>
				<path style="opacity:0.6;fill:#FFFFFF;" d="M449.63,96.52c0,1.89-1.93,3.23-3.82,3.23c-1.89,0-3.8-1.53-3.8-3.42
					c0-1.89,1.91-3.42,3.8-3.42C447.7,92.9,449.63,94.63,449.63,96.52z"/>
			</g>
			<path style="fill:#91B3FA;" d="M358,429.89c-0.3,0-0.55-0.24-0.55-0.54c0-0.3,0.24-0.55,0.54-0.56l5.96-0.09
				c0.31-0.01,0.55,0.24,0.56,0.54c0,0.3-0.24,0.55-0.54,0.56L358,429.89L358,429.89z"/>
			<path style="fill:#91B3FA;" d="M279.55,440.89c-0.03,0-0.06,0-0.09-0.01c-0.3-0.05-0.5-0.33-0.46-0.63l0.85-5.33
				c0.46-2.9,2.93-5.04,5.87-5.08l63.23-0.92h0.01c0.3,0,0.55,0.24,0.55,0.54c0,0.3-0.24,0.55-0.54,0.56l-63.23,0.92
				c-2.4,0.03-4.42,1.78-4.8,4.15l-0.85,5.33C280.05,440.7,279.81,440.89,279.55,440.89z"/>
		</g>
		<g>
			<linearGradient id="SVGID_6_" gradientUnits="userSpaceOnUse" x1="520.3261" y1="-254.2462" x2="298.8756" y2="147.9155">
				<stop  offset="0" style="stop-color:#4F52FF"/>
				<stop  offset="1" style="stop-color:#4042E2"/>
			</linearGradient>
			<path style="fill:url(#SVGID_6_);" d="M374.86,252.07H186.21c-5.69,0-10.3-4.61-10.3-10.3v-121.1c0-5.69,4.61-10.3,10.3-10.3
				h188.65c5.69,0,10.3,4.61,10.3,10.3v121.1C385.16,247.46,380.55,252.07,374.86,252.07z"/>
			<path style="fill:#BDD0FB;" d="M266.93,202.73v-49.71c0-5.06,5.73-7.98,9.82-5.02l31.74,22.95c4.72,3.41,4.72,10.44,0,14.29
				l-31.74,22.95C272.66,210.71,266.93,207.79,266.93,202.73z"/>
		</g>
		<g>
			<linearGradient id="SVGID_7_" gradientUnits="userSpaceOnUse" x1="402.5629" y1="155.7758" x2="341.9922" y2="359.0466">
				<stop  offset="0" style="stop-color:#FF928E"/>
				<stop  offset="1" style="stop-color:#FE7062"/>
			</linearGradient>
			<path style="fill:url(#SVGID_7_);" d="M428.32,303.45H299.59c-4.28,0-7.74-2.9-7.74-6.49V273.7c0-3.52,3.35-6.4,7.55-6.49
				l128.73-2.76c4.35-0.09,7.94,2.84,7.94,6.49v26.02C436.06,300.55,432.6,303.45,428.32,303.45z"/>
			<path style="fill:#FFFFFF;" d="M428.32,304.78H299.59c-5,0-9.07-3.5-9.07-7.81V273.7c0-4.27,3.88-7.7,8.84-7.81l128.72-2.76
				c2.7-0.07,5.26,0.91,7.04,2.65c1.45,1.42,2.26,3.26,2.26,5.16v26.02C437.39,301.27,433.32,304.78,428.32,304.78z M428.32,265.78
				c-0.06,0-0.12,0-0.17,0l-128.73,2.76c-3.45,0.07-6.25,2.39-6.25,5.16v23.27c0,2.85,2.88,5.16,6.42,5.16h128.73
				c3.54,0,6.42-2.32,6.42-5.16v-26.02c0-1.52-0.79-2.62-1.46-3.27C432.04,266.47,430.25,265.78,428.32,265.78z"/>
		</g>
		<g>
			<path style="fill:#FFFFFF;" d="M366.5,347.41l-7.23-54.25c-0.19-1.46,1.65-2.93,3.03-2.42l51.33,18.98
				c1.17,0.43,1.13,2.03-0.09,3l-7.15,5.72c-0.92,0.74-1.21,1.9-0.66,2.59l31.48,39.36c0.56,0.7,0.26,1.86-0.66,2.59l-23.14,18.51
				c-0.92,0.74-2.12,0.77-2.67,0.07l-31.48-39.36c-0.56-0.7-1.75-0.67-2.67,0.07l-7.15,5.72
				C368.23,348.95,366.67,348.65,366.5,347.41z"/>
			<linearGradient id="SVGID_8_" gradientUnits="userSpaceOnUse" x1="386.6711" y1="343.8872" x2="190.5865" y2="625.1814">
				<stop  offset="1" style="stop-color:#E1473D"/>
				<stop  offset="1" style="stop-color:#E9605A"/>
			</linearGradient>
			<path style="fill:url(#SVGID_8_);" d="M409.09,382.88l-31.17-38.97c0,0-0.01,0-0.01,0.01l-7.15,5.72
				c-1.27,1.02-2.91,1.31-4.26,0.77c-1.15-0.46-1.94-1.48-2.11-2.72l-7.23-54.25c-0.19-1.43,0.45-2.88,1.7-3.88
				c1.26-1,2.81-1.3,4.16-0.81l51.33,18.98c1.17,0.43,1.99,1.42,2.19,2.65c0.23,1.44-0.41,2.97-1.69,3.99l-7.15,5.72
				c0,0-0.01,0.01-0.01,0.01l31.17,38.97c0.68,0.85,0.91,1.99,0.63,3.13c-0.24,0.94-0.81,1.8-1.61,2.45l-23.14,18.51
				c-0.87,0.7-1.89,1.04-2.85,1.04C410.81,384.19,409.79,383.75,409.09,382.88z M404.09,322.35c-1.31-1.64-0.87-4.08,0.99-5.57
				l6.81-5.44l-50.2-18.56c-0.1,0.04-0.23,0.14-0.29,0.23l7.07,53.06l6.81-5.45c1.86-1.49,4.35-1.37,5.65,0.26l31.17,38.97
				c0,0,0.01,0,0.01-0.01l23.14-18.51c0,0,0.01,0,0.01-0.01L404.09,322.35z M368.6,347.13C368.6,347.13,368.6,347.13,368.6,347.13
				L368.6,347.13z"/>
		</g>
		<g>
			
				<linearGradient id="SVGID_9_" gradientUnits="userSpaceOnUse" x1="-6690.8989" y1="249.0958" x2="-6705.3486" y2="293.3868" gradientTransform="matrix(-1 0 0 1 -6450.9683 0)">
				<stop  offset="0" style="stop-color:#FEBBBA"/>
				<stop  offset="1" style="stop-color:#FF928E"/>
			</linearGradient>
			<path style="fill:url(#SVGID_9_);" d="M254,252.37c0,0,20.1,25.74-2.83,51.91l-8.62-0.8c0,0,16.6-26.65,9.21-47.9l-12.21,0.89
				l-6.75-4.4L254,252.37z"/>
			<linearGradient id="SVGID_10_" gradientUnits="userSpaceOnUse" x1="313.0699" y1="354.8701" x2="189.1906" y2="428.787">
				<stop  offset="0" style="stop-color:#FEBBBA"/>
				<stop  offset="1" style="stop-color:#FF928E"/>
			</linearGradient>
			<path style="fill:url(#SVGID_10_);" d="M242.99,378.38c0,0-16.29,35.5-24.83,50.2c0,0-1.7,9.25,0,12.16l1.45,0.64l-6.75-0.2
				c0,0-0.6-12.44-0.13-13.14c0.47-0.7,1.4-0.65,1.4-0.65s2.89-22.93,11.28-27.83l8.12-27.98L242.99,378.38z"/>
			
				<linearGradient id="SVGID_11_" gradientUnits="userSpaceOnUse" x1="-6652.1089" y1="338.3989" x2="-6667.187" y2="436.4044" gradientTransform="matrix(-1 0 0 1 -6450.9683 0)">
				<stop  offset="0" style="stop-color:#4F52FF"/>
				<stop  offset="1" style="stop-color:#4042E2"/>
			</linearGradient>
			<path style="fill:url(#SVGID_11_);" d="M222.49,443.13c0.01,0.16-5.27,0.09-8.14,0.04c-1.06-0.02-1.96-0.76-2.19-1.8l-2.17-11.38
				c-0.21-1.08,0.48-2.13,1.55-2.38l1.21-0.28c0,0,1.73,2.37,1.18,4.59c-0.54,2.23-1.03,8,0.35,8.67c1.37,0.67,5.32,0.79,5.32,0.79
				S222.4,441.66,222.49,443.13z"/>
			
				<linearGradient id="SVGID_12_" gradientUnits="userSpaceOnUse" x1="-6684.0122" y1="333.4909" x2="-6699.0898" y2="431.4967" gradientTransform="matrix(-1 0 0 1 -6450.9683 0)">
				<stop  offset="0" style="stop-color:#4F52FF"/>
				<stop  offset="1" style="stop-color:#4042E2"/>
			</linearGradient>
			<path style="fill:url(#SVGID_12_);" d="M258.43,443.33c0.53,0.3,0.31,1.12-0.3,1.11c-4.8-0.05-15.56-0.2-16.51-0.6
				c-1.23-0.51,0.45-4.95,2.22-6.45l9.79,3.19L258.43,443.33z"/>
			<linearGradient id="SVGID_13_" gradientUnits="userSpaceOnUse" x1="306.0028" y1="368.9134" x2="207.105" y2="443.5145">
				<stop  offset="0" style="stop-color:#FEBBBA"/>
				<stop  offset="1" style="stop-color:#FF928E"/>
			</linearGradient>
			<path style="fill:url(#SVGID_13_);" d="M261.46,376.12c0,0-10.52,50.92-13.5,60.85l7.04,4.42c0,0-3.53-0.6-6.15-0.79
				c-2.62-0.19-5.02-3.19-5.02-3.19l0.84-1.35c0,0,2.64-50.64,2-56.39L261.46,376.12z"/>
			
				<linearGradient id="SVGID_14_" gradientUnits="userSpaceOnUse" x1="-6750.4121" y1="276.4725" x2="-6715.897" y2="276.4725" gradientTransform="matrix(-1 0 0 1 -6450.9683 0)">
				<stop  offset="0" style="stop-color:#FEBBBA"/>
				<stop  offset="1" style="stop-color:#FF928E"/>
			</linearGradient>
			<path style="fill:url(#SVGID_14_);" d="M287.59,257.35c0,0,1.45,26.49-22.66,40.02l5.81,13.24c0,0,21.83-13.21,21.02-49.22
				c-0.02-1.03,0.35-2.04,1.02-2.82l4.64-5.38c1.77-2.05,2.43-4.83,1.77-7.46l-0.61-2.44c-0.2-0.82-1.14-1.21-1.86-0.79l-0.49,0.28
				c-1.54,0.9-2.77,2.26-3.5,3.89l-2.28,5.09c-0.85,1.9-2.81,3.06-4.89,2.88l-1.41-0.12L287.59,257.35z"/>
			<linearGradient id="SVGID_15_" gradientUnits="userSpaceOnUse" x1="461.731" y1="142.1581" x2="228.6878" y2="335.1627">
				<stop  offset="0" style="stop-color:#E1473D"/>
				<stop  offset="1" style="stop-color:#E9605A"/>
			</linearGradient>
			<path style="fill:url(#SVGID_15_);" d="M265.77,295.39c-4.03,1.12-17.7,4.71-26.23,4.57l5.24,29.56l-0.42,4.82l17.08-0.08
				c0,0,4.81-11.17,8.6-16.73c1.1-1.61,0.28-3.53-0.34-5.37l0.85-0.57c0.87-0.58,1.24-1.66,0.92-2.66l-4.16-12.73
				C267.1,295.57,266.42,295.21,265.77,295.39z"/>
			<linearGradient id="SVGID_16_" gradientUnits="userSpaceOnUse" x1="262.8318" y1="394.0355" x2="241.3105" y2="339.4044">
				<stop  offset="0" style="stop-color:#4F52FF"/>
				<stop  offset="1" style="stop-color:#4042E2"/>
			</linearGradient>
			<path style="fill:url(#SVGID_16_);" d="M262.8,331.74l-0.34,2.92c0,0,4.83,14.46-2.41,48.22c0,0-15.68,4.44-28.57-6.19
				c0,0,3.64-31.87,4.63-33.35c4.95-7.39,8.24-9,8.24-9l0.15-3.19C244.5,331.15,258.29,333.64,262.8,331.74z"/>
			
				<linearGradient id="SVGID_17_" gradientUnits="userSpaceOnUse" x1="-6707.0874" y1="293.4179" x2="-6696.2983" y2="293.4179" gradientTransform="matrix(-1 0 0 1 -6450.9683 0)">
				<stop  offset="0" style="stop-color:#FEBBBA"/>
				<stop  offset="1" style="stop-color:#FF928E"/>
			</linearGradient>
			<path style="fill:url(#SVGID_17_);" d="M256.12,297.77c0.06-0.08-3.57-10.95-3.57-10.95l-5.19,0.47l-2.03,12.33
				C245.33,299.63,253.47,301.27,256.12,297.77z"/>
			<g>
				
					<linearGradient id="SVGID_18_" gradientUnits="userSpaceOnUse" x1="-6689.9404" y1="279.4754" x2="-6611.4102" y2="284.8154" gradientTransform="matrix(-1 0 0 1 -6450.9683 0)">
					<stop  offset="0" style="stop-color:#FEBBBA"/>
					<stop  offset="1" style="stop-color:#FF928E"/>
				</linearGradient>
				<path style="fill:url(#SVGID_18_);" d="M248.6,269.69c0.35,0.22,11.1,4.66,8.79,15.82c-0.14,0.66-0.58,1.22-1.19,1.49
					c-1.58,0.7-4.97,1.91-9.04,1.5c-5.63-0.57-9.32-10.4-9.17-13.26C238.15,272.38,245.17,267.55,248.6,269.69z"/>
				
					<linearGradient id="SVGID_19_" gradientUnits="userSpaceOnUse" x1="-6676.2998" y1="276.9077" x2="-6707.582" y2="339.4727" gradientTransform="matrix(-1 0 0 1 -6450.9683 0)">
					<stop  offset="0" style="stop-color:#09005D"/>
					<stop  offset="1" style="stop-color:#1A0F91"/>
				</linearGradient>
				<path style="fill:url(#SVGID_19_);" d="M245.33,265.35c2.15,0.28,4.35,2.48,4.04,4.73c-0.3,2.17-2.62,2.64-3.67,4.2
					c-2.41,3.63-0.22,9.83,2.02,13.06c6.74,9.74,17.79,21.56,10.21,34.24c-4.92,8.24-15.89,12.91-25.23,11.86
					c-4.96-0.55-9.77-5.72-12.12-9.86c-3.29-5.82-3.89-13.14-2.13-19.55c1.71-6.2,7.23-11.1,10.86-16.27
					c1.31-1.87,2.58-3.94,2.55-6.22c-0.02-1.42-0.55-2.79-0.71-4.21C230.34,270.12,238.93,264.51,245.33,265.35z"/>
				<path style="fill:#91B3FA;" d="M229.44,324.22l0.16-0.26c-3.45-2.15-5.59-6.44-5.6-11.22c0-3.79,1.18-7.76,3.73-12.49
					c0.95-1.76,2.01-3.5,3.04-5.19c1.24-2.03,2.51-4.12,3.61-6.27c0.98-1.94,1.92-4.22,1.37-6.46c-0.27-1.11-0.9-2.16-1.51-3.17
					c-0.95-1.58-1.85-3.08-1.38-4.71l-0.3-0.09c-0.51,1.76,0.47,3.39,1.41,4.96c0.6,0.99,1.21,2.02,1.47,3.08
					c0.52,2.14-0.39,4.35-1.34,6.24c-1.09,2.14-2.36,4.23-3.6,6.25c-1.03,1.69-2.09,3.43-3.05,5.2c-2.57,4.78-3.77,8.79-3.77,12.63
					C223.7,317.62,225.9,322.02,229.44,324.22z"/>
				<path style="fill:#91B3FA;" d="M231.83,323.55l0.25-0.18c-2.71-3.82-3.7-9.16-2.72-14.65c0.97-5.44,3.65-10.4,5.87-14.11
					l-0.27-0.16c-2.24,3.73-4.93,8.72-5.91,14.21C228.07,314.24,229.08,319.67,231.83,323.55z"/>
			</g>
		</g>
	</g>
</g>
</svg>
