<?xml version="1.0" encoding="utf-8"?>
<!-- Generator: Adobe Illustrator 24.2.3, SVG Export Plug-In . SVG Version: 6.00 Build 0)  -->
<svg version="1.1" xmlns="http://www.w3.org/2000/svg" xmlns:xlink="http://www.w3.org/1999/xlink" x="0px" y="0px"
	 viewBox="0 0 750 500" style="enable-background:new 0 0 750 500;" xml:space="preserve">
<g id="BACKGROUND">
</g>
<g id="OBJECTS">
	<g style="opacity:0.6;">
		<g>
			<g>
				
					<rect x="545.31" y="53.57" transform="matrix(0.4239 -0.9057 0.9057 0.4239 217.7516 555.6403)" style="fill:#FFFFFF;" width="0.64" height="106.18"/>
			</g>
			<g>
				
					<rect x="414.17" y="104.12" transform="matrix(0.8882 -0.4594 0.4594 0.8882 3.2467 222.2307)" style="fill:#FFFFFF;" width="88.32" height="0.64"/>
			</g>
			<g>
				
					<rect x="506.52" y="83.14" transform="matrix(0.9765 -0.2156 0.2156 0.9765 -15.2966 112.2446)" style="fill:#FFFFFF;" width="0.64" height="86.19"/>
			</g>
			<g>
				
					<rect x="451.04" y="233.87" transform="matrix(0.5856 -0.8106 0.8106 0.5856 -48.7137 486.4071)" style="fill:#FFFFFF;" width="0.64" height="113.96"/>
			</g>
			<g>
				
					<rect x="575.38" y="132.37" transform="matrix(0.4661 -0.8847 0.8847 0.4661 130.6834 615.9606)" style="fill:#FFFFFF;" width="0.64" height="134.67"/>
			</g>
			<g>
				<polygon style="fill:#FFFFFF;" points="540.78,255.71 540.9,255.41 594.2,129.01 593.48,128.71 593.36,129.01 540.06,255.41 
									"/>
			</g>
			<g>
				
					<rect x="328.45" y="17.7" transform="matrix(0.1681 -0.9858 0.9858 0.1681 165.7372 415.0472)" style="fill:#FFFFFF;" width="0.64" height="183.27"/>
			</g>
			<g>
				
					<rect x="394.66" y="67.57" transform="matrix(0.6977 -0.7164 0.7164 0.6977 46.8814 313.5775)" style="fill:#FFFFFF;" width="0.64" height="67.34"/>
			</g>
			<g>
				
					<rect x="267.44" y="277.23" transform="matrix(0.4763 -0.8793 0.8793 0.4763 -78.8391 422.7351)" style="fill:#FFFFFF;" width="96.06" height="0.64"/>
			</g>
			<g>
				
					<rect x="284.55" y="288.31" transform="matrix(0.8749 -0.4842 0.4842 0.8749 -96.1338 205.0424)" style="fill:#FFFFFF;" width="128.67" height="0.64"/>
			</g>
			<g>
				
					<rect x="241.69" y="243.86" transform="matrix(0.9833 -0.1818 0.1818 0.9833 -39.5574 56.8762)" style="fill:#FFFFFF;" width="97.48" height="0.64"/>
			</g>
			<g>
				<polygon style="fill:#FFFFFF;" points="102.77,230.67 190.28,161.81 189.88,161.31 102.36,230.17 				"/>
			</g>
			<g>
				
					<rect x="164.95" y="98.31" transform="matrix(0.7297 -0.6838 0.6838 0.7297 -47.3512 149.3944)" style="fill:#FFFFFF;" width="0.64" height="72.55"/>
			</g>
			<g>
				
					<rect x="172.9" y="127.17" transform="matrix(0.5845 -0.8114 0.8114 0.5845 -14.4244 226.8135)" style="fill:#FFFFFF;" width="82.73" height="0.64"/>
			</g>
			<g>
				
					<rect x="240.15" y="93.9" transform="matrix(0.9997 -0.0254 0.0254 0.9997 -4.3293 6.1644)" style="fill:#FFFFFF;" width="0.64" height="159.17"/>
			</g>
			<g>
				
					<rect x="251.6" y="104.79" transform="matrix(0.0941 -0.9956 0.9956 0.0941 62.0423 401.9872)" style="fill:#FFFFFF;" width="0.64" height="124.22"/>
			</g>
			<g>
				
					<rect x="267.22" y="244.69" transform="matrix(0.7997 -0.6004 0.6004 0.7997 -118.3787 218.0268)" style="fill:#FFFFFF;" width="0.64" height="83.45"/>
			</g>
			<g>
				
					<rect x="329.68" y="209.41" transform="matrix(0.7939 -0.608 0.608 0.7939 -50.9064 269.2749)" style="fill:#FFFFFF;" width="84.17" height="0.64"/>
			</g>
			<g>
				
					<rect x="325.73" y="170.42" transform="matrix(0.9306 -0.3659 0.3659 0.9306 -52.0484 133.4651)" style="fill:#FFFFFF;" width="0.64" height="67.24"/>
			</g>
			<g>
				
					<rect x="404.61" y="175.91" transform="matrix(0.99 -0.1412 0.1412 0.99 -20.2676 66.8075)" style="fill:#FFFFFF;" width="112.08" height="0.64"/>
			</g>
			<g>
				<rect x="404.85" y="184.14" style="fill:#FFFFFF;" width="0.64" height="73.34"/>
			</g>
			<g>
				
					<rect x="237.95" y="85.52" transform="matrix(0.9926 -0.1213 0.1213 0.9926 -8.1606 37.5724)" style="fill:#FFFFFF;" width="133.4" height="0.64"/>
			</g>
			<g>
				
					<rect x="539.03" y="242.85" transform="matrix(0.9689 -0.2473 0.2473 0.9689 -41.873 152.9235)" style="fill:#FFFFFF;" width="97.77" height="0.64"/>
			</g>
			<g>
				
					<rect x="478.41" y="289.42" transform="matrix(0.5291 -0.8485 0.8485 0.5291 -1.449 576.8669)" style="fill:#FFFFFF;" width="81.26" height="0.64"/>
			</g>
			<g>
				
					<rect x="359.14" y="132.38" transform="matrix(0.1236 -0.9923 0.9923 0.1236 137.9485 513.0889)" style="fill:#FFFFFF;" width="0.64" height="92.13"/>
			</g>
			<g>
				
					<rect x="381.63" y="154.11" transform="matrix(0.2282 -0.9736 0.9736 0.2282 167.7232 520.4536)" style="fill:#FFFFFF;" width="61.02" height="0.64"/>
			</g>
			<g>
				<polygon style="fill:#FFFFFF;" points="405.27,257.97 405.45,257.82 516.66,168.46 516.1,167.77 405.09,256.98 338.18,234.8 
					337.91,235.64 338.21,235.74 				"/>
			</g>
			<g>
				<polygon style="fill:#FFFFFF;" points="242.75,253.53 242.89,252.66 242.57,252.61 102.32,229.93 102.18,230.8 102.49,230.86 
									"/>
			</g>
			<g>
				<polygon style="fill:#FFFFFF;" points="313.64,173.28 313.94,173.15 419.58,125 419.21,124.19 313.28,172.48 				"/>
			</g>
			<g>
				<polygon style="fill:#FFFFFF;" points="242.42,253.8 242.83,253.34 314.3,172.8 313.64,172.21 242.58,252.29 190.31,160.56 
					189.54,160.99 				"/>
			</g>
			<g>
				
					<rect x="275.66" y="78.51" transform="matrix(0.7232 -0.6906 0.6906 0.7232 -15.667 227.583)" style="fill:#FFFFFF;" width="0.88" height="109.66"/>
			</g>
			<g>
				<polygon style="fill:#FFFFFF;" points="404.86,257.92 405.18,257.92 540.87,255.7 540.86,254.81 540.54,254.82 404.85,257.04 
									"/>
			</g>
			<g>
				<polygon style="fill:#FFFFFF;" points="540.21,255.69 541.06,255.45 540.97,255.14 516.47,167.89 515.62,168.12 515.7,168.44 
									"/>
			</g>
			<g>
				<polygon style="fill:#FFFFFF;" points="516.14,168.81 516.33,168.71 594.2,129.41 593.8,128.62 516.12,167.83 418.99,124.19 
					418.63,125 				"/>
			</g>
		</g>
		<g>
			<g>
				
					<ellipse transform="matrix(0.9871 -0.1602 0.1602 0.9871 -13.0229 96.7705)" style="fill:#FFFFFF;" cx="593.72" cy="129.16" rx="4.43" ry="4.43"/>
			</g>
			<g>
				
					<ellipse transform="matrix(0.9871 -0.1602 0.1602 0.9871 -33.9085 89.8817)" style="fill:#FFFFFF;" cx="540.54" cy="255.26" rx="4.43" ry="4.43"/>
			</g>
			<g>
				<circle style="fill:#FFFFFF;" cx="516.13" cy="168.32" r="4.43"/>
			</g>
			<g>
				
					<ellipse transform="matrix(0.9871 -0.1602 0.1602 0.9871 -7.0558 80.7848)" style="fill:#FFFFFF;" cx="497.55" cy="84.16" rx="4.43" ry="4.43"/>
			</g>
			<g>
				<circle style="fill:#FFFFFF;" cx="238.44" cy="93.93" r="4.43"/>
			</g>
			<g>
				<circle style="fill:#FFFFFF;" cx="370.86" cy="77.75" r="4.43"/>
			</g>
			<g>
				
					<ellipse transform="matrix(0.9874 -0.1585 0.1585 0.9874 -35.222 19.1673)" style="fill:#FFFFFF;" cx="102.57" cy="230.42" rx="4.43" ry="4.43"/>
			</g>
			<g>
				<circle style="fill:#FFFFFF;" cx="419.1" cy="124.73" r="4.43"/>
			</g>
			<g>
				<circle style="fill:#FFFFFF;" cx="405.18" cy="257.48" r="4.43"/>
			</g>
			<g>
				<circle style="fill:#FFFFFF;" cx="635.28" cy="231.09" r="4.43"/>
			</g>
			<g>
				<circle style="fill:#FFFFFF;" cx="242.5" cy="253.05" r="4.43"/>
			</g>
			<g>
				<circle style="fill:#FFFFFF;" cx="190.08" cy="161.05" r="4.43"/>
			</g>
			<g>
				
					<ellipse transform="matrix(0.978 -0.2085 0.2085 0.978 -19.4521 31.6574)" style="fill:#FFFFFF;" cx="140.47" cy="108.12" rx="4.43" ry="4.43"/>
			</g>
			<g>
				<circle style="fill:#FFFFFF;" cx="313.75" cy="172.75" r="4.43"/>
			</g>
			<g>
				<circle style="fill:#FFFFFF;" cx="338.35" cy="235.32" r="4.43"/>
			</g>
			<g>
				<circle style="fill:#FFFFFF;" cx="292.59" cy="319.79" r="4.43"/>
			</g>
			<g>
				<circle style="fill:#FFFFFF;" cx="497.55" cy="324.22" r="4.43"/>
			</g>
			<g>
				<circle style="fill:#FFFFFF;" cx="405.18" cy="184.14" r="4.43"/>
			</g>
		</g>
	</g>
	<g>
		<g>
			<circle style="fill:#DEFEFF;" cx="264.47" cy="127.09" r="6.77"/>
			<g>
				<path style="fill:#DEFEFF;" d="M266.41,95.15l-0.28-4.34c-22.83-0.04-40.17,18.14-39.05,40.93l4.35,0.07
					C230.46,111.41,245.97,95.14,266.41,95.15z"/>
				<path style="fill:#DEFEFF;" d="M266.99,104.17l-0.28-4.34c-17.85,0.03-31.39,14.23-30.59,32.05l4.35,0.07
					C239.82,116.52,251.54,104.24,266.99,104.17z"/>
				<path style="fill:#DEFEFF;" d="M267.55,112.9l-0.28-4.34c-13.03,0.11-22.9,10.45-22.41,23.46l4.35,0.07
					C248.88,121.47,256.93,113.04,267.55,112.9z"/>
			</g>
		</g>
		<defs>
			<filter id="Adobe_OpacityMaskFilter" filterUnits="userSpaceOnUse" x="114.5" y="335.27" width="292.51" height="102.88">
				<feFlood  style="flood-color:white;flood-opacity:1" result="back"/>
				<feBlend  in="SourceGraphic" in2="back" mode="normal"/>
			</filter>
		</defs>
		<mask maskUnits="userSpaceOnUse" x="114.5" y="335.27" width="292.51" height="102.88" id="SVGID_1_">
			<g style="filter:url(#Adobe_OpacityMaskFilter);">
				<defs>
					<filter id="Adobe_OpacityMaskFilter_1_" filterUnits="userSpaceOnUse" x="114.5" y="335.27" width="292.51" height="102.88">
						<feFlood  style="flood-color:white;flood-opacity:1" result="back"/>
						<feBlend  in="SourceGraphic" in2="back" mode="normal"/>
					</filter>
				</defs>
				<mask maskUnits="userSpaceOnUse" x="114.5" y="335.27" width="292.51" height="102.88" id="SVGID_1_">
				</mask>
				<linearGradient id="SVGID_2_" gradientUnits="userSpaceOnUse" x1="168.8363" y1="428.6816" x2="375.0011" y2="329.7482">
					<stop  offset="4.277940e-03" style="stop-color:#FFFFFF"/>
					<stop  offset="1" style="stop-color:#000000"/>
				</linearGradient>
				<polygon style="mask:url(#SVGID_1_);fill:url(#SVGID_2_);" points="114.5,423.19 187.35,438.16 407.02,345.95 331.74,335.27 
									"/>
			</g>
		</mask>
		<linearGradient id="SVGID_3_" gradientUnits="userSpaceOnUse" x1="168.8363" y1="428.6816" x2="375.0011" y2="329.7482">
			<stop  offset="4.277940e-03" style="stop-color:#0E7AA5"/>
			<stop  offset="1" style="stop-color:#FFFFFF"/>
		</linearGradient>
		<polygon style="opacity:0.5;fill:url(#SVGID_3_);" points="114.5,423.19 187.35,438.16 407.02,345.95 331.74,335.27 		"/>
		<g>
			
				<linearGradient id="SVGID_4_" gradientUnits="userSpaceOnUse" x1="421.8421" y1="258.3034" x2="558.4225" y2="280.7484" gradientTransform="matrix(1.0187 -6.600000e-03 -0.0159 0.9818 -3.0879 -4.8167)">
				<stop  offset="0" style="stop-color:#25D2D9"/>
				<stop  offset="1" style="stop-color:#74FFFF"/>
			</linearGradient>
			<path style="fill:url(#SVGID_4_);" d="M547.15,279.46L436.58,267.3c-7.37-0.81-13.14-8.07-12.99-16.22v0
				c0.15-8.15,6.16-14.3,13.54-13.73l110.64,8.6c9.39,0.73,16.99,8.96,16.82,18.36v0C564.41,273.72,556.54,280.49,547.15,279.46z"/>
			<polygon style="fill:#FFF37C;" points="456.87,246.5 458.54,252.72 464.36,253.25 459.58,256.57 461.26,262.84 456.65,258.61 
				451.97,261.87 453.83,256.02 449.32,251.87 454.99,252.39 			"/>
			<polygon style="fill:#FFF37C;" points="476.1,248.1 477.86,254.48 483.97,255.04 478.95,258.44 480.72,264.87 475.87,260.52 
				470.95,263.85 472.91,257.86 468.16,253.6 474.13,254.14 			"/>
			<polygon style="fill:#FFF37C;" points="496.32,249.79 498.18,256.34 504.61,256.93 499.33,260.4 501.19,267.01 496.09,262.53 
				490.91,265.93 492.97,259.79 487.98,255.41 494.25,255.98 			"/>
			<polygon style="fill:#FFF37C;" points="517.63,251.57 519.58,258.3 526.37,258.92 520.8,262.47 522.77,269.26 517.39,264.65 
				511.93,268.13 514.1,261.83 508.83,257.31 515.44,257.92 			"/>
			<polygon style="fill:#FFF37C;" points="540.1,253.44 542.17,260.36 549.33,261.01 543.45,264.65 545.53,271.63 539.85,266.88 
				534.1,270.44 536.38,263.97 530.82,259.32 537.8,259.96 			"/>
		</g>
		<defs>
			<filter id="Adobe_OpacityMaskFilter_2_" filterUnits="userSpaceOnUse" x="289.02" y="305.56" width="369.39" height="101.36">
				<feFlood  style="flood-color:white;flood-opacity:1" result="back"/>
				<feBlend  in="SourceGraphic" in2="back" mode="normal"/>
			</filter>
		</defs>
		<mask maskUnits="userSpaceOnUse" x="289.02" y="305.56" width="369.39" height="101.36" id="SVGID_5_">
			<g style="filter:url(#Adobe_OpacityMaskFilter_2_);">
				<defs>
					<filter id="Adobe_OpacityMaskFilter_3_" filterUnits="userSpaceOnUse" x="289.02" y="305.56" width="369.39" height="101.36">
						<feFlood  style="flood-color:white;flood-opacity:1" result="back"/>
						<feBlend  in="SourceGraphic" in2="back" mode="normal"/>
					</filter>
				</defs>
				<mask maskUnits="userSpaceOnUse" x="289.02" y="305.56" width="369.39" height="101.36" id="SVGID_5_">
				</mask>
				<linearGradient id="SVGID_6_" gradientUnits="userSpaceOnUse" x1="397.2497" y1="394.7938" x2="585.555" y2="299.2767">
					<stop  offset="4.277940e-03" style="stop-color:#FFFFFF"/>
					<stop  offset="1" style="stop-color:#000000"/>
				</linearGradient>
				<path style="mask:url(#SVGID_5_);fill:url(#SVGID_6_);" d="M289.02,388.57l238.66-83.01l130.73,17.89l-200.45,78.78
					c-7.8,3.93-16.6,5.44-25.27,4.36L289.02,388.57z"/>
			</g>
		</mask>
		<linearGradient id="SVGID_7_" gradientUnits="userSpaceOnUse" x1="397.2497" y1="394.7938" x2="585.555" y2="299.2767">
			<stop  offset="4.277940e-03" style="stop-color:#0E7AA5"/>
			<stop  offset="1" style="stop-color:#FFFFFF"/>
		</linearGradient>
		<path style="opacity:0.6;fill:url(#SVGID_7_);" d="M289.02,388.57l238.66-83.01l130.73,17.89l-200.45,78.78
			c-7.8,3.93-16.6,5.44-25.27,4.36L289.02,388.57z"/>
		<g>
			<path style="fill:#666666;" d="M459.82,84.58c-2.19-16.17-28.84-22.27-28.82-11.79L315.86,78.2
				c-7.49,0.35-13.78,7.21-14.11,15.33l-11.21,273.98c-0.33,8.11,5.38,15.47,12.81,16.43l114.51,14.83
				c0.68,1.54,2.03,3.04,4.21,4.42c14.08,2.02,21.23-3.53,24.1-10.46c0.92-1.85,1.47-3.95,1.56-6.21
				C447.42,382.66,460.56,88.36,459.82,84.58z"/>
			<g>
				<g>
					<path style="fill:#757575;" d="M420.76,403.07l-130.69-16.93c-7.59-0.98-13.42-8.49-13.08-16.78l11.44-279.76
						c0.34-8.29,6.76-15.29,14.41-15.65l131.64-6.19c8.9-0.42,15.88,6.57,15.51,15.62l-12.49,305.39
						C437.12,397.82,429.6,404.22,420.76,403.07z"/>
					<path style="fill:#595959;" d="M422.8,401.16c-0.59,0-1.18-0.04-1.77-0.12l-130.69-16.93c-6.53-0.85-11.6-7.42-11.3-14.66
						L290.47,89.7c0.3-7.24,5.89-13.38,12.46-13.69l131.64-6.19c0.22-0.01,0.44-0.02,0.66-0.02c3.55,0,6.8,1.36,9.17,3.83
						c2.43,2.53,3.68,5.97,3.53,9.68l-12.49,305.39C435.16,395.8,429.72,401.16,422.8,401.16z"/>
					<polygon style="fill:#FFFFFF;" points="430.46,388.58 283.03,370.7 294.68,85.9 443.08,79.89 					"/>
				</g>
				<polygon style="fill:#1FBFC7;" points="441.91,108.53 293.6,112.33 294.68,85.9 443.08,79.89 				"/>
				<g>
					<g>
						<g>
							<path style="fill:#FFFFFF;" d="M430.06,97.32l-8.96,0.28c-0.18,0.01-0.33-0.11-0.38-0.28l-1.48-5.37
								c-0.03-0.13-0.01-0.26,0.07-0.37c0.08-0.11,0.21-0.18,0.34-0.18l12.4-0.43c0.13,0,0.25,0.05,0.33,0.16
								c0.07,0.11,0.09,0.24,0.04,0.37l-1.95,5.51C430.41,97.19,430.24,97.32,430.06,97.32z M421.44,96.76l8.36-0.27l1.65-4.67
								l-11.27,0.39L421.44,96.76z"/>
							<path style="fill:#FFFFFF;" d="M429.23,99.65l-7.64,0.23c-0.23,0.01-0.4-0.17-0.39-0.4c0.01-0.23,0.2-0.42,0.43-0.43
								l7.34-0.23c0.5-0.03,0.74-0.39,0.79-0.75c0.05-0.32-0.06-0.65-0.27-0.74l2.93-8.33c0.06-0.18,0.23-0.3,0.41-0.31l2.69-0.1
								c0.23-0.01,0.41,0.17,0.4,0.4c-0.01,0.23-0.2,0.43-0.43,0.43l-2.39,0.09l-2.69,7.73C430.99,98.3,430.07,99.63,429.23,99.65z"
								/>
							<path style="fill:#FFFFFF;" d="M424.03,101.21c-0.02,0.53-0.46,0.97-0.98,0.99c-0.52,0.02-0.92-0.4-0.9-0.93
								c0.02-0.53,0.46-0.97,0.98-0.99C423.65,100.26,424.05,100.68,424.03,101.21z"/>
							<path style="fill:#FFFFFF;" d="M428.79,101.07c-0.02,0.53-0.46,0.97-0.99,0.99c-0.52,0.02-0.93-0.4-0.91-0.93
								c0.02-0.53,0.46-0.97,0.98-0.99C428.4,100.12,428.81,100.53,428.79,101.07z"/>
							<path style="fill:#FFFFFF;" d="M425.8,97.46c-0.23,0.01-0.4-0.17-0.39-0.4l0.22-5.44c0.01-0.23,0.2-0.42,0.43-0.43
								c0.23-0.01,0.4,0.17,0.39,0.4l-0.22,5.44C426.21,97.26,426.02,97.45,425.8,97.46z"/>
							<path style="fill:#FFFFFF;" d="M423.51,97.53c-0.19,0.01-0.35-0.12-0.39-0.31l-0.99-5.39c-0.04-0.22,0.11-0.45,0.33-0.51
								c0.22-0.06,0.44,0.07,0.48,0.3l0.99,5.39c0.04,0.22-0.11,0.45-0.33,0.51C423.57,97.52,423.54,97.53,423.51,97.53z"/>
							<path style="fill:#FFFFFF;" d="M427.99,97.39c-0.02,0-0.04,0-0.06,0c-0.22-0.03-0.37-0.23-0.33-0.46l1-5.47
								c0.04-0.23,0.26-0.4,0.48-0.37c0.22,0.03,0.37,0.23,0.33,0.46l-1,5.47C428.37,97.23,428.19,97.38,427.99,97.39z"/>
							<path style="fill:#FFFFFF;" d="M431.04,94.6l-10.67,0.35c-0.23,0.01-0.4-0.17-0.39-0.4s0.2-0.42,0.42-0.43l10.67-0.36
								c0.23-0.01,0.41,0.17,0.4,0.4C431.46,94.4,431.27,94.59,431.04,94.6z"/>
						</g>
						<path style="fill:#FFFFFF;" d="M435.82,89.63l-2.43,0.09l0.05-1.26l2.43-0.09c0.31-0.01,0.56,0.24,0.54,0.55l0,0.12
							C436.4,89.36,436.14,89.62,435.82,89.63z"/>
					</g>
				</g>
				<polygon style="fill:#D2F2F4;" points="391.97,103.21 336.96,104.81 337.18,99.47 392.19,97.7 				"/>
				<g>
					<path style="fill:#1FBFC7;" d="M306.61,139.68c-1.92,0-3.71-0.76-5.06-2.16c-1.51-1.55-2.32-3.77-2.22-6.08
						c0.19-4.56,3.77-8.33,7.99-8.41L425,120.79c2.3-0.04,4.45,0.82,6.03,2.44c1.62,1.66,2.46,3.89,2.36,6.3
						c-0.2,4.88-4.27,8.89-9.07,8.94l0-0.45l0,0.45l-117.64,1.21C306.66,139.68,306.63,139.68,306.61,139.68z M425.16,121.69
						c-0.05,0-0.1,0-0.15,0l-117.68,2.25c-3.75,0.07-6.93,3.45-7.1,7.54c-0.08,2.06,0.63,4.03,1.97,5.41
						c1.19,1.23,2.79,1.9,4.48,1.88l117.64-1.21c4.33-0.04,7.99-3.67,8.17-8.08c0.09-2.15-0.66-4.15-2.11-5.63
						C429.01,122.46,427.16,121.69,425.16,121.69z"/>
					<path style="fill:#1FBFC7;" d="M424.32,138.01l-9.52,0.1l0.68-16.69l9.53-0.18c4.56-0.09,8.13,3.61,7.94,8.27v0
						C432.75,134.16,428.88,137.97,424.32,138.01z"/>
				</g>
				<g>
					<g>
						<g>
							<path style="fill:#94F3F7;" d="M354.56,211.84l-53.77-1.6c-1.47-0.04-2.6-1.37-2.54-2.97l2.07-50.7
								c0.07-1.6,1.31-2.89,2.78-2.9l53.84-0.12c1.56,0,2.77,1.33,2.71,2.98l-2.14,52.39C357.44,210.58,356.12,211.88,354.56,211.84
								z"/>
							<polygon style="fill:#1FBFC7;" points="369.64,154.01 369.35,160.94 433.47,161.05 433.76,153.89 							"/>
							<polygon style="fill:#1FBFC7;" points="369.2,164.59 368.92,171.52 427.42,171.96 427.71,164.81 							"/>
							<polygon style="fill:#1FBFC7;" points="368.77,175.17 368.49,182.1 414.76,182.71 415.05,175.61 							"/>
						</g>
						<g>
							<path style="fill:#1FBFC7;" d="M428.71,214.04l-58.47-1.73c-1.34-0.04-2.38-1.21-2.32-2.62l0.54-13.27
								c0.06-1.4,1.19-2.52,2.53-2.5l58.5,1.15c1.43,0.03,2.54,1.23,2.48,2.68l-0.56,13.73
								C431.35,212.94,430.14,214.08,428.71,214.04z"/>
							<g>
								<path style="fill:#FFFFFF;" d="M374.53,205.09l-0.47,1.29l-1.15-0.03l2.06-5.59l1.47,0.03l1.69,5.7l-1.23-0.03l-0.39-1.31
									L374.53,205.09z M376.3,204.13c-0.34-1.21-0.55-1.97-0.66-2.48l-0.01,0c-0.16,0.55-0.46,1.43-0.81,2.45L376.3,204.13z"/>
								<path style="fill:#FFFFFF;" d="M379.06,200.85l2.16,0.05c1.58,0.04,2.58,1.15,2.51,2.83c-0.07,1.65-1.13,2.88-2.8,2.83
									l-2.1-0.06L379.06,200.85z M380.04,205.55l0.88,0.02c1.04,0.03,1.54-0.78,1.59-1.88c0.04-0.93-0.36-1.79-1.43-1.81
									l-0.89-0.02L380.04,205.55z"/>
								<path style="fill:#FFFFFF;" d="M384.87,200.99l2.17,0.05c1.59,0.04,2.59,1.15,2.53,2.83c-0.07,1.66-1.14,2.89-2.81,2.84
									l-2.12-0.06L384.87,200.99z M385.86,205.7l0.89,0.02c1.05,0.03,1.55-0.78,1.6-1.88c0.04-0.93-0.36-1.79-1.44-1.82l-0.9-0.02
									L385.86,205.7z"/>
								<path style="fill:#FFFFFF;" d="M393.71,202.2l-1.68-0.04l0.04-1.01l4.54,0.11l-0.04,1.01l-1.67-0.04l-0.19,4.69l-1.19-0.03
									L393.71,202.2z"/>
								<path style="fill:#FFFFFF;" d="M402.17,204.23c-0.07,1.6-1.05,2.94-2.85,2.89c-1.74-0.05-2.6-1.37-2.53-3.01
									c0.07-1.66,1.12-2.91,2.84-2.87C401.26,201.28,402.24,202.48,402.17,204.23z M398.03,204.12c-0.05,1.12,0.39,1.98,1.37,2
									c1.07,0.03,1.49-0.88,1.53-1.91c0.04-1.09-0.36-1.95-1.39-1.97C398.54,202.23,398.07,203.01,398.03,204.12z"/>
								<path style="fill:#FFFFFF;" d="M409.88,205.54c-0.26,1.07-1.08,1.83-2.49,1.8c-1.78-0.05-2.56-1.36-2.49-2.99
									c0.06-1.57,0.99-2.96,2.79-2.92c1.49,0.03,2.18,0.94,2.28,1.92l-1.21-0.03c-0.1-0.45-0.39-0.9-1.15-0.92
									c-1-0.02-1.42,0.89-1.46,1.94c-0.04,0.97,0.25,2,1.33,2.03c0.8,0.02,1.06-0.51,1.18-0.85L409.88,205.54z"/>
								<path style="fill:#FFFFFF;" d="M411.85,206.05l-0.49,1.32l-1.2-0.03l2.14-5.71l1.53,0.04l1.77,5.81l-1.28-0.03l-0.41-1.34
									L411.85,206.05z M413.69,205.07c-0.35-1.23-0.57-2.01-0.69-2.54l-0.01,0c-0.16,0.56-0.48,1.46-0.84,2.5L413.69,205.07z"/>
								<path style="fill:#FFFFFF;" d="M417.61,205.21l-0.09,2.31l-1.2-0.03l0.24-5.77l2.49,0.06c1.23,0.03,1.87,0.73,1.83,1.63
									c-0.03,0.77-0.46,1.18-0.88,1.35c0.27,0.12,0.69,0.42,0.65,1.46l-0.01,0.29c-0.02,0.39-0.03,0.83,0.04,1.1l-1.17-0.03
									c-0.09-0.25-0.09-0.69-0.06-1.3l0-0.08c0.03-0.63-0.12-0.93-1.03-0.96L417.61,205.21z M417.65,204.22l1.03,0.03
									c0.67,0.02,0.94-0.24,0.96-0.72c0.02-0.47-0.27-0.75-0.87-0.76l-1.05-0.03L417.65,204.22z"/>
								<path style="fill:#FFFFFF;" d="M423.19,202.91l-1.73-0.04l0.04-1.02l4.69,0.11l-0.04,1.03l-1.73-0.04l-0.19,4.77l-1.23-0.03
									L423.19,202.91z"/>
							</g>
						</g>
					</g>
					<g>
						<path style="fill:#3A859E;" d="M340.79,195.46l-1.04-0.35c0.03-0.08,2.2-8.41,2.47-11.59c0.33-3.83-0.65-7.22-2.85-9.82
							c-2.5-2.96-6.41-4.67-10.72-4.69c-4.19-0.03-7.88,1.46-10.4,4.19c-2.31,2.5-3.51,5.93-3.47,9.93
							c0.03,3.16,1.2,11.13,1.22,11.21l-1.06,0.21c-0.05-0.33-1.19-8.13-1.23-11.37c-0.05-4.32,1.26-8.04,3.79-10.78
							c2.73-2.96,6.71-4.58,11.19-4.55c4.6,0.03,8.8,1.87,11.5,5.06c2.4,2.83,3.48,6.53,3.12,10.69
							C343.04,186.91,340.9,195.12,340.79,195.46z"/>
						<g>
							<g>
								<path style="fill:#3A859E;" d="M315.24,189.18l1.07,8.07c0.12,0.87,0.82,1.48,1.62,1.44l-1.5-11.47
									C315.65,187.47,315.13,188.3,315.24,189.18z"/>
								<path style="fill:#3A859E;" d="M318.12,198.67l3.05-0.54l-1.53-11.51l-3.04,0.56c-0.06,0.01-0.11,0.02-0.17,0.04l1.5,11.47
									C318,198.69,318.06,198.69,318.12,198.67z"/>
							</g>
							<g>
								<path style="fill:#4DB2D4;" d="M321.93,199.28L321.93,199.28c-0.93,0.17-1.79-0.51-1.93-1.51l-1.38-10.39
									c-0.13-1,0.51-1.94,1.44-2.11l0,0c0.93-0.17,1.79,0.5,1.93,1.49l1.39,10.41C323.51,198.17,322.86,199.11,321.93,199.28z"/>
							</g>
						</g>
						<g>
							<g>
								<path style="fill:#3A859E;" d="M341.08,189.75l-1.96,8.08c-0.21,0.87-1,1.43-1.81,1.34l2.76-11.46
									C340.84,188,341.29,188.87,341.08,189.75z"/>
								<path style="fill:#3A859E;" d="M337.11,199.13l-3.03-0.77l2.77-11.46l3.04,0.75c0.06,0.01,0.11,0.03,0.17,0.05l-2.76,11.46
									C337.24,199.16,337.18,199.15,337.11,199.13z"/>
							</g>
							<g>
								<path style="fill:#4DB2D4;" d="M333.2,199.46L333.2,199.46c0.92,0.23,1.87-0.38,2.11-1.37l2.51-10.36
									c0.24-1-0.32-1.99-1.24-2.22l0,0c-0.93-0.23-1.87,0.39-2.11,1.39l-2.5,10.34C331.72,198.23,332.28,199.23,333.2,199.46z"/>
							</g>
						</g>
					</g>
				</g>
				<g>
					<g>
						<g>
							<path style="fill:#94F3F7;" d="M351.37,289.78l-53.68-3.89c-1.46-0.11-2.6-1.49-2.53-3.08l2.07-50.7
								c0.07-1.6,1.3-2.84,2.77-2.78l53.75,2.17c1.56,0.06,2.77,1.45,2.7,3.1L354.31,287C354.24,288.65,352.93,289.89,351.37,289.78
								z"/>
							<polygon style="fill:#1FBFC7;" points="366.43,232.49 366.14,239.42 430.15,242.27 430.44,235.1 							"/>
							<polygon style="fill:#1FBFC7;" points="365.99,243.07 365.71,250 424.1,252.93 424.4,245.79 							"/>
							<polygon style="fill:#1FBFC7;" points="365.56,253.65 365.28,260.58 411.47,263.17 411.76,256.06 							"/>
						</g>
						<g>
							<path style="fill:#1FBFC7;" d="M425.39,295.14l-58.37-4.23c-1.34-0.1-2.38-1.31-2.32-2.72l0.54-13.27
								c0.06-1.4,1.19-2.48,2.53-2.39l58.39,3.64c1.43,0.09,2.54,1.34,2.48,2.79l-0.56,13.73
								C428.03,294.15,426.82,295.24,425.39,295.14z"/>
							<g>
								<path style="fill:#FFFFFF;" d="M371.31,283.87l-0.47,1.27l-1.15-0.08l2.06-5.52l1.46,0.1l1.69,5.78l-1.23-0.09l-0.39-1.33
									L371.31,283.87z M373.07,282.99c-0.33-1.22-0.55-2-0.66-2.52l-0.01,0c-0.16,0.55-0.46,1.41-0.81,2.42L373.07,282.99z"/>
								<path style="fill:#FFFFFF;" d="M375.83,279.81l2.16,0.14c1.58,0.1,2.57,1.26,2.51,2.94c-0.07,1.65-1.13,2.83-2.79,2.72
									l-2.1-0.15L375.83,279.81z M376.81,284.56l0.88,0.06c1.04,0.07,1.54-0.71,1.58-1.81c0.04-0.93-0.36-1.8-1.42-1.88
									l-0.89-0.06L376.81,284.56z"/>
								<path style="fill:#FFFFFF;" d="M381.63,280.2l2.17,0.14c1.59,0.1,2.59,1.26,2.52,2.95c-0.07,1.66-1.14,2.84-2.81,2.73
									l-2.11-0.15L381.63,280.2z M382.62,284.96l0.89,0.06c1.05,0.07,1.55-0.71,1.59-1.82c0.04-0.93-0.36-1.81-1.43-1.88
									l-0.89-0.06L382.62,284.96z"/>
								<path style="fill:#FFFFFF;" d="M390.45,281.79l-1.67-0.11l0.04-1.01l4.54,0.3l-0.04,1.01l-1.67-0.11l-0.19,4.69l-1.19-0.08
									L390.45,281.79z"/>
								<path style="fill:#FFFFFF;" d="M398.9,284.19c-0.07,1.6-1.05,2.9-2.85,2.78c-1.74-0.12-2.59-1.48-2.53-3.12
									c0.07-1.66,1.12-2.87,2.84-2.75C397.99,281.2,398.97,282.44,398.9,284.19z M394.76,283.9c-0.05,1.12,0.39,2,1.37,2.06
									c1.07,0.07,1.48-0.82,1.53-1.84c0.04-1.09-0.36-1.96-1.38-2.03C395.28,282.02,394.81,282.79,394.76,283.9z"/>
								<path style="fill:#FFFFFF;" d="M406.6,285.83c-0.26,1.06-1.08,1.79-2.48,1.69c-1.77-0.12-2.55-1.47-2.48-3.1
									c0.06-1.57,0.99-2.92,2.78-2.8c1.49,0.1,2.18,1.04,2.28,2.02l-1.21-0.08c-0.1-0.46-0.39-0.92-1.15-0.97
									c-1-0.07-1.41,0.83-1.46,1.88c-0.04,0.97,0.25,2.01,1.33,2.09c0.79,0.05,1.06-0.47,1.18-0.81L406.6,285.83z"/>
								<path style="fill:#FFFFFF;" d="M408.56,286.42l-0.49,1.3l-1.19-0.08l2.14-5.62l1.52,0.1l1.76,5.9l-1.28-0.09l-0.41-1.36
									L408.56,286.42z M410.4,285.52c-0.35-1.25-0.57-2.04-0.69-2.57l-0.01,0c-0.16,0.56-0.48,1.44-0.84,2.47L410.4,285.52z"/>
								<path style="fill:#FFFFFF;" d="M414.32,285.83l-0.09,2.31l-1.19-0.08l0.24-5.77l2.48,0.16c1.23,0.08,1.87,0.81,1.83,1.71
									c-0.03,0.77-0.46,1.16-0.88,1.31c0.27,0.13,0.69,0.45,0.65,1.49l-0.01,0.29c-0.02,0.39-0.03,0.83,0.04,1.1l-1.17-0.08
									c-0.09-0.26-0.09-0.7-0.06-1.31l0-0.08c0.03-0.63-0.12-0.94-1.03-1L414.32,285.83z M414.36,284.83l1.02,0.07
									c0.66,0.04,0.94-0.2,0.96-0.68c0.02-0.47-0.27-0.76-0.87-0.8l-1.05-0.07L414.36,284.83z"/>
								<path style="fill:#FFFFFF;" d="M419.88,283.75l-1.73-0.12l0.04-1.02l4.68,0.31l-0.04,1.03l-1.72-0.11l-0.19,4.77l-1.23-0.08
									L419.88,283.75z"/>
							</g>
						</g>
					</g>
					<g>
						<path style="fill:#3A859E;" d="M339.6,272.98c-0.02-4.97-9.68-8.65-9.68-8.65s-8.41-11.55-11.87-17.26
							c-6.34,2.48-7.96,5.84-7.28,11.86c3.15-2.78,8.12,2.92,14.07,13.11L339.6,272.98z"/>
						<path style="fill:#3A859E;" d="M310.77,258.93l1.55,12.83l1,0.06c0.51-5.71,1.4-12.17,4.64-9.91
							C318.17,256.8,310.87,256.39,310.77,258.93z"/>
					</g>
				</g>
				<g>
					<g>
						<g>
							<path style="fill:#94F3F7;" d="M348.11,369.5l-53.58-6.23c-1.46-0.17-2.59-1.6-2.53-3.2l2.07-50.7
								c0.07-1.6,1.3-2.79,2.77-2.67l53.65,4.52c1.56,0.13,2.77,1.57,2.7,3.22l-2.14,52.39
								C350.98,368.49,349.66,369.68,348.11,369.5z"/>
							<polygon style="fill:#1FBFC7;" points="363.14,312.76 362.86,319.69 426.75,325.33 427.04,318.16 							"/>
							<polygon style="fill:#1FBFC7;" points="362.71,323.34 362.43,330.27 420.72,335.75 421.01,328.6 							"/>
							<polygon style="fill:#1FBFC7;" points="362.28,333.92 361.99,340.85 408.1,345.45 408.39,338.35 							"/>
						</g>
						<g>
							<path style="fill:#1FBFC7;" d="M422,378.09l-58.27-6.77c-1.34-0.16-2.37-1.42-2.32-2.83l0.54-13.27
								c0.06-1.4,1.19-2.43,2.52-2.29l58.29,6.19c1.43,0.15,2.53,1.45,2.48,2.91l-0.56,13.73
								C424.63,377.21,423.42,378.25,422,378.09z"/>
							<g>
								<path style="fill:#FFFFFF;" d="M368.02,364.44l-0.47,1.26l-1.15-0.13l2.06-5.44l1.46,0.16l1.69,5.86l-1.23-0.14l-0.39-1.35
									L368.02,364.44z M369.78,363.64c-0.33-1.24-0.55-2.03-0.66-2.55l-0.01,0c-0.16,0.54-0.46,1.4-0.8,2.39L369.78,363.64z"/>
								<path style="fill:#FFFFFF;" d="M372.53,360.58l2.15,0.24c1.57,0.17,2.57,1.37,2.5,3.05c-0.07,1.65-1.13,2.79-2.79,2.6
									l-2.1-0.24L372.53,360.58z M373.51,365.38l0.88,0.1c1.04,0.12,1.54-0.65,1.58-1.75c0.04-0.93-0.36-1.82-1.42-1.94l-0.89-0.1
									L373.51,365.38z"/>
								<path style="fill:#FFFFFF;" d="M378.32,361.22l2.16,0.24c1.58,0.17,2.59,1.38,2.52,3.06c-0.07,1.66-1.13,2.8-2.8,2.61
									l-2.11-0.24L378.32,361.22z M379.3,366.03l0.89,0.1c1.04,0.12,1.55-0.65,1.59-1.75c0.04-0.93-0.36-1.83-1.43-1.95l-0.89-0.1
									L379.3,366.03z"/>
								<path style="fill:#FFFFFF;" d="M387.13,363.2l-1.67-0.18l0.04-1.01l4.53,0.5l-0.04,1.01l-1.67-0.18l-0.19,4.69l-1.19-0.13
									L387.13,363.2z"/>
								<path style="fill:#FFFFFF;" d="M395.56,365.97c-0.07,1.6-1.05,2.86-2.84,2.66c-1.74-0.2-2.59-1.6-2.52-3.24
									c0.07-1.66,1.12-2.82,2.83-2.63C394.65,362.93,395.63,364.21,395.56,365.97z M391.43,365.5c-0.05,1.12,0.39,2.02,1.37,2.13
									c1.07,0.12,1.48-0.76,1.52-1.78c0.04-1.09-0.35-1.98-1.38-2.1C391.94,363.64,391.47,364.39,391.43,365.5z"/>
								<path style="fill:#FFFFFF;" d="M403.24,367.94c-0.26,1.05-1.08,1.75-2.48,1.59c-1.77-0.2-2.55-1.58-2.48-3.21
									c0.06-1.57,0.99-2.88,2.78-2.69c1.49,0.16,2.17,1.14,2.27,2.12l-1.21-0.13c-0.1-0.46-0.38-0.94-1.14-1.02
									c-0.99-0.11-1.41,0.77-1.45,1.82c-0.04,0.97,0.25,2.03,1.32,2.15c0.79,0.09,1.06-0.43,1.18-0.76L403.24,367.94z"/>
								<path style="fill:#FFFFFF;" d="M405.2,368.62l-0.48,1.28l-1.19-0.13l2.13-5.54l1.52,0.17l1.76,5.99l-1.28-0.14l-0.41-1.38
									L405.2,368.62z M407.03,367.8c-0.35-1.26-0.57-2.07-0.69-2.6l-0.01,0c-0.16,0.55-0.47,1.42-0.83,2.43L407.03,367.8z"/>
								<path style="fill:#FFFFFF;" d="M410.94,368.28l-0.09,2.31l-1.19-0.13l0.24-5.77l2.48,0.27c1.23,0.14,1.86,0.9,1.83,1.79
									c-0.03,0.77-0.46,1.15-0.88,1.28c0.27,0.14,0.69,0.48,0.65,1.52l-0.01,0.29c-0.02,0.39-0.03,0.83,0.04,1.11l-1.16-0.13
									c-0.09-0.26-0.09-0.7-0.06-1.31l0-0.08c0.03-0.63-0.12-0.95-1.03-1.05L410.94,368.28z M410.98,367.28l1.02,0.11
									c0.66,0.07,0.94-0.16,0.96-0.64c0.02-0.47-0.27-0.77-0.87-0.84l-1.05-0.12L410.98,367.28z"/>
								<path style="fill:#FFFFFF;" d="M416.5,366.44l-1.72-0.19l0.04-1.02l4.67,0.51l-0.04,1.03l-1.72-0.19l-0.19,4.77l-1.23-0.14
									L416.5,366.44z"/>
							</g>
						</g>
					</g>
					<g>
						<g>
							<path style="fill:#149CC4;" d="M326.81,320c-0.2-0.72-0.31-1.46-0.35-2.22l-0.56-0.05c-0.04,0.67-0.21,1.36-0.32,1.73
								c-0.45,1.5-1.6,2.57-2.9,2.52c-1.29-0.19-2.34-1.45-2.66-3.02c-0.08-0.38-0.19-1.1-0.18-1.77l-0.55-0.05
								c-0.1,0.74-0.27,1.45-0.52,2.13c-0.63,1.66-1.64,3.02-2.81,4.1l0.52,8.81l5.53,0.54l0.48,0.05l5.56,0.54l1.25-8.7
								C328.21,323.31,327.31,321.77,326.81,320z"/>
							<path style="fill:#149CC4;" d="M334.3,357.12c-2.61,2.41-22.89,0.41-25.8-2.85c1.7-8.09,3.82-15.87,7.97-22.08l11.58,1.13
								C331.36,339.42,333.04,347.94,334.3,357.12z"/>
						</g>
						<path style="fill:#FFFFFF;" d="M324.37,335c-0.37,0-0.77-0.02-1.21-0.06c-4.69-0.46-6.81-2.78-6.9-2.88
							c-0.07-0.07-0.06-0.19,0.01-0.26c0.07-0.07,0.19-0.06,0.26,0.01c0.02,0.02,2.13,2.31,6.67,2.76c4.05,0.4,4.68-1.3,4.68-1.32
							c0.03-0.09,0.13-0.15,0.23-0.11c0.09,0.03,0.15,0.13,0.12,0.23C328.2,333.45,327.66,335,324.37,335z"/>
						<path style="fill:#FFFFFF;" d="M322.58,338.26c-0.12,0-0.27-0.05-0.41-0.26c-0.79-1.19,1.4-3.09,1.66-3.3l0.41-0.34
							l-0.11,0.52c-0.16,0.76-0.76,3.24-1.47,3.38C322.63,338.26,322.61,338.26,322.58,338.26z M323.64,335.37
							c-0.69,0.68-1.59,1.8-1.16,2.43c0.04,0.07,0.09,0.1,0.11,0.1C322.87,337.85,323.32,336.63,323.64,335.37z"/>
						<path style="fill:#FFFFFF;" d="M323.74,335.27l0.03-0.45c0.01-0.11,0.19-2.78,1.21-3.54c0.26-0.19,0.56-0.25,0.87-0.18
							c0.37,0.09,0.5,0.31,0.55,0.47c0.26,1-2.06,3.15-2.33,3.39L323.74,335.27z M325.6,331.44c-0.14,0-0.27,0.05-0.4,0.14
							c-0.61,0.45-0.91,1.9-1.02,2.8c0.91-0.88,2.01-2.18,1.87-2.7c-0.02-0.07-0.06-0.16-0.28-0.21
							C325.71,331.45,325.65,331.44,325.6,331.44z"/>
						<path style="fill:#FFFFFF;" d="M327.12,338.32c-0.07,0-0.14-0.04-0.17-0.11c-0.93-2.36-3.05-3.19-3.07-3.2
							c-0.09-0.04-0.14-0.14-0.1-0.23c0.04-0.09,0.14-0.14,0.23-0.1c0.09,0.04,2.28,0.9,3.28,3.4c0.04,0.09-0.01,0.2-0.1,0.23
							C327.17,338.31,327.14,338.32,327.12,338.32z"/>
					</g>
				</g>
			</g>
		</g>
		<g>
			<g>
				<g>
					<path style="fill:#E6E6E6;" d="M265.94,284.89c-0.03,0-0.07,0-0.1,0l-78.39-5.19c-0.44-0.03-0.85-0.25-1.11-0.61
						c-0.26-0.36-0.36-0.81-0.26-1.24c3.34-14.57,7.58-23.94,12.96-28.63c0.3-0.26,0.69-0.39,1.08-0.37l78.71,4.58
						c0.57,0.03,1.07,0.38,1.29,0.9c0.23,0.52,0.15,1.12-0.21,1.56c-6.59,8.13-10.79,17.46-12.48,27.73
						C267.31,284.36,266.68,284.89,265.94,284.89z M189.43,276.8l75.25,4.98c1.74-9.32,5.46-17.88,11.1-25.5l-75.21-4.38
						C196.17,256.08,192.42,264.44,189.43,276.8z"/>
					<path style="fill:#1F81C7;" d="M275.61,253.06c-0.26-0.75-0.74-1.52-1.49-1.6l-71.19-4.42c-3,0.54-3,6.55-0.41,6.72l71.19,4.42
						c0.85-0.17,1.41-0.82,1.75-1.82C274.12,256.3,273.77,253.09,275.61,253.06z"/>
				</g>
				<g>
					<path style="fill:#5B5B5B;" d="M188.68,435.63L188.68,435.63c-2.96,0-5.39-2.42-5.39-5.39v-9.62c0-2.96,2.42-5.39,5.39-5.39
						l0,0c2.96,0,5.39,2.42,5.39,5.39v9.62C194.07,433.21,191.64,435.63,188.68,435.63z"/>
					<polygon style="fill:#B2B2B2;" points="183.29,420.62 183.29,433.29 184.14,432.69 184.14,419.59 					"/>
					<g>
						<path style="fill:#4D4D4D;" d="M187.63,421.41c0,0,5.26-1.24,7.7,3.59s-4.81,13.07-6.6,13.39s-5.19-0.07-6.77-3.22
							C180.36,432.01,183.58,423.13,187.63,421.41z"/>
						<g>
							
								<ellipse transform="matrix(0.349 -0.9371 0.9371 0.349 -280.6197 454.5232)" style="fill:#4D4D4D;" cx="186.83" cy="429.23" rx="8.18" ry="5.44"/>
							
								<ellipse transform="matrix(0.349 -0.9371 0.9371 0.349 -279.6005 458.5041)" style="fill:#4D4D4D;" cx="190.2" cy="430.49" rx="8.18" ry="5.44"/>
							
								<ellipse transform="matrix(0.349 -0.9371 0.9371 0.349 -279.6005 458.5042)" style="fill:#5B5B5B;" cx="190.2" cy="430.49" rx="6.83" ry="4.54"/>
						</g>
					</g>
					<g>
						<path style="fill:#5B5B5B;" d="M181.16,420.31h-0.02v-0.18C181.14,420.19,181.14,420.25,181.16,420.31z"/>
					</g>
					<path style="fill:#B2B2B2;" d="M188.68,415.24L188.68,415.24c-2.96,0-5.39,2.39-5.39,5.3l0.85,1.66c0-2.98,4.46-2.97,4.46,0
						l0.08,10.44c0,2.95,5.13,0.87,5.39-2.31v-9.79C194.07,417.62,191.64,415.24,188.68,415.24z"/>
				</g>
				<g>
					<path style="fill:#5C5C5C;" d="M118.84,422.02L118.84,422.02c-2.73,0-4.96-2.23-4.96-4.96v-8.86c0-2.73,2.23-4.96,4.96-4.96h0
						c2.73,0,4.96,2.23,4.96,4.96v8.86C123.8,419.79,121.57,422.02,118.84,422.02z"/>
					<polygon style="fill:#B2B2B2;" points="113.88,408.19 113.88,419.87 114.66,419.31 114.66,407.24 					"/>
					<g>
						<path style="fill:#4D4D4D;" d="M117.87,408.91c0,0,4.84-1.14,7.09,3.31s-4.43,12.04-6.08,12.34c-1.65,0.3-4.78-0.06-6.24-2.97
							C111.18,418.69,114.14,410.5,117.87,408.91z"/>
						<g>
							
								<ellipse transform="matrix(0.349 -0.9371 0.9371 0.349 -313.709 380.6777)" style="fill:#4D4D4D;" cx="117.13" cy="416.13" rx="7.54" ry="5.01"/>
							
								<ellipse transform="matrix(0.349 -0.9371 0.9371 0.349 -312.7698 384.3449)" style="fill:#4D4D4D;" cx="120.24" cy="417.29" rx="7.54" ry="5.01"/>
							
								<ellipse transform="matrix(0.349 -0.9371 0.9371 0.349 -312.7699 384.3459)" style="fill:#5B5B5B;" cx="120.24" cy="417.29" rx="6.29" ry="4.18"/>
						</g>
					</g>
					<g>
						<path style="fill:#5B5B5B;" d="M111.91,407.9h-0.02v-0.16C111.89,407.79,111.9,407.85,111.91,407.9z"/>
					</g>
					<path style="fill:#B2B2B2;" d="M118.84,403.23L118.84,403.23c-2.73,0-4.96,2.2-4.96,4.88l0.79,1.53c0-2.74,4.11-2.74,4.11,0
						l0.07,9.62c0,2.72,4.73,0.8,4.96-2.13v-9.02C123.8,405.43,121.57,403.23,118.84,403.23z"/>
				</g>
				<g>
					<path style="fill:#5C5C5C;" d="M184.93,391.61L184.93,391.61c-2.44,0-4.43-1.99-4.43-4.43v-7.91c0-2.44,1.99-4.43,4.43-4.43
						l0,0c2.44,0,4.43,1.99,4.43,4.43v7.91C189.36,389.62,187.37,391.61,184.93,391.61z"/>
					<polygon style="fill:#B2B2B2;" points="180.5,379.27 180.5,389.69 181.2,389.2 181.2,378.43 					"/>
					<g>
						<path style="fill:#4D4D4D;" d="M184.07,379.92c0,0,4.32-1.02,6.33,2.95c2.01,3.97-3.95,10.74-5.43,11.01
							c-1.47,0.27-4.27-0.06-5.57-2.65S180.74,381.34,184.07,379.92z"/>
						<g>
							
								<ellipse transform="matrix(0.349 -0.9371 0.9371 0.349 -242.6606 423.4038)" style="fill:#4D4D4D;" cx="183.41" cy="386.35" rx="6.72" ry="4.47"/>
							
								<ellipse transform="matrix(0.349 -0.9371 0.9371 0.349 -241.8225 426.6779)" style="fill:#4D4D4D;" cx="186.19" cy="387.39" rx="6.72" ry="4.47"/>
							
								<ellipse transform="matrix(0.349 -0.9371 0.9371 0.349 -241.8225 426.6771)" style="fill:#5B5B5B;" cx="186.19" cy="387.39" rx="5.62" ry="3.73"/>
						</g>
					</g>
					<g>
						<path style="fill:#5B5B5B;" d="M178.75,379.01h-0.01v-0.15C178.73,378.92,178.74,378.97,178.75,379.01z"/>
					</g>
					<path style="fill:#B2B2B2;" d="M184.93,374.84L184.93,374.84c-2.44,0-4.43,1.96-4.43,4.36l0.7,1.37c0-2.45,3.67-2.44,3.67,0
						l0.06,8.59c0,2.42,4.22,0.72,4.43-1.9v-8.05C189.36,376.81,187.37,374.84,184.93,374.84z"/>
				</g>
				<g>
					<path style="fill:#5C5C5C;" d="M258.27,401.17L258.27,401.17c-2.44,0-4.43-1.99-4.43-4.43v-7.91c0-2.44,1.99-4.43,4.43-4.43
						l0,0c2.44,0,4.43,1.99,4.43,4.43v7.91C262.7,399.18,260.71,401.17,258.27,401.17z"/>
					<polygon style="fill:#B2B2B2;" points="253.84,388.83 253.84,399.25 254.55,398.75 254.55,387.98 					"/>
					<g>
						<path style="fill:#4D4D4D;" d="M257.41,389.47c0,0,4.32-1.02,6.33,2.95s-3.95,10.74-5.43,11.01s-4.27-0.06-5.57-2.65
							C251.44,398.19,254.08,390.89,257.41,389.47z"/>
						<g>
							
								<ellipse transform="matrix(0.349 -0.9371 0.9371 0.349 -203.8692 498.3558)" style="fill:#4D4D4D;" cx="256.75" cy="395.91" rx="6.72" ry="4.47"/>
							
								<ellipse transform="matrix(0.349 -0.9371 0.9371 0.349 -203.0309 501.63)" style="fill:#4D4D4D;" cx="259.53" cy="396.94" rx="6.72" ry="4.47"/>
							
								<ellipse transform="matrix(0.349 -0.9371 0.9371 0.349 -203.0307 501.6308)" style="fill:#5B5B5B;" cx="259.53" cy="396.94" rx="5.62" ry="3.73"/>
						</g>
					</g>
					<g>
						<path style="fill:#5B5B5B;" d="M252.09,388.57h-0.01v-0.15C252.07,388.47,252.08,388.52,252.09,388.57z"/>
					</g>
					<path style="fill:#B2B2B2;" d="M258.27,384.4L258.27,384.4c-2.44,0-4.43,1.96-4.43,4.36l0.7,1.37c0-2.45,3.67-2.44,3.67,0
						l-0.82,8.32c0,2.42,5.1,0.98,5.31-1.63v-8.05C262.7,386.36,260.71,384.4,258.27,384.4z"/>
				</g>
				<g>
					<path style="fill:#CCCCCC;" d="M176.05,421.83c-1.19,0-2.39-0.12-3.58-0.35l-56.46-11.16c-1.69-0.34-2.94-1.72-3.09-3.44
						c-0.15-1.72,0.82-3.3,2.43-3.93l64.87-25.38c4.7-1.84,7.39-6.76,6.4-11.71l-3.29-16.46c-0.1-0.51,0.05-1.04,0.41-1.43
						c0.36-0.38,0.88-0.57,1.4-0.5l73.97,9.46c0.67,0.09,1.22,0.58,1.38,1.24l3.31,14.13c1.43,6.33-1.82,12.83-7.73,15.47
						l-72.54,32.45C181.14,421.29,178.61,421.83,176.05,421.83z M186.96,350.98l2.84,14.24c1.3,6.49-2.24,12.96-8.41,15.37
						l-64.87,25.38c-0.35,0.14-0.4,0.41-0.38,0.61c0.02,0.2,0.12,0.46,0.48,0.54l56.46,11.16c3.08,0.61,6.23,0.25,9.1-1.03
						l72.54-32.45c4.5-2.01,6.98-6.97,5.89-11.78L257.57,360L186.96,350.98z"/>
				</g>
				<g>
					<g>
						<g>
							<path style="fill:#E6E6E6;" d="M262.45,359.16c-0.03,0-0.06,0-0.08-0.01l-80.71-9.96c-0.36-0.04-0.63-0.37-0.6-0.73
								l5.26-70.89c0.03-0.38,0.36-0.66,0.73-0.63l80.71,5.19c0.18,0.01,0.35,0.1,0.47,0.23c0.12,0.14,0.18,0.32,0.17,0.5
								l-5.26,75.66c-0.01,0.19-0.1,0.36-0.25,0.48C262.77,359.11,262.61,359.16,262.45,359.16z M182.48,347.91l79.34,9.79
								l5.16-74.25l-79.34-5.1L182.48,347.91z"/>
							
								<rect x="225.26" y="263.24" transform="matrix(0.0817 -0.9967 0.9967 0.0817 -95.4951 503.825)" style="fill:#E6E6E6;" width="0.82" height="80.98"/>
							
								<rect x="223.43" y="288.72" transform="matrix(0.0947 -0.9955 0.9955 0.0947 -125.1634 520.9102)" style="fill:#E6E6E6;" width="0.82" height="81.12"/>
						</g>
						<g>
							<path style="fill:#E6E6E6;" d="M189.75,349.69c-0.01,0-0.01,0-0.02,0c-0.12-0.01-0.21-0.12-0.2-0.24l5.9-71.41
								c0.01-0.12,0.12-0.21,0.24-0.2c0.12,0.01,0.21,0.12,0.2,0.24l-5.9,71.41C189.96,349.61,189.86,349.69,189.75,349.69z"/>
							<path style="fill:#E6E6E6;" d="M200.15,350.98c-0.01,0-0.01,0-0.02,0c-0.12-0.01-0.21-0.12-0.2-0.24l5.8-72.01
								c0.01-0.12,0.11-0.21,0.24-0.2c0.12,0.01,0.21,0.12,0.2,0.24l-5.8,72.01C200.36,350.9,200.27,350.98,200.15,350.98z"/>
							<path style="fill:#E6E6E6;" d="M210.73,352.29c-0.01,0-0.01,0-0.02,0c-0.12-0.01-0.21-0.12-0.2-0.24l5.69-72.63
								c0.01-0.12,0.11-0.21,0.24-0.2c0.12,0.01,0.21,0.12,0.2,0.24l-5.69,72.63C210.94,352.21,210.85,352.29,210.73,352.29z"/>
							<path style="fill:#E6E6E6;" d="M221.49,353.62c-0.01,0-0.01,0-0.02,0c-0.12-0.01-0.21-0.11-0.2-0.24l5.58-73.25
								c0.01-0.12,0.11-0.21,0.24-0.2c0.12,0.01,0.21,0.11,0.2,0.24l-5.58,73.25C221.7,353.54,221.61,353.62,221.49,353.62z"/>
							<g>
								<path style="fill:#E6E6E6;" d="M232.43,354.98c-0.01,0-0.01,0-0.02,0c-0.12-0.01-0.21-0.11-0.2-0.24l5.47-73.89
									c0.01-0.12,0.11-0.21,0.24-0.2c0.12,0.01,0.21,0.11,0.2,0.24l-5.47,73.89C232.64,354.89,232.55,354.98,232.43,354.98z"/>
							</g>
							<g>
								<path style="fill:#E6E6E6;" d="M243.56,356.36c-0.01,0-0.01,0-0.02,0c-0.12-0.01-0.21-0.11-0.2-0.23l5.35-74.53
									c0.01-0.12,0.11-0.21,0.23-0.2c0.12,0.01,0.21,0.11,0.2,0.24l-5.35,74.53C243.77,356.27,243.68,356.36,243.56,356.36z"/>
							</g>
							<g>
								<path style="fill:#E6E6E6;" d="M254.89,357.76c-0.01,0-0.01,0-0.02,0c-0.12-0.01-0.21-0.11-0.2-0.23l5.22-75.19
									c0.01-0.12,0.11-0.21,0.23-0.2c0.12,0.01,0.21,0.11,0.2,0.23l-5.22,75.19C255.1,357.67,255,357.76,254.89,357.76z"/>
							</g>
						</g>
						<path style="fill:#1F81C7;" d="M243.65,319.72l-38.08-3.3c-1.39-0.12-2.43-1.34-2.32-2.74l1.74-22.91l43.06,2.91l-1.63,23.67
							C246.32,318.78,245.07,319.84,243.65,319.72z"/>
					</g>
					<g>
						<g>
							<path style="fill:#E6E6E6;" d="M114.54,372.86c-0.11,0-0.21-0.08-0.22-0.2l-7.09-64.69c-0.01-0.12,0.07-0.23,0.19-0.24
								c0.12-0.01,0.23,0.07,0.24,0.19l7.09,64.69c0.01,0.12-0.07,0.23-0.19,0.24C114.56,372.86,114.55,372.86,114.54,372.86z"/>
							<path style="fill:#E6E6E6;" d="M120.66,370.66c-0.11,0-0.21-0.09-0.22-0.2l-6.01-65.24c-0.01-0.12,0.08-0.23,0.2-0.24
								c0.12-0.01,0.23,0.08,0.24,0.2l6.01,65.24c0.01,0.12-0.08,0.23-0.2,0.24C120.67,370.66,120.67,370.66,120.66,370.66z"/>
							<path style="fill:#E6E6E6;" d="M126.8,368.45c-0.11,0-0.21-0.09-0.22-0.2l-4.92-65.79c-0.01-0.12,0.08-0.23,0.2-0.24
								c0.12-0.01,0.23,0.08,0.24,0.2l4.92,65.79c0.01,0.12-0.08,0.23-0.2,0.24C126.82,368.45,126.81,368.45,126.8,368.45z"/>
							<path style="fill:#E6E6E6;" d="M132.97,366.24c-0.12,0-0.21-0.09-0.22-0.21l-3.81-66.35c-0.01-0.12,0.09-0.23,0.21-0.23
								c0.12,0,0.23,0.09,0.23,0.21l3.81,66.35c0.01,0.12-0.09,0.23-0.21,0.23C132.98,366.24,132.98,366.24,132.97,366.24z"/>
							<path style="fill:#E6E6E6;" d="M139.17,364.02c-0.12,0-0.21-0.09-0.22-0.21l-2.7-66.91c0-0.12,0.09-0.22,0.21-0.23
								c0.12-0.01,0.22,0.09,0.23,0.21l2.7,66.91C139.39,363.91,139.3,364.01,139.17,364.02
								C139.17,364.02,139.17,364.02,139.17,364.02z"/>
							<path style="fill:#E6E6E6;" d="M145.39,361.78c-0.12,0-0.22-0.09-0.22-0.21l-1.58-67.48c0-0.12,0.09-0.22,0.21-0.22
								c0.12,0,0.22,0.09,0.22,0.21l1.58,67.48C145.61,361.68,145.52,361.78,145.39,361.78
								C145.39,361.78,145.39,361.78,145.39,361.78z"/>
							<path style="fill:#E6E6E6;" d="M151.63,359.54c-0.12,0-0.22-0.1-0.22-0.22l-0.45-68.05c0-0.12,0.1-0.22,0.22-0.22
								c0,0,0,0,0,0c0.12,0,0.22,0.1,0.22,0.22l0.45,68.05C151.85,359.44,151.76,359.54,151.63,359.54
								C151.64,359.54,151.63,359.54,151.63,359.54z"/>
							<path style="fill:#E6E6E6;" d="M157.9,357.29C157.9,357.29,157.9,357.29,157.9,357.29c-0.12,0-0.22-0.1-0.22-0.22l0.7-68.62
								c0-0.12,0.1-0.22,0.22-0.22c0,0,0,0,0,0c0.12,0,0.22,0.1,0.22,0.22l-0.7,68.62C158.12,357.19,158.03,357.29,157.9,357.29z"/>
							<path style="fill:#E6E6E6;" d="M164.2,355.03C164.2,355.03,164.2,355.03,164.2,355.03c-0.13,0-0.22-0.1-0.22-0.23l1.85-69.2
								c0-0.12,0.11-0.22,0.23-0.21c0.12,0,0.22,0.1,0.21,0.23l-1.85,69.2C164.42,354.94,164.32,355.03,164.2,355.03z"/>
							<path style="fill:#E6E6E6;" d="M170.52,352.76C170.52,352.76,170.52,352.76,170.52,352.76c-0.13-0.01-0.23-0.11-0.22-0.23
								l3.01-69.79c0.01-0.12,0.11-0.22,0.23-0.21c0.12,0.01,0.22,0.11,0.21,0.23l-3.01,69.79
								C170.74,352.67,170.64,352.76,170.52,352.76z"/>
							<path style="fill:#E6E6E6;" d="M176.87,350.48c0,0-0.01,0-0.01,0c-0.12-0.01-0.21-0.11-0.21-0.23l4.19-70.37
								c0.01-0.12,0.11-0.21,0.23-0.21c0.12,0.01,0.21,0.11,0.21,0.23l-4.19,70.37C177.08,350.39,176.99,350.48,176.87,350.48z"/>
						</g>
						<g>
							<path style="fill:#E6E6E6;" d="M108.39,375.53c-0.13,0-0.25-0.03-0.36-0.1c-0.18-0.11-0.3-0.29-0.32-0.5l-7.85-64.26
								c-0.04-0.31,0.14-0.61,0.44-0.73l86.46-32.96c0.22-0.08,0.47-0.05,0.66,0.09c0.19,0.14,0.29,0.37,0.27,0.6l-5.26,70.89
								c-0.02,0.27-0.2,0.5-0.45,0.6l-73.36,26.33C108.55,375.52,108.47,375.53,108.39,375.53z M101.29,311.03l7.68,62.88
								l72.13-25.89l5.14-69.37L101.29,311.03z"/>
							
								<rect x="100.26" y="315.18" transform="matrix(0.937 -0.3494 0.3494 0.937 -101.1788 70.2644)" style="fill:#E6E6E6;" width="87.84" height="0.82"/>
							
								<rect x="103.37" y="339.35" transform="matrix(0.938 -0.3466 0.3466 0.938 -108.7826 71.2049)" style="fill:#E6E6E6;" width="82.65" height="0.82"/>
						</g>
					</g>
				</g>
				<g>
					<g>
						<path style="fill:#E6E6E6;" d="M187.2,385.68c-0.01,0-0.03,0-0.04,0l-72.43-12.91c-0.12-0.02-0.2-0.14-0.18-0.25
							c0.02-0.12,0.13-0.2,0.25-0.18l72.43,12.91c0.12,0.02,0.2,0.14,0.18,0.25C187.4,385.61,187.31,385.68,187.2,385.68z"/>
						<path style="fill:#E6E6E6;" d="M194.31,383.14c-0.01,0-0.03,0-0.04,0l-73.14-12.65c-0.12-0.02-0.2-0.13-0.18-0.25
							c0.02-0.12,0.13-0.2,0.25-0.18l73.14,12.65c0.12,0.02,0.2,0.13,0.18,0.25C194.51,383.06,194.41,383.14,194.31,383.14z"/>
						<path style="fill:#E6E6E6;" d="M201.41,380.59c-0.01,0-0.02,0-0.04,0l-73.85-12.39c-0.12-0.02-0.2-0.13-0.18-0.25
							c0.02-0.12,0.13-0.2,0.25-0.18l73.85,12.39c0.12,0.02,0.2,0.13,0.18,0.25C201.61,380.51,201.52,380.59,201.41,380.59z"/>
						<path style="fill:#E6E6E6;" d="M208.51,378.04c-0.01,0-0.02,0-0.04,0l-74.56-12.13c-0.12-0.02-0.2-0.13-0.18-0.25
							c0.02-0.12,0.13-0.2,0.25-0.18l74.56,12.13c0.12,0.02,0.2,0.13,0.18,0.25C208.71,377.97,208.62,378.04,208.51,378.04z"/>
						<path style="fill:#E6E6E6;" d="M215.61,375.5c-0.01,0-0.02,0-0.03,0l-75.27-11.87c-0.12-0.02-0.2-0.13-0.18-0.25
							c0.02-0.12,0.13-0.2,0.25-0.18l75.27,11.87c0.12,0.02,0.2,0.13,0.18,0.25C215.81,375.42,215.71,375.5,215.61,375.5z"/>
						<path style="fill:#E6E6E6;" d="M222.7,372.95c-0.01,0-0.02,0-0.03,0l-75.98-11.61c-0.12-0.02-0.2-0.13-0.18-0.25
							c0.02-0.12,0.13-0.2,0.25-0.18l75.98,11.61c0.12,0.02,0.2,0.13,0.18,0.25C222.9,372.87,222.81,372.95,222.7,372.95z"/>
						<path style="fill:#E6E6E6;" d="M229.8,370.41c-0.01,0-0.02,0-0.03,0l-76.68-11.35c-0.12-0.02-0.2-0.13-0.19-0.25
							c0.02-0.12,0.13-0.2,0.25-0.19l76.68,11.35c0.12,0.02,0.2,0.13,0.19,0.25C230,370.33,229.9,370.41,229.8,370.41z"/>
						<path style="fill:#E6E6E6;" d="M236.89,367.86c-0.01,0-0.02,0-0.03,0l-77.39-11.1c-0.12-0.02-0.2-0.13-0.19-0.25
							c0.02-0.12,0.13-0.2,0.25-0.19l77.39,11.1c0.12,0.02,0.2,0.13,0.19,0.25C237.09,367.79,236.99,367.86,236.89,367.86z"/>
						<path style="fill:#E6E6E6;" d="M243.98,365.32c-0.01,0-0.02,0-0.03,0l-78.1-10.84c-0.12-0.02-0.2-0.13-0.19-0.25
							c0.02-0.12,0.13-0.2,0.25-0.19l78.1,10.84c0.12,0.02,0.2,0.13,0.19,0.25C244.18,365.24,244.08,365.32,243.98,365.32z"/>
						<path style="fill:#E6E6E6;" d="M251.06,362.78c-0.01,0-0.02,0-0.03,0l-78.8-10.58c-0.12-0.02-0.2-0.13-0.19-0.25
							c0.02-0.12,0.13-0.2,0.25-0.19l78.8,10.58c0.12,0.02,0.2,0.13,0.19,0.25C251.27,362.7,251.17,362.78,251.06,362.78z"/>
						<path style="fill:#E6E6E6;" d="M258.15,360.24c-0.01,0-0.02,0-0.03,0l-79.51-10.32c-0.12-0.02-0.21-0.13-0.19-0.25
							c0.02-0.12,0.13-0.21,0.25-0.19l79.51,10.32c0.12,0.02,0.21,0.13,0.19,0.25C258.35,360.16,258.26,360.24,258.15,360.24z"/>
					</g>
					<g>
						
							<rect x="128.34" y="364.66" transform="matrix(0.9407 -0.3392 0.3392 0.9407 -113.8413 78.7371)" style="fill:#E6E6E6;" width="80.03" height="0.82"/>
						
							<rect x="154.08" y="368.52" transform="matrix(0.9375 -0.3479 0.3479 0.9375 -116.1986 90.785)" style="fill:#E6E6E6;" width="81.2" height="0.82"/>
						<path style="fill:#E6E6E6;" d="M181.9,388.33c-0.05,0-0.11,0-0.16-0.01l-73.51-12.52c-0.43-0.07-0.76-0.43-0.8-0.86
							c-0.04-0.44,0.22-0.84,0.63-0.99l73.36-26.33c0.14-0.05,0.29-0.07,0.44-0.05l80.71,9.96c0.44,0.05,0.79,0.41,0.84,0.85
							c0.05,0.44-0.21,0.86-0.63,1.01l-80.56,28.89C182.12,388.31,182.01,388.33,181.9,388.33z M112.16,374.51l69.65,11.87
							l76.52-27.44l-76.47-9.44L112.16,374.51z"/>
					</g>
				</g>
				<g>
					<g>
						<polygon style="fill:#DEB275;" points="164.35,366.14 126.6,358.18 126.6,314.74 164.35,321.57 						"/>
						<polygon style="fill:#FFCD8C;" points="126.6,314.74 142.26,309.66 153.87,306.47 189.81,312.6 164.35,321.57 						"/>
						<polygon style="fill:#DEB275;" points="164.35,366.14 189.27,355.75 189.81,312.6 164.35,321.57 						"/>
						<path style="fill:#B38358;" d="M179.4,316.52c0,0-0.01,0-0.01,0l-37.14-6.78c-0.04-0.01-0.06-0.04-0.06-0.08
							c0.01-0.04,0.04-0.06,0.08-0.06l37.14,6.78c0.04,0.01,0.06,0.04,0.06,0.08C179.46,316.49,179.43,316.52,179.4,316.52z"/>
						<path style="fill:#B38358;" d="M164.55,321.74c-0.03,0-0.06-0.02-0.07-0.05c-0.01-0.04,0.01-0.08,0.04-0.09l25.14-8.84
							c0.04-0.01,0.08,0.01,0.09,0.04c0.01,0.04-0.01,0.08-0.04,0.09l-25.14,8.84C164.56,321.74,164.55,321.74,164.55,321.74z"/>
						<polygon style="fill:#FFFFFF;" points="140.35,310.31 177.11,317.21 177.11,326.97 180.9,325.18 181.17,315.83 144.77,309.01 
													"/>
					</g>
					<g>
						<polygon style="fill:#DEB275;" points="217.88,367.32 180.14,359.37 180.14,315.93 217.88,322.76 						"/>
						<polygon style="fill:#FFCD8C;" points="180.14,315.93 195.79,310.85 207.41,307.66 243.35,313.78 217.88,322.76 						"/>
						<polygon style="fill:#E8BB7F;" points="217.88,367.32 242.8,356.94 243.35,313.78 217.88,322.76 						"/>
						<path style="fill:#B38358;" d="M232.93,317.7c0,0-0.01,0-0.01,0l-37.14-6.78c-0.04-0.01-0.06-0.04-0.06-0.08
							c0.01-0.04,0.04-0.06,0.08-0.06l37.14,6.78c0.04,0.01,0.06,0.04,0.06,0.08C233,317.68,232.97,317.7,232.93,317.7z"/>
						<path style="fill:#B38358;" d="M218.08,322.92c-0.03,0-0.06-0.02-0.07-0.05c-0.01-0.04,0.01-0.08,0.04-0.09l25.14-8.84
							c0.04-0.01,0.08,0.01,0.09,0.04c0.01,0.04-0.01,0.08-0.04,0.09l-25.14,8.84C218.1,322.92,218.09,322.92,218.08,322.92z"/>
						<polygon style="fill:#FFFFFF;" points="193.89,311.49 230.64,318.4 230.64,328.15 234.44,326.37 234.71,317.01 198.31,310.2 
													"/>
						<polygon style="opacity:0.2;" points="209.06,321.16 230.55,315.7 187.36,314.24 187.36,320.02 180.14,318.43 180.14,359.37 
							205.58,364 						"/>
					</g>
					<g>
						<polygon style="fill:#E8BB7F;" points="180.12,378.84 142.38,370.88 142.38,327.44 180.12,334.27 						"/>
						<polygon style="fill:#FFCD8C;" points="142.38,327.44 158.03,322.37 169.64,319.18 205.58,325.3 180.12,334.27 						"/>
						<polygon style="fill:#DEB275;" points="180.12,378.84 205.04,368.46 205.58,325.3 180.12,334.27 						"/>
						<path style="fill:#B38358;" d="M195.17,329.22c0,0-0.01,0-0.01,0l-37.14-6.78c-0.04-0.01-0.06-0.04-0.06-0.08
							c0.01-0.04,0.04-0.06,0.08-0.06l37.14,6.78c0.04,0.01,0.06,0.04,0.06,0.08C195.23,329.2,195.2,329.22,195.17,329.22z"/>
						<path style="fill:#B38358;" d="M180.32,334.44c-0.03,0-0.06-0.02-0.07-0.05c-0.01-0.04,0.01-0.08,0.04-0.09l25.14-8.84
							c0.04-0.01,0.08,0.01,0.09,0.04c0.01,0.04-0.01,0.08-0.04,0.09l-25.14,8.84C180.33,334.44,180.33,334.44,180.32,334.44z"/>
						<polygon style="fill:#FFFFFF;" points="156.12,323.01 192.88,329.92 192.88,339.67 196.68,337.89 196.94,328.53 
							160.54,321.72 						"/>
						<polygon style="opacity:0.2;" points="142.38,335.46 166.81,335.46 170.11,332.46 191.74,323.16 169.64,319.18 142.38,327.44 
													"/>
					</g>
					<g>
						<polygon style="fill:#E8BB7F;" points="199.67,322.21 230.55,315.7 230.55,280.16 199.67,285.75 						"/>
						<polygon style="fill:#FFCD8C;" points="230.55,280.16 217.74,276 208.24,273.39 178.84,278.41 199.67,285.75 						"/>
						<polygon style="fill:#C99D62;" points="199.67,322.21 179.28,313.71 178.84,278.41 199.67,285.75 						"/>
						<polygon style="opacity:0.2;" points="204.74,284.83 199.67,288.72 192.19,293.86 191.74,318.9 187.93,317.25 187.93,281.51 
							199.67,285.75 						"/>
						<path style="fill:#B38358;" d="M187.36,281.61c-0.03,0-0.05-0.02-0.06-0.05c-0.01-0.03,0.02-0.06,0.05-0.07l30.38-5.55
							c0.03-0.01,0.06,0.02,0.07,0.05c0.01,0.03-0.02,0.06-0.05,0.07l-30.38,5.55C187.36,281.61,187.36,281.61,187.36,281.61z"/>
						<path style="fill:#B38358;" d="M199.51,285.88c-0.01,0-0.01,0-0.02,0l-20.57-7.23c-0.03-0.01-0.05-0.04-0.04-0.07
							c0.01-0.03,0.04-0.05,0.07-0.04l20.57,7.23c0.03,0.01,0.05,0.04,0.04,0.07C199.55,285.87,199.53,285.88,199.51,285.88z"/>
						<polygon style="fill:#FFFFFF;" points="219.3,276.53 189.23,282.18 189.23,290.16 186.12,288.7 185.9,281.05 215.68,275.47 
													"/>
					</g>
					<g>
						<polygon style="fill:#E8BB7F;" points="168.16,333.3 135.48,326.41 135.48,288.79 168.16,294.71 						"/>
						<polygon style="fill:#FFCD8C;" points="135.48,288.79 149.04,284.4 159.09,281.64 190.21,286.94 168.16,294.71 						"/>
						<polygon style="fill:#DEB275;" points="168.16,333.3 189.74,324.31 190.21,286.94 168.16,294.71 						"/>
						<path style="fill:#B38358;" d="M181.19,290.33c0,0-0.01,0-0.01,0l-32.16-5.87c-0.03-0.01-0.06-0.04-0.05-0.07
							c0.01-0.03,0.04-0.05,0.07-0.05l32.16,5.87c0.03,0.01,0.06,0.04,0.05,0.07C181.25,290.31,181.22,290.33,181.19,290.33z"/>
						<path style="fill:#B38358;" d="M168.33,294.85c-0.03,0-0.05-0.02-0.06-0.04c-0.01-0.03,0.01-0.07,0.04-0.08l21.77-7.66
							c0.03-0.01,0.07,0.01,0.08,0.04c0.01,0.03-0.01,0.07-0.04,0.08l-21.77,7.66C168.35,294.85,168.34,294.85,168.33,294.85z"/>
						<polygon style="fill:#FFFFFF;" points="147.39,284.96 179.21,290.94 179.21,299.38 182.5,297.84 182.73,289.74 151.21,283.84 
													"/>
						<polygon style="opacity:0.2;" points="161.69,282.56 159.83,283.07 176.93,291.68 190.1,305.16 190.21,286.94 						"/>
					</g>
					<g>
						<polygon style="fill:#E8BB7F;" points="176.93,291.68 204.69,285.83 204.69,253.88 176.93,258.91 						"/>
						<polygon style="fill:#FFCD8C;" points="204.69,253.88 193.18,250.15 184.64,247.8 158.21,252.31 176.93,258.91 						"/>
						<polygon style="fill:#DEB275;" points="176.93,291.68 158.61,284.05 158.21,252.31 176.93,258.91 						"/>
						<path style="fill:#B38358;" d="M165.86,255.19c-0.02,0-0.05-0.02-0.05-0.04c-0.01-0.03,0.01-0.06,0.04-0.06l27.31-4.99
							c0.03-0.01,0.06,0.01,0.06,0.04c0.01,0.03-0.01,0.06-0.04,0.06L165.86,255.19C165.87,255.19,165.87,255.19,165.86,255.19z"/>
						<path style="fill:#B38358;" d="M176.79,259.03c-0.01,0-0.01,0-0.02,0l-18.49-6.5c-0.03-0.01-0.04-0.04-0.03-0.07
							c0.01-0.03,0.04-0.04,0.07-0.03l18.49,6.5c0.03,0.01,0.04,0.04,0.03,0.07C176.83,259.02,176.81,259.03,176.79,259.03z"/>
						<polygon style="fill:#FFFFFF;" points="194.58,250.62 167.55,255.7 167.55,262.88 164.76,261.56 164.56,254.68 191.33,249.67 
													"/>
					</g>
				</g>
			</g>
			<g>
				<g>
					<g>
						<path style="fill:#E6E6E6;" d="M115.6,376.29c-0.11,0-0.2-0.08-0.22-0.19l-7.71-64.61c-0.01-0.12,0.07-0.23,0.19-0.24
							c0.12-0.02,0.23,0.07,0.24,0.19l7.71,64.61c0.01,0.12-0.07,0.23-0.19,0.24C115.62,376.29,115.61,376.29,115.6,376.29z"/>
						<path style="fill:#E6E6E6;" d="M125.07,377.91c-0.11,0-0.21-0.08-0.22-0.2l-7.31-65.03c-0.01-0.12,0.07-0.23,0.19-0.24
							c0.12-0.01,0.23,0.07,0.24,0.19l7.31,65.03c0.01,0.12-0.07,0.23-0.19,0.24C125.09,377.91,125.08,377.91,125.07,377.91z"/>
						<path style="fill:#E6E6E6;" d="M134.67,379.54c-0.11,0-0.21-0.08-0.22-0.2l-6.9-65.47c-0.01-0.12,0.07-0.23,0.2-0.24
							c0.12-0.01,0.23,0.07,0.24,0.2l6.9,65.47c0.01,0.12-0.07,0.23-0.2,0.24C134.69,379.54,134.68,379.54,134.67,379.54z"/>
						<path style="fill:#E6E6E6;" d="M144.43,381.2c-0.11,0-0.21-0.08-0.22-0.2l-6.47-65.9c-0.01-0.12,0.08-0.23,0.2-0.24
							c0.12-0.01,0.23,0.08,0.24,0.2l6.47,65.9c0.01,0.12-0.08,0.23-0.2,0.24C144.44,381.2,144.43,381.2,144.43,381.2z"/>
						<g>
							<path style="fill:#E6E6E6;" d="M154.33,382.89c-0.11,0-0.21-0.09-0.22-0.2l-6.04-66.35c-0.01-0.12,0.08-0.23,0.2-0.24
								c0.12-0.01,0.23,0.08,0.24,0.2l6.04,66.35c0.01,0.12-0.08,0.23-0.2,0.24C154.34,382.89,154.33,382.89,154.33,382.89z"/>
						</g>
						<g>
							<path style="fill:#E6E6E6;" d="M164.38,384.6c-0.11,0-0.21-0.09-0.22-0.2l-5.58-66.79c-0.01-0.12,0.08-0.23,0.2-0.24
								c0.12-0.01,0.23,0.08,0.24,0.2l5.58,66.79c0.01,0.12-0.08,0.23-0.2,0.24C164.39,384.6,164.38,384.6,164.38,384.6z"/>
						</g>
						<g>
							<path style="fill:#E6E6E6;" d="M174.58,386.34c-0.11,0-0.21-0.09-0.22-0.2l-5.11-67.25c-0.01-0.12,0.08-0.23,0.2-0.24
								c0.12-0.01,0.23,0.08,0.24,0.2l5.11,67.25c0.01,0.12-0.08,0.23-0.2,0.24C174.6,386.34,174.59,386.34,174.58,386.34z"/>
						</g>
					</g>
					<g>
						<path style="fill:#E6E6E6;" d="M181.9,388.06c-0.04,0-0.08,0-0.12-0.01l-73.51-12.52c-0.3-0.05-0.53-0.29-0.57-0.59
							l-7.85-64.26c-0.03-0.21,0.05-0.42,0.2-0.57c0.15-0.15,0.36-0.22,0.57-0.2l76.91,9.25c0.33,0.04,0.58,0.31,0.6,0.64
							l4.44,67.54c0.01,0.21-0.07,0.41-0.23,0.56C182.23,387.99,182.06,388.06,181.9,388.06z M109.01,374.25l72.14,12.29l-4.35-66.1
							l-75.47-9.08L109.01,374.25z"/>
						
							<rect x="140.96" y="298.41" transform="matrix(0.1501 -0.9887 0.9887 0.1501 -212.7203 425.9042)" style="fill:#E6E6E6;" width="0.82" height="76.54"/>
						
							<rect x="142.78" y="322.06" transform="matrix(0.1501 -0.9887 0.9887 0.1501 -233.9709 447.2992)" style="fill:#E6E6E6;" width="0.82" height="75.37"/>
					</g>
				</g>
				<g>
					<g>
						<path style="fill:#E6E6E6;" d="M181.9,388.06c-0.13,0-0.26-0.04-0.38-0.11c-0.18-0.12-0.29-0.31-0.31-0.53l-4.44-67.54
							c-0.02-0.29,0.15-0.57,0.42-0.68l90.26-37.02c0.22-0.09,0.47-0.06,0.66,0.08c0.19,0.14,0.3,0.37,0.28,0.6l-5.26,75.66
							c-0.02,0.27-0.2,0.51-0.45,0.6l-80.56,28.89C182.05,388.04,181.97,388.06,181.9,388.06z M178.17,320.28l4.35,66.13
							l79.28-28.44l5.15-74.11L178.17,320.28z"/>
						
							<rect x="175.54" y="324.49" transform="matrix(0.9276 -0.3735 0.3735 0.9276 -105.2535 106.6086)" style="fill:#E6E6E6;" width="93.86" height="0.82"/>
						
							<rect x="177.44" y="348.84" transform="matrix(0.9331 -0.3597 0.3597 0.9331 -110.755 103.3624)" style="fill:#E6E6E6;" width="89.78" height="0.82"/>
					</g>
					<g>
						<path style="fill:#E6E6E6;" d="M188.78,385.12c-0.11,0-0.21-0.09-0.22-0.21l-4.59-67.83c-0.01-0.12,0.08-0.23,0.2-0.23
							c0.12-0.01,0.23,0.08,0.23,0.2l4.59,67.83c0.01,0.12-0.08,0.23-0.2,0.23C188.79,385.12,188.78,385.12,188.78,385.12z"/>
						<path style="fill:#E6E6E6;" d="M195.21,382.81c-0.12,0-0.21-0.09-0.22-0.21l-3.76-68.5c-0.01-0.12,0.09-0.22,0.21-0.23
							c0.12-0.01,0.22,0.09,0.23,0.21l3.76,68.5c0.01,0.12-0.09,0.22-0.21,0.23C195.22,382.81,195.21,382.81,195.21,382.81z"/>
						<path style="fill:#E6E6E6;" d="M201.7,380.48c-0.12,0-0.21-0.09-0.22-0.21l-2.91-69.18c-0.01-0.12,0.09-0.22,0.21-0.23
							c0.12-0.01,0.22,0.09,0.23,0.21l2.91,69.18C201.93,380.38,201.83,380.48,201.7,380.48
							C201.71,380.48,201.71,380.48,201.7,380.48z"/>
						<path style="fill:#E6E6E6;" d="M208.26,378.13c-0.12,0-0.22-0.09-0.22-0.21l-2.05-69.88c0-0.12,0.09-0.22,0.21-0.23
							c0.12-0.01,0.22,0.09,0.23,0.21l2.05,69.88C208.48,378.03,208.39,378.13,208.26,378.13
							C208.26,378.13,208.26,378.13,208.26,378.13z"/>
						<path style="fill:#E6E6E6;" d="M214.88,375.76c-0.12,0-0.22-0.1-0.22-0.22l-1.16-70.58c0-0.12,0.09-0.22,0.22-0.22
							c0.12,0,0.22,0.09,0.22,0.22l1.16,70.58C215.1,375.66,215,375.76,214.88,375.76C214.88,375.76,214.88,375.76,214.88,375.76z"
							/>
						<path style="fill:#E6E6E6;" d="M221.56,373.36c-0.12,0-0.22-0.1-0.22-0.22l-0.26-71.29c0-0.12,0.1-0.22,0.22-0.22c0,0,0,0,0,0
							c0.12,0,0.22,0.1,0.22,0.22l0.26,71.29C221.78,373.26,221.68,373.36,221.56,373.36C221.56,373.36,221.56,373.36,221.56,373.36
							z"/>
						<path style="fill:#E6E6E6;" d="M228.3,370.94C228.3,370.94,228.3,370.94,228.3,370.94c-0.12,0-0.22-0.1-0.22-0.22l0.66-72.02
							c0-0.12,0.1-0.22,0.22-0.22c0,0,0,0,0,0c0.12,0,0.22,0.1,0.22,0.22l-0.66,72.02C228.52,370.85,228.42,370.94,228.3,370.94z"/>
						<path style="fill:#E6E6E6;" d="M235.12,368.5C235.12,368.5,235.11,368.5,235.12,368.5c-0.13,0-0.22-0.1-0.22-0.22l1.6-72.75
							c0-0.12,0.1-0.21,0.22-0.21c0.12,0,0.22,0.1,0.21,0.22l-1.6,72.75C235.33,368.4,235.24,368.5,235.12,368.5z"/>
						<path style="fill:#E6E6E6;" d="M242,366.03C241.99,366.03,241.99,366.03,242,366.03c-0.13,0-0.22-0.11-0.22-0.23l2.55-73.5
							c0-0.12,0.11-0.22,0.23-0.21c0.12,0,0.22,0.11,0.21,0.23l-2.55,73.5C242.21,365.94,242.12,366.03,242,366.03z"/>
						<path style="fill:#E6E6E6;" d="M248.95,363.54c0,0-0.01,0-0.01,0c-0.12-0.01-0.21-0.11-0.21-0.23l3.53-74.26
							c0.01-0.12,0.11-0.22,0.23-0.21c0.12,0.01,0.21,0.11,0.21,0.23l-3.53,74.26C249.16,363.45,249.06,363.54,248.95,363.54z"/>
						<path style="fill:#E6E6E6;" d="M255.96,361.02c0,0-0.01,0-0.01,0c-0.12-0.01-0.21-0.11-0.21-0.23l4.53-75.03
							c0.01-0.12,0.11-0.21,0.23-0.21c0.12,0.01,0.21,0.11,0.21,0.23l-4.53,75.03C256.17,360.93,256.08,361.02,255.96,361.02z"/>
					</g>
				</g>
			</g>
		</g>
		<g>
			
				<ellipse transform="matrix(0.0478 -0.9989 0.9989 0.0478 331.9896 551.6071)" style="fill:#919191;" cx="455.32" cy="101.67" rx="7.88" ry="2.19"/>
			
				<ellipse transform="matrix(0.0478 -0.9989 0.9989 0.0478 307.7129 572.6275)" style="fill:#919191;" cx="454.21" cy="124.91" rx="7.88" ry="2.19"/>
		</g>
		<defs>
			<filter id="Adobe_OpacityMaskFilter_4_" filterUnits="userSpaceOnUse" x="343.54" y="444.6" width="42.32" height="19.94">
				<feFlood  style="flood-color:white;flood-opacity:1" result="back"/>
				<feBlend  in="SourceGraphic" in2="back" mode="normal"/>
			</filter>
		</defs>
		<mask maskUnits="userSpaceOnUse" x="343.54" y="444.6" width="42.32" height="19.94" id="SVGID_8_">
			<g style="filter:url(#Adobe_OpacityMaskFilter_4_);">
				<defs>
					<filter id="Adobe_OpacityMaskFilter_5_" filterUnits="userSpaceOnUse" x="343.54" y="444.6" width="42.32" height="19.94">
						<feFlood  style="flood-color:white;flood-opacity:1" result="back"/>
						<feBlend  in="SourceGraphic" in2="back" mode="normal"/>
					</filter>
				</defs>
				<mask maskUnits="userSpaceOnUse" x="343.54" y="444.6" width="42.32" height="19.94" id="SVGID_8_">
				</mask>
				<linearGradient id="SVGID_9_" gradientUnits="userSpaceOnUse" x1="350.8702" y1="460.686" x2="402.1879" y2="437.9736">
					<stop  offset="4.277940e-03" style="stop-color:#FFFFFF"/>
					<stop  offset="1" style="stop-color:#000000"/>
				</linearGradient>
				<ellipse style="mask:url(#SVGID_8_);fill:url(#SVGID_9_);" cx="364.7" cy="454.57" rx="21.16" ry="9.97"/>
			</g>
		</mask>
		<linearGradient id="SVGID_10_" gradientUnits="userSpaceOnUse" x1="350.8702" y1="460.686" x2="402.1879" y2="437.9736">
			<stop  offset="4.277940e-03" style="stop-color:#0E7AA5"/>
			<stop  offset="1" style="stop-color:#FFFFFF"/>
		</linearGradient>
		<ellipse style="opacity:0.5;fill:url(#SVGID_10_);" cx="364.7" cy="454.57" rx="21.16" ry="9.97"/>
		<defs>
			<filter id="Adobe_OpacityMaskFilter_6_" filterUnits="userSpaceOnUse" x="406.86" y="451.88" width="47.3" height="23.99">
				<feFlood  style="flood-color:white;flood-opacity:1" result="back"/>
				<feBlend  in="SourceGraphic" in2="back" mode="normal"/>
			</filter>
		</defs>
		<mask maskUnits="userSpaceOnUse" x="406.86" y="451.88" width="47.3" height="23.99" id="SVGID_11_">
			<g style="filter:url(#Adobe_OpacityMaskFilter_6_);">
				<defs>
					<filter id="Adobe_OpacityMaskFilter_7_" filterUnits="userSpaceOnUse" x="406.86" y="451.88" width="47.3" height="23.99">
						<feFlood  style="flood-color:white;flood-opacity:1" result="back"/>
						<feBlend  in="SourceGraphic" in2="back" mode="normal"/>
					</filter>
				</defs>
				<mask maskUnits="userSpaceOnUse" x="406.86" y="451.88" width="47.3" height="23.99" id="SVGID_11_">
				</mask>
				<linearGradient id="SVGID_12_" gradientUnits="userSpaceOnUse" x1="414.9997" y1="470.7358" x2="472.5417" y2="445.2686">
					<stop  offset="4.277940e-03" style="stop-color:#FFFFFF"/>
					<stop  offset="1" style="stop-color:#000000"/>
				</linearGradient>
				<ellipse style="mask:url(#SVGID_11_);fill:url(#SVGID_12_);" cx="430.51" cy="463.87" rx="23.65" ry="11.99"/>
			</g>
		</mask>
		<linearGradient id="SVGID_13_" gradientUnits="userSpaceOnUse" x1="414.9997" y1="470.7358" x2="472.5417" y2="445.2686">
			<stop  offset="4.277940e-03" style="stop-color:#0E7AA5"/>
			<stop  offset="1" style="stop-color:#FFFFFF"/>
		</linearGradient>
		<ellipse style="opacity:0.5;fill:url(#SVGID_13_);" cx="430.51" cy="463.87" rx="23.65" ry="11.99"/>
		<defs>
			<filter id="Adobe_OpacityMaskFilter_8_" filterUnits="userSpaceOnUse" x="352.8" y="411.67" width="36.04" height="18.28">
				<feFlood  style="flood-color:white;flood-opacity:1" result="back"/>
				<feBlend  in="SourceGraphic" in2="back" mode="normal"/>
			</filter>
		</defs>
		<mask maskUnits="userSpaceOnUse" x="352.8" y="411.67" width="36.04" height="18.28" id="SVGID_14_">
			<g style="filter:url(#Adobe_OpacityMaskFilter_8_);">
				<defs>
					<filter id="Adobe_OpacityMaskFilter_9_" filterUnits="userSpaceOnUse" x="352.8" y="411.67" width="36.04" height="18.28">
						<feFlood  style="flood-color:white;flood-opacity:1" result="back"/>
						<feBlend  in="SourceGraphic" in2="back" mode="normal"/>
					</filter>
				</defs>
				<mask maskUnits="userSpaceOnUse" x="352.8" y="411.67" width="36.04" height="18.28" id="SVGID_14_">
				</mask>
				<linearGradient id="SVGID_15_" gradientUnits="userSpaceOnUse" x1="359.0048" y1="426.0404" x2="402.8466" y2="406.6367">
					<stop  offset="4.277940e-03" style="stop-color:#FFFFFF"/>
					<stop  offset="1" style="stop-color:#000000"/>
				</linearGradient>
				<ellipse style="mask:url(#SVGID_14_);fill:url(#SVGID_15_);" cx="370.82" cy="420.81" rx="18.02" ry="9.14"/>
			</g>
		</mask>
		<linearGradient id="SVGID_16_" gradientUnits="userSpaceOnUse" x1="359.0048" y1="426.0404" x2="402.8466" y2="406.6367">
			<stop  offset="4.277940e-03" style="stop-color:#0E7AA5"/>
			<stop  offset="1" style="stop-color:#FFFFFF"/>
		</linearGradient>
		<ellipse style="opacity:0.5;fill:url(#SVGID_16_);" cx="370.82" cy="420.81" rx="18.02" ry="9.14"/>
		<g>
			
				<linearGradient id="SVGID_17_" gradientUnits="userSpaceOnUse" x1="411.7318" y1="304.4723" x2="663.7004" y2="52.5037" gradientTransform="matrix(0.9973 2.000000e-04 -0.032 1.0027 -18.8818 1.1917)">
				<stop  offset="0" style="stop-color:#38CAD1"/>
				<stop  offset="0.2764" style="stop-color:#3DB6D7"/>
				<stop  offset="0.838" style="stop-color:#4B84E8"/>
				<stop  offset="1" style="stop-color:#4F74ED"/>
			</linearGradient>
			<path style="fill:url(#SVGID_17_);" d="M579.17,199.68l-98.83-7.34c-3.11-0.23-5.52-3.23-5.41-6.7l1.82-56.96
				c0.11-3.47,2.71-6.28,5.82-6.28l99.06,0.02c3.82,0,6.85,3.15,6.72,7.03l-2.03,63.71C586.2,197.05,582.99,199.97,579.17,199.68z"
				/>
			<linearGradient id="SVGID_18_" gradientUnits="userSpaceOnUse" x1="482.0024" y1="92.1087" x2="504.1389" y2="203.626">
				<stop  offset="0.2401" style="stop-color:#EBBC60"/>
				<stop  offset="0.5481" style="stop-color:#FFFFFF"/>
				<stop  offset="0.993" style="stop-color:#FFBC38"/>
			</linearGradient>
			<path style="fill:url(#SVGID_18_);" d="M493.56,140.29l7.65,0.14l0.11-3.39c0.04-1.13-0.77-2.06-1.8-2.07l-10.64-0.14l-0.26,8.08
				c-0.02,0.48-0.26,0.87-0.69,0.86l0,0c-0.43-0.01-0.59-0.41-0.58-0.89l0.26-8.07l-1.81-0.02c-1-0.01-1.83,0.87-1.87,1.98
				l-0.31,9.73l9.87,0.25c0.31,0.01,0.58,0.26,0.6,0.6c0.02,0.39-0.27,0.72-0.61,0.71l-9.9-0.27l-0.13,4.02
				c-0.04,1.11,0.74,2.03,1.74,2.07l13.72,0.46c1.03,0.03,1.89-0.85,1.93-1.98l0.34-10.58l-7.69-0.16
				c-0.35-0.01-0.63-0.35-0.58-0.75C492.95,140.53,493.24,140.29,493.56,140.29z"/>
			<polygon style="fill:#EDECEB;" points="577.11,190.83 552.75,189.23 553.15,176.74 577.52,178.04 			"/>
			<g>
				<polygon style="fill:#EDECEB;" points="502.81,161.73 483.17,160.93 482.99,166.35 502.64,167.27 				"/>
				<polygon style="fill:#EDECEB;" points="505.64,161.84 505.47,167.4 526.45,168.38 526.64,162.7 				"/>
				<polygon style="fill:#EDECEB;" points="554.13,163.82 553.94,169.66 577.61,170.76 577.8,164.79 				"/>
				<polygon style="fill:#EDECEB;" points="550.83,163.69 530,162.84 529.82,168.53 550.65,169.5 				"/>
			</g>
			<polygon style="fill:#EDCF85;" points="545.98,183.84 482.67,179.98 482.9,172.97 546.21,176.37 			"/>
			<polygon style="fill:#EDECEB;" points="549.02,129.46 579.06,129.68 578.77,138.66 548.74,138.19 			"/>
		</g>
		<g>
			<path style="fill:#9EECF0;" d="M266.44,217.24l-76.43-5.67c-2.4-0.18-4.27-2.5-4.18-5.18l1.41-44.05c0.09-2.68,2.1-4.86,4.5-4.86
				l76.61,0.02c2.96,0,5.29,2.44,5.2,5.44l-1.57,49.27C271.88,215.2,269.4,217.46,266.44,217.24z"/>
			<linearGradient id="SVGID_19_" gradientUnits="userSpaceOnUse" x1="174.938" y1="135.843" x2="205.1768" y2="183.7873">
				<stop  offset="0.2401" style="stop-color:#EBBC60"/>
				<stop  offset="0.5481" style="stop-color:#FFFFFF"/>
				<stop  offset="0.993" style="stop-color:#FFBC38"/>
			</linearGradient>
			<path style="fill:url(#SVGID_19_);" d="M200.23,171.31l5.92,0.11l0.08-2.62c0.03-0.87-0.59-1.59-1.39-1.6l-8.23-0.11l-0.2,6.25
				c-0.01,0.37-0.2,0.67-0.54,0.67l0,0c-0.34-0.01-0.46-0.31-0.45-0.69l0.2-6.24l-1.4-0.02c-0.77-0.01-1.42,0.68-1.44,1.53
				l-0.24,7.53l7.63,0.2c0.24,0.01,0.45,0.2,0.47,0.47c0.02,0.3-0.21,0.55-0.47,0.55l-7.66-0.21l-0.1,3.11
				c-0.03,0.86,0.57,1.57,1.34,1.6l10.61,0.35c0.79,0.03,1.46-0.66,1.49-1.53l0.26-8.19l-5.95-0.12c-0.27-0.01-0.48-0.27-0.45-0.58
				C199.76,171.49,199.99,171.3,200.23,171.31z"/>
			<polygon style="fill:#1FBFC7;" points="264.85,210.39 246.01,209.15 246.32,199.49 265.16,200.5 			"/>
			<g>
				<polygon style="fill:#1FBFC7;" points="207.39,187.88 192.19,187.26 192.06,191.46 207.25,192.17 				"/>
				<polygon style="fill:#1FBFC7;" points="209.58,187.97 209.44,192.27 225.67,193.02 225.81,188.63 				"/>
				<polygon style="fill:#1FBFC7;" points="247.07,189.5 246.93,194.01 265.24,194.87 265.38,190.25 				"/>
				<polygon style="fill:#1FBFC7;" points="244.53,189.4 228.42,188.74 228.28,193.14 244.38,193.9 				"/>
			</g>
			<polygon style="fill:#50E3EB;" points="240.77,204.98 191.81,202 191.98,196.58 240.95,199.2 			"/>
			<polygon style="fill:#1FBFC7;" points="243.12,162.93 266.36,163.09 266.14,170.04 242.91,169.68 			"/>
		</g>
		<g>
			<g>
				<path style="fill:#D9C561;" d="M383.1,450.84c-2.8-3.66-10.25-6.28-18.99-6.28c-8.74,0-16.19,2.62-18.99,6.28h-1.19v3.22
					c0,5.25,9.03,9.51,20.18,9.51s20.18-4.26,20.18-9.51v-3.22H383.1z"/>
				<ellipse style="fill:#E8DC68;" cx="364.11" cy="450.84" rx="20.18" ry="9.51"/>
				<ellipse style="fill:#FFF39E;" cx="364.11" cy="450.84" rx="18.91" ry="8.91"/>
			</g>
			<path style="fill:#E8DC68;" d="M364.11,458.94c-4.63,0-8.98-0.83-12.26-2.34c-3.31-1.53-5.13-3.57-5.13-5.75
				c0-2.18,1.82-4.22,5.13-5.75c3.28-1.51,7.63-2.34,12.26-2.34c4.63,0,8.98,0.83,12.26,2.34c3.31,1.53,5.13,3.57,5.13,5.75
				c0,2.18-1.82,4.22-5.13,5.75C373.09,458.1,368.74,458.94,364.11,458.94z M364.11,443.03c-9.44,0-17.12,3.51-17.12,7.82
				c0,4.31,7.68,7.82,17.12,7.82c9.44,0,17.12-3.51,17.12-7.82C381.23,446.53,373.55,443.03,364.11,443.03z"/>
			<g>
				<ellipse style="fill:#FFF39E;" cx="364.11" cy="450.84" rx="16.84" ry="7.77"/>
				<g>
					<g>
						<path style="fill:#E8DB52;" d="M359.72,454.67c0.1-0.57-0.92-1.16-0.92-1.16s-1.19,0.35-1.29,0.92
							c-0.09,0.52,0.73,1.05,0.89,1.14c-1.18-0.28-2.21-0.63-3.08-1.03c0.19-0.04,1.21-0.25,1.53-0.72
							c0.36-0.53-0.26-1.19-0.26-1.19s-1.21,0.2-1.57,0.73c-0.31,0.46,0.11,1,0.23,1.15c-0.78-0.37-1.42-0.78-1.92-1.24
							c0.05-0.01,0.08-0.01,0.08-0.01s-0.02-0.03-0.07-0.08c0.26-0.04,1.15-0.19,1.53-0.6c0.45-0.48,0.04-1.12,0.04-1.12
							s-1.15,0.13-1.61,0.61c-0.32,0.34-0.21,0.76-0.11,0.97c-0.06-0.05-0.14-0.1-0.23-0.15c-0.39-0.45-0.65-0.92-0.77-1.43
							c0.32,0,1.1-0.04,1.69-0.31c0.76-0.36,0.91-0.98,0.91-0.98s-1.08-0.05-1.84,0.31c-0.45,0.21-0.69,0.52-0.8,0.73
							c0-0.02-0.01-0.03-0.01-0.05c-0.07-0.53,0.03-1.04,0.27-1.53c0.18,0.01,1.04,0.07,1.8-0.18c0.86-0.28,1.26-0.83,1.26-0.83
							s-0.98-0.1-1.84,0.18c-0.62,0.2-1.01,0.55-1.17,0.72c0.33-0.61,0.89-1.18,1.65-1.69c0.28,0.03,1.01,0.1,1.76-0.04
							c0.95-0.17,1.57-0.6,1.57-0.6s-0.93-0.15-1.88,0.02c-0.31,0.06-0.59,0.14-0.82,0.23c0.66-0.37,1.43-0.7,2.31-0.98
							c0.22,0.02,1.03,0.06,1.8-0.14c0.9-0.23,1.39-0.68,1.39-0.68s-0.96-0.09-1.86,0.13c-0.63,0.16-1.06,0.43-1.26,0.58
							c-0.88,0.28-1.66,0.6-2.33,0.95c0.06-0.06,0.12-0.13,0.16-0.21c0.25-0.46-0.15-0.94-0.15-0.94s-0.8,0.26-1.04,0.72
							c-0.25,0.46,0.15,0.94,0.15,0.94s0.02-0.01,0.06-0.02c-0.61,0.41-1.09,0.86-1.43,1.34c0-0.11-0.03-0.24-0.13-0.37
							c-0.35-0.45-1.4-0.78-1.4-0.78s-0.47,0.41-0.12,0.86c0.31,0.4,1.17,0.7,1.36,0.77c-0.24,0.5-0.34,1.02-0.27,1.55
							c0.01,0.1,0.03,0.2,0.06,0.3c0,0,0,0,0,0l0,0c0.11,0.45,0.33,0.89,0.66,1.3c-0.19-0.08-0.42-0.15-0.71-0.2
							c-1.06-0.18-2.43,0.06-2.43,0.06s0.36,0.52,1.42,0.7c0.81,0.13,1.79,0.03,2.21-0.03c0.42,0.38,0.94,0.74,1.56,1.06
							c1.61,0.84,3.82,1.46,6.42,1.79l0.04-0.07c-0.99-0.12-1.92-0.29-2.77-0.49C358.6,455.54,359.63,455.21,359.72,454.67z"/>
						<path style="fill:#E8DB52;" d="M356.18,455.21c-1.25-0.03-2.5,0.45-2.5,0.45s0.78,0.54,2.02,0.57c1.25,0.03,2.5-0.45,2.5-0.45
							S357.43,455.24,356.18,455.21z"/>
						<path style="fill:#E8DB52;" d="M353.25,454.02c-1.2-0.07-2.49,0.33-2.49,0.33s0.65,0.51,1.84,0.58
							c1.2,0.07,2.49-0.33,2.49-0.33S354.44,454.08,353.25,454.02z"/>
						<path style="fill:#E8DB52;" d="M352.03,451.53c0,0-0.09-0.5-0.99-0.78c-0.9-0.28-2.26-0.24-2.26-0.24s0.09,0.5,0.99,0.78
							C350.67,451.57,352.03,451.53,352.03,451.53z"/>
						<path style="fill:#E8DB52;" d="M372.05,455.11c-1.25,0.03-2.02,0.57-2.02,0.57s1.25,0.48,2.5,0.45
							c1.25-0.03,2.02-0.57,2.02-0.57S373.3,455.08,372.05,455.11z"/>
						<path style="fill:#E8DB52;" d="M374.98,453.93c-1.2,0.07-1.84,0.58-1.84,0.58s1.29,0.4,2.49,0.33
							c1.2-0.07,1.84-0.58,1.84-0.58S376.18,453.86,374.98,453.93z"/>
						<path style="fill:#E8DB52;" d="M376.24,452.47c-0.28,0.05-0.52,0.12-0.71,0.2c0.33-0.41,0.56-0.85,0.66-1.3h0c0,0,0,0,0,0
							c0.02-0.1,0.04-0.2,0.06-0.3c0.07-0.54-0.03-1.06-0.27-1.55c0.19-0.06,1.05-0.37,1.36-0.77c0.35-0.45-0.12-0.86-0.12-0.86
							s-1.04,0.33-1.4,0.78c-0.1,0.13-0.13,0.26-0.13,0.37c-0.34-0.48-0.82-0.93-1.43-1.34c0.04,0.01,0.06,0.02,0.06,0.02
							s0.4-0.48,0.15-0.94c-0.25-0.46-1.04-0.72-1.04-0.72s-0.4,0.48-0.15,0.94c0.04,0.08,0.1,0.14,0.16,0.21
							c-0.67-0.36-1.45-0.68-2.33-0.95c-0.2-0.15-0.63-0.42-1.26-0.58c-0.9-0.23-1.86-0.13-1.86-0.13s0.5,0.46,1.39,0.68
							c0.77,0.19,1.59,0.15,1.8,0.14c0.88,0.29,1.65,0.62,2.31,0.98c-0.23-0.09-0.51-0.17-0.82-0.23c-0.95-0.17-1.88-0.02-1.88-0.02
							s0.62,0.43,1.57,0.6c0.75,0.14,1.48,0.07,1.76,0.04c0.76,0.51,1.32,1.08,1.65,1.69c-0.16-0.17-0.55-0.52-1.17-0.72
							c-0.86-0.28-1.84-0.18-1.84-0.18s0.41,0.55,1.26,0.83c0.76,0.25,1.62,0.19,1.8,0.18c0.24,0.49,0.34,1,0.27,1.53
							c0,0.02-0.01,0.03-0.01,0.05c-0.12-0.21-0.35-0.52-0.8-0.73c-0.76-0.36-1.84-0.31-1.84-0.31s0.15,0.63,0.91,0.98
							c0.59,0.28,1.36,0.31,1.69,0.31c-0.12,0.51-0.38,0.98-0.77,1.43c-0.09,0.05-0.17,0.11-0.23,0.15
							c0.09-0.22,0.21-0.64-0.11-0.97c-0.45-0.48-1.61-0.61-1.61-0.61s-0.42,0.64,0.04,1.12c0.38,0.4,1.27,0.56,1.53,0.6
							c-0.05,0.05-0.07,0.08-0.07,0.08s0.03,0,0.08,0.01c-0.5,0.45-1.14,0.87-1.92,1.24c0.12-0.15,0.54-0.7,0.23-1.15
							c-0.36-0.53-1.57-0.73-1.57-0.73s-0.62,0.66-0.26,1.19c0.33,0.48,1.34,0.69,1.53,0.72c-0.87,0.41-1.91,0.76-3.08,1.03
							c0.16-0.1,0.99-0.63,0.89-1.14c-0.1-0.57-1.29-0.92-1.29-0.92s-1.02,0.59-0.92,1.16c0.09,0.53,1.12,0.87,1.27,0.91
							c-0.85,0.2-1.78,0.36-2.77,0.49l0.04,0.07c2.59-0.33,4.81-0.94,6.42-1.79c0.62-0.33,1.14-0.68,1.56-1.06
							c0.43,0.06,1.41,0.16,2.21,0.03c1.06-0.18,1.42-0.7,1.42-0.7S377.3,452.29,376.24,452.47z"/>
						<path style="fill:#E8DB52;" d="M377.18,450.65c-0.9,0.28-0.99,0.78-0.99,0.78s1.36,0.04,2.26-0.24s0.99-0.78,0.99-0.78
							S378.08,450.37,377.18,450.65z"/>
					</g>
					<ellipse style="fill:#E8DB52;" cx="364.11" cy="450.84" rx="5.32" ry="2.46"/>
				</g>
			</g>
		</g>
		<g>
			<g>
				<path style="fill:#D9C561;" d="M450.3,461.15c-3.07-4.02-11.24-6.89-20.83-6.89c-9.59,0-17.75,2.87-20.83,6.89h-1.31v3.53
					c0,5.76,9.91,10.43,22.13,10.43s22.13-4.67,22.13-10.43v-3.53H450.3z"/>
				<ellipse style="fill:#E8DC68;" cx="429.48" cy="461.15" rx="22.13" ry="10.43"/>
				<ellipse style="fill:#FFF39E;" cx="429.48" cy="461.15" rx="20.74" ry="9.77"/>
			</g>
			<path style="fill:#E8DC68;" d="M429.48,470.02c-5.08,0-9.85-0.91-13.44-2.57c-3.63-1.67-5.63-3.91-5.63-6.31
				c0-2.39,2-4.63,5.63-6.31c3.59-1.66,8.37-2.57,13.44-2.57s9.85,0.91,13.44,2.57c3.63,1.67,5.63,3.91,5.63,6.31
				c0,2.39-2,4.63-5.63,6.31C439.33,469.11,434.55,470.02,429.48,470.02z M429.48,452.57c-10.35,0-18.77,3.85-18.77,8.57
				c0,4.73,8.42,8.57,18.77,8.57c10.35,0,18.77-3.85,18.77-8.57C448.25,456.42,439.83,452.57,429.48,452.57z"/>
			<g>
				<ellipse style="fill:#FFF39E;" cx="429.48" cy="461.15" rx="18.47" ry="8.52"/>
				<g>
					<g>
						<path style="fill:#E8DB52;" d="M424.66,465.35c0.11-0.63-1.01-1.27-1.01-1.27s-1.3,0.38-1.41,1.01
							c-0.1,0.57,0.8,1.15,0.98,1.25c-1.29-0.31-2.43-0.69-3.38-1.13c0.21-0.04,1.33-0.27,1.68-0.8c0.39-0.58-0.29-1.3-0.29-1.3
							s-1.32,0.22-1.72,0.8c-0.34,0.5,0.12,1.1,0.25,1.26c-0.85-0.4-1.56-0.86-2.1-1.36c0.05-0.01,0.09-0.01,0.09-0.01
							s-0.02-0.03-0.08-0.09c0.29-0.04,1.26-0.21,1.68-0.66c0.5-0.52,0.04-1.23,0.04-1.23s-1.27,0.14-1.76,0.67
							c-0.35,0.37-0.23,0.83-0.12,1.07c-0.07-0.05-0.15-0.11-0.26-0.17c-0.43-0.49-0.71-1.01-0.85-1.57c0.36,0,1.21-0.04,1.85-0.34
							c0.83-0.39,1-1.08,1-1.08s-1.19-0.05-2.02,0.34c-0.49,0.23-0.75,0.57-0.88,0.8c0-0.02-0.01-0.04-0.01-0.06
							c-0.07-0.58,0.03-1.14,0.3-1.68c0.2,0.02,1.14,0.07,1.97-0.2c0.94-0.3,1.38-0.91,1.38-0.91s-1.08-0.11-2.01,0.19
							c-0.68,0.22-1.1,0.6-1.28,0.79c0.36-0.67,0.97-1.29,1.81-1.86c0.31,0.04,1.11,0.1,1.93-0.04c1.05-0.19,1.72-0.66,1.72-0.66
							s-1.02-0.16-2.06,0.03c-0.34,0.06-0.64,0.15-0.9,0.25c0.72-0.4,1.57-0.76,2.53-1.08c0.24,0.02,1.13,0.06,1.98-0.15
							c0.98-0.25,1.53-0.75,1.53-0.75s-1.05-0.1-2.04,0.15c-0.69,0.17-1.16,0.47-1.39,0.64c-0.96,0.3-1.82,0.66-2.55,1.05
							c0.07-0.07,0.13-0.15,0.18-0.23c0.27-0.5-0.17-1.03-0.17-1.03s-0.87,0.29-1.14,0.79s0.17,1.03,0.17,1.03s0.02-0.01,0.06-0.02
							c-0.67,0.45-1.2,0.95-1.57,1.47c0-0.13-0.03-0.27-0.14-0.41c-0.39-0.5-1.53-0.86-1.53-0.86s-0.52,0.45-0.13,0.95
							c0.34,0.44,1.28,0.77,1.49,0.84c-0.27,0.54-0.37,1.11-0.3,1.7c0.01,0.11,0.04,0.22,0.06,0.33c0,0,0,0,0,0h0
							c0.12,0.5,0.36,0.98,0.73,1.43c-0.21-0.09-0.46-0.17-0.78-0.22c-1.17-0.19-2.66,0.06-2.66,0.06s0.4,0.57,1.56,0.77
							c0.89,0.15,1.96,0.03,2.43-0.03c0.46,0.42,1.03,0.81,1.71,1.17c1.76,0.92,4.19,1.6,7.04,1.96l0.04-0.07
							c-1.09-0.14-2.1-0.32-3.04-0.54C423.43,466.3,424.56,465.93,424.66,465.35z"/>
						<path style="fill:#E8DB52;" d="M420.77,465.93c-1.37-0.04-2.74,0.49-2.74,0.49s0.85,0.59,2.22,0.63
							c1.37,0.04,2.74-0.49,2.74-0.49S422.14,465.97,420.77,465.93z"/>
						<path style="fill:#E8DB52;" d="M417.56,464.63c-1.31-0.07-2.73,0.37-2.73,0.37s0.71,0.56,2.02,0.63
							c1.31,0.07,2.73-0.37,2.73-0.37S418.87,464.7,417.56,464.63z"/>
						<path style="fill:#E8DB52;" d="M416.23,461.9c0,0-0.1-0.55-1.08-0.86c-0.98-0.31-2.48-0.27-2.48-0.27s0.1,0.55,1.08,0.86
							S416.23,461.9,416.23,461.9z"/>
						<path style="fill:#E8DB52;" d="M438.18,465.83c-1.37,0.04-2.22,0.63-2.22,0.63s1.37,0.53,2.74,0.49
							c1.37-0.04,2.22-0.63,2.22-0.63S439.55,465.8,438.18,465.83z"/>
						<path style="fill:#E8DB52;" d="M441.4,464.53c-1.31,0.07-2.02,0.63-2.02,0.63s1.42,0.44,2.73,0.37
							c1.31-0.07,2.02-0.63,2.02-0.63S442.71,464.46,441.4,464.53z"/>
						<path style="fill:#E8DB52;" d="M442.77,462.93c-0.31,0.05-0.57,0.13-0.78,0.22c0.37-0.45,0.61-0.93,0.73-1.43l0,0c0,0,0,0,0,0
							c0.03-0.11,0.05-0.22,0.06-0.33c0.07-0.59-0.03-1.16-0.3-1.7c0.21-0.07,1.15-0.4,1.49-0.84c0.39-0.5-0.13-0.95-0.13-0.95
							s-1.15,0.36-1.53,0.86c-0.11,0.14-0.15,0.28-0.14,0.41c-0.37-0.52-0.9-1.02-1.57-1.47c0.04,0.01,0.06,0.02,0.06,0.02
							s0.44-0.52,0.17-1.03c-0.27-0.5-1.14-0.79-1.14-0.79s-0.44,0.52-0.17,1.03c0.04,0.08,0.11,0.16,0.18,0.23
							c-0.73-0.39-1.59-0.74-2.55-1.05c-0.22-0.16-0.69-0.46-1.39-0.64c-0.99-0.25-2.04-0.15-2.04-0.15s0.54,0.5,1.53,0.75
							c0.85,0.21,1.74,0.17,1.98,0.15c0.96,0.31,1.81,0.68,2.53,1.08c-0.25-0.1-0.55-0.19-0.9-0.25c-1.05-0.19-2.06-0.03-2.06-0.03
							s0.68,0.47,1.72,0.66c0.82,0.15,1.63,0.08,1.93,0.04c0.84,0.56,1.45,1.19,1.81,1.86c-0.18-0.19-0.6-0.57-1.28-0.79
							c-0.94-0.3-2.01-0.19-2.01-0.19s0.44,0.6,1.38,0.91c0.84,0.27,1.78,0.21,1.97,0.2c0.26,0.54,0.37,1.1,0.3,1.68
							c0,0.02-0.01,0.04-0.01,0.06c-0.13-0.24-0.39-0.57-0.88-0.8c-0.83-0.39-2.02-0.34-2.02-0.34s0.16,0.69,1,1.08
							c0.64,0.3,1.5,0.34,1.85,0.34c-0.13,0.55-0.42,1.08-0.85,1.57c-0.1,0.06-0.19,0.12-0.26,0.17c0.1-0.24,0.23-0.7-0.12-1.07
							c-0.5-0.52-1.76-0.67-1.76-0.67s-0.46,0.71,0.04,1.23c0.42,0.44,1.39,0.61,1.68,0.66c-0.05,0.05-0.08,0.09-0.08,0.09
							s0.03,0.01,0.09,0.01c-0.55,0.5-1.25,0.95-2.1,1.36c0.14-0.16,0.59-0.76,0.25-1.26c-0.39-0.58-1.72-0.8-1.72-0.8
							s-0.68,0.72-0.29,1.3c0.36,0.52,1.47,0.76,1.68,0.8c-0.96,0.45-2.09,0.83-3.38,1.13c0.18-0.11,1.08-0.69,0.98-1.25
							c-0.11-0.63-1.41-1.01-1.41-1.01s-1.12,0.64-1.01,1.27c0.1,0.59,1.23,0.95,1.39,1c-0.93,0.22-1.95,0.4-3.04,0.54l0.04,0.07
							c2.84-0.36,5.28-1.04,7.04-1.96c0.68-0.36,1.25-0.75,1.71-1.17c0.47,0.06,1.54,0.18,2.43,0.03c1.17-0.19,1.56-0.77,1.56-0.77
							S443.94,462.74,442.77,462.93z"/>
						<path style="fill:#E8DB52;" d="M443.81,460.94c-0.98,0.31-1.08,0.86-1.08,0.86s1.5,0.05,2.48-0.27
							c0.98-0.31,1.08-0.86,1.08-0.86S444.79,460.63,443.81,460.94z"/>
					</g>
					<ellipse style="fill:#E8DB52;" cx="429.48" cy="461.15" rx="5.84" ry="2.69"/>
				</g>
			</g>
		</g>
		<g>
			<g>
				<path style="fill:#ADAFB3;" d="M386.74,418.02c-2.43-3.17-8.88-5.45-16.45-5.45s-14.03,2.27-16.45,5.45h-1.03v2.79
					c0,4.55,7.83,8.24,17.48,8.24s17.48-3.69,17.48-8.24v-2.79H386.74z"/>
				<ellipse style="fill:#ADAFB3;" cx="370.29" cy="418.02" rx="17.48" ry="8.24"/>
				<ellipse style="fill:#CACDD1;" cx="370.29" cy="418.02" rx="16.39" ry="7.72"/>
			</g>
			<g>
				<g>
					<g>
						<g>
							<path style="fill:#ADAFB3;" d="M366.09,421.67c0.1-0.55-0.88-1.11-0.88-1.11s-1.13,0.33-1.23,0.88
								c-0.09,0.49,0.7,1,0.85,1.09c-1.12-0.27-2.11-0.6-2.94-0.99c0.19-0.03,1.15-0.24,1.46-0.69c0.34-0.51-0.25-1.13-0.25-1.13
								s-1.15,0.19-1.49,0.7c-0.3,0.43,0.1,0.96,0.22,1.1c-0.74-0.35-1.35-0.75-1.83-1.18c0.05-0.01,0.07-0.01,0.07-0.01
								s-0.02-0.03-0.07-0.08c0.25-0.04,1.09-0.19,1.46-0.57c0.43-0.46,0.04-1.07,0.04-1.07s-1.1,0.13-1.54,0.58
								c-0.31,0.32-0.2,0.72-0.11,0.93c-0.06-0.05-0.13-0.1-0.22-0.15c-0.37-0.42-0.62-0.88-0.74-1.36c0.31,0,1.05-0.04,1.61-0.3
								c0.73-0.34,0.87-0.94,0.87-0.94s-1.03-0.04-1.76,0.3c-0.43,0.2-0.65,0.49-0.77,0.7c0-0.02-0.01-0.03-0.01-0.05
								c-0.06-0.5,0.03-1,0.26-1.46c0.17,0.01,0.99,0.06,1.72-0.17c0.82-0.26,1.2-0.79,1.2-0.79s-0.94-0.1-1.75,0.17
								c-0.59,0.19-0.96,0.52-1.11,0.69c0.31-0.58,0.85-1.12,1.58-1.61c0.27,0.03,0.96,0.09,1.68-0.04c0.91-0.16,1.5-0.57,1.5-0.57
								s-0.88-0.14-1.79,0.02c-0.3,0.05-0.56,0.13-0.78,0.22c0.63-0.35,1.36-0.66,2.2-0.94c0.21,0.01,0.98,0.05,1.72-0.13
								c0.86-0.22,1.33-0.65,1.33-0.65s-0.92-0.09-1.77,0.13c-0.6,0.15-1.01,0.41-1.21,0.55c-0.84,0.26-1.58,0.57-2.22,0.91
								c0.06-0.06,0.12-0.13,0.15-0.2c0.23-0.44-0.14-0.89-0.14-0.89s-0.76,0.25-0.99,0.69c-0.23,0.44,0.15,0.89,0.15,0.89
								s0.02-0.01,0.05-0.02c-0.58,0.39-1.04,0.82-1.37,1.28c0-0.11-0.03-0.23-0.12-0.36c-0.34-0.43-1.33-0.74-1.33-0.74
								s-0.45,0.39-0.11,0.82c0.3,0.38,1.12,0.67,1.3,0.73c-0.23,0.47-0.32,0.97-0.26,1.48c0.01,0.1,0.03,0.19,0.05,0.28
								c0,0,0,0,0,0l0,0c0.1,0.43,0.32,0.85,0.63,1.24c-0.18-0.08-0.4-0.15-0.67-0.19c-1.02-0.17-2.32,0.05-2.32,0.05
								s0.34,0.5,1.36,0.67c0.77,0.13,1.71,0.03,2.11-0.02c0.4,0.36,0.9,0.7,1.49,1.02c1.53,0.8,3.65,1.39,6.12,1.71l0.04-0.06
								c-0.95-0.12-1.83-0.28-2.64-0.47C365.02,422.5,366,422.18,366.09,421.67z"/>
						</g>
						<g>
							<path style="fill:#ADAFB3;" d="M362.71,422.18c-1.19-0.03-2.38,0.43-2.38,0.43s0.74,0.51,1.93,0.55
								c1.19,0.03,2.38-0.43,2.38-0.43S363.9,422.21,362.71,422.18z"/>
						</g>
						<g>
							<path style="fill:#ADAFB3;" d="M359.92,421.05c-1.14-0.06-2.37,0.32-2.37,0.32s0.62,0.49,1.76,0.55s2.37-0.32,2.37-0.32
								S361.06,421.11,359.92,421.05z"/>
						</g>
						<g>
							<path style="fill:#ADAFB3;" d="M358.76,418.67c0,0-0.09-0.48-0.94-0.75c-0.85-0.27-2.15-0.23-2.15-0.23s0.09,0.48,0.94,0.75
								C357.46,418.71,358.76,418.67,358.76,418.67z"/>
						</g>
						<g>
							<path style="fill:#ADAFB3;" d="M377.86,422.09c-1.19,0.03-1.93,0.55-1.93,0.55s1.19,0.46,2.38,0.43
								c1.19-0.03,1.93-0.55,1.93-0.55S379.05,422.06,377.86,422.09z"/>
						</g>
						<g>
							<path style="fill:#ADAFB3;" d="M380.65,420.96c-1.14,0.06-1.76,0.55-1.76,0.55s1.23,0.38,2.37,0.32
								c1.14-0.06,1.76-0.55,1.76-0.55S381.79,420.9,380.65,420.96z"/>
						</g>
						<g>
							<path style="fill:#ADAFB3;" d="M381.85,419.57c-0.27,0.05-0.49,0.11-0.67,0.19c0.32-0.39,0.53-0.81,0.63-1.24l0,0
								c0,0,0,0,0,0c0.02-0.09,0.04-0.19,0.05-0.28c0.06-0.51-0.03-1.01-0.26-1.48c0.18-0.06,1-0.35,1.3-0.73
								c0.34-0.43-0.11-0.82-0.11-0.82s-1,0.31-1.33,0.74c-0.1,0.13-0.13,0.25-0.12,0.36c-0.32-0.46-0.78-0.88-1.37-1.28
								c0.03,0.01,0.05,0.02,0.05,0.02s0.38-0.46,0.15-0.89c-0.23-0.44-0.99-0.69-0.99-0.69s-0.38,0.46-0.14,0.89
								c0.04,0.07,0.09,0.14,0.15,0.2c-0.64-0.34-1.38-0.64-2.22-0.91c-0.19-0.14-0.6-0.4-1.21-0.55c-0.86-0.22-1.77-0.13-1.77-0.13
								s0.47,0.44,1.33,0.65c0.74,0.18,1.51,0.15,1.72,0.13c0.83,0.27,1.57,0.59,2.2,0.94c-0.22-0.08-0.48-0.16-0.78-0.22
								c-0.91-0.16-1.79-0.02-1.79-0.02s0.59,0.41,1.5,0.57c0.72,0.13,1.41,0.07,1.68,0.04c0.73,0.49,1.26,1.03,1.58,1.61
								c-0.16-0.17-0.52-0.5-1.11-0.69c-0.82-0.26-1.75-0.17-1.75-0.17s0.39,0.53,1.2,0.79c0.73,0.24,1.55,0.19,1.72,0.17
								c0.23,0.47,0.32,0.96,0.26,1.46c0,0.02-0.01,0.03-0.01,0.05c-0.11-0.2-0.34-0.5-0.77-0.7c-0.73-0.34-1.76-0.3-1.76-0.3
								s0.14,0.6,0.87,0.94c0.56,0.26,1.3,0.3,1.61,0.3c-0.11,0.48-0.36,0.94-0.74,1.36c-0.09,0.05-0.16,0.1-0.22,0.15
								c0.09-0.21,0.2-0.61-0.11-0.93c-0.43-0.46-1.54-0.58-1.54-0.58s-0.4,0.61,0.04,1.07c0.37,0.39,1.21,0.53,1.46,0.57
								c-0.05,0.05-0.07,0.08-0.07,0.08s0.03,0,0.07,0.01c-0.48,0.43-1.09,0.83-1.83,1.18c0.12-0.14,0.51-0.66,0.22-1.1
								c-0.34-0.51-1.49-0.7-1.49-0.7s-0.59,0.63-0.25,1.13c0.31,0.46,1.28,0.66,1.46,0.69c-0.83,0.39-1.82,0.72-2.94,0.99
								c0.15-0.09,0.94-0.6,0.85-1.09c-0.1-0.55-1.23-0.88-1.23-0.88s-0.98,0.56-0.88,1.11c0.09,0.51,1.07,0.83,1.21,0.87
								c-0.81,0.19-1.69,0.35-2.64,0.47l0.04,0.06c2.47-0.31,4.59-0.9,6.12-1.71c0.59-0.31,1.09-0.65,1.49-1.02
								c0.41,0.05,1.34,0.15,2.11,0.02c1.02-0.17,1.36-0.67,1.36-0.67S382.87,419.4,381.85,419.57z"/>
						</g>
						<g>
							<path style="fill:#ADAFB3;" d="M382.75,417.84c-0.85,0.27-0.94,0.75-0.94,0.75s1.3,0.04,2.15-0.23s0.94-0.75,0.94-0.75
								S383.6,417.57,382.75,417.84z"/>
						</g>
					</g>
					<g>
						<ellipse style="fill:#ADAFB3;" cx="370.29" cy="418.02" rx="5.08" ry="2.34"/>
					</g>
				</g>
			</g>
		</g>
		<g>
			<path style="fill:#FFFFFF;" d="M421.98,131.3c-0.81,0-1.57-0.31-2.14-0.89c-1.18-1.18-1.18-3.1,0-4.28
				c0.57-0.57,1.33-0.89,2.14-0.89c0.81,0,1.57,0.31,2.14,0.89l0,0c1.18,1.18,1.18,3.1,0,4.28
				C423.55,130.98,422.79,131.3,421.98,131.3z M421.98,125.98c-0.61,0-1.19,0.24-1.62,0.67c-0.9,0.9-0.9,2.35,0,3.25
				c0.43,0.43,1.01,0.67,1.62,0.67c0.61,0,1.19-0.24,1.62-0.67c0.9-0.9,0.9-2.35,0-3.25C423.17,126.21,422.59,125.98,421.98,125.98z
				"/>
			<polygon style="fill:#FFFFFF;" points="425.9,132.72 423.6,130.41 424.12,129.89 426.41,132.21 			"/>
			<path style="fill:#FFFFFF;" d="M426.92,133.23L426.92,133.23c-0.26,0.26-0.67,0.26-0.93,0l-1.92-1.92l0.93-0.93l1.92,1.92
				C427.18,132.56,427.18,132.98,426.92,133.23z"/>
		</g>
		<g>
			<defs>
				<filter id="Adobe_OpacityMaskFilter_10_" filterUnits="userSpaceOnUse" x="410.88" y="372.18" width="229.5" height="81.69">
					<feFlood  style="flood-color:white;flood-opacity:1" result="back"/>
					<feBlend  in="SourceGraphic" in2="back" mode="normal"/>
				</filter>
			</defs>
			<mask maskUnits="userSpaceOnUse" x="410.88" y="372.18" width="229.5" height="81.69" id="SVGID_20_">
				<g style="filter:url(#Adobe_OpacityMaskFilter_10_);">
					<defs>
						<filter id="Adobe_OpacityMaskFilter_11_" filterUnits="userSpaceOnUse" x="410.88" y="372.18" width="229.5" height="81.69">
							<feFlood  style="flood-color:white;flood-opacity:1" result="back"/>
							<feBlend  in="SourceGraphic" in2="back" mode="normal"/>
						</filter>
					</defs>
					<mask maskUnits="userSpaceOnUse" x="410.88" y="372.18" width="229.5" height="81.69" id="SVGID_20_">
					</mask>
					<linearGradient id="SVGID_21_" gradientUnits="userSpaceOnUse" x1="462.0029" y1="438.4121" x2="646.6898" y2="349.7854">
						<stop  offset="4.277940e-03" style="stop-color:#FFFFFF"/>
						<stop  offset="1" style="stop-color:#000000"/>
					</linearGradient>
					<polygon style="mask:url(#SVGID_20_);fill:url(#SVGID_21_);" points="538.47,372.18 410.88,428.38 445.81,437.75 
						462.89,437.71 462.64,442.32 501.6,453.86 640.37,387.39 					"/>
				</g>
			</mask>
			<linearGradient id="SVGID_22_" gradientUnits="userSpaceOnUse" x1="462.0029" y1="438.4121" x2="646.6898" y2="349.7854">
				<stop  offset="4.277940e-03" style="stop-color:#0E7AA5"/>
				<stop  offset="1" style="stop-color:#FFFFFF"/>
			</linearGradient>
			<polygon style="opacity:0.5;fill:url(#SVGID_22_);" points="538.47,372.18 410.88,428.38 445.81,437.75 462.89,437.71 
				462.64,442.32 501.6,453.86 640.37,387.39 			"/>
			<g>
				<path style="fill:#E9FFF6;" d="M432.95,321.3c-0.4,0-0.74-0.3-0.79-0.71c-1.19-11.01,1.88-21.24,7.47-24.88
					c2.8-1.82,5.94-1.83,9.07-0.02c3.88,2.25,6.13,6.04,6.68,11.25c0.28,2.66,0.1,5.56-0.54,8.62c-0.02,0.09-0.03,0.15-0.04,0.2
					c-0.04,0.38-0.35,0.69-0.75,0.72c-0.44,0.02-0.81-0.31-0.83-0.75c-0.01-0.12,0.01-0.2,0.07-0.48c0.84-4.04,1.99-13.9-5.39-18.18
					c-2.61-1.52-5.11-1.52-7.41-0.03c-2.37,1.54-4.36,4.63-5.6,8.71c-1.32,4.34-1.72,9.42-1.15,14.67c0.05,0.44-0.27,0.83-0.7,0.87
					C433,321.3,432.98,321.3,432.95,321.3z M454.8,315.65C454.8,315.65,454.8,315.65,454.8,315.65
					C454.8,315.65,454.8,315.65,454.8,315.65z M454.8,315.65C454.8,315.65,454.8,315.65,454.8,315.65
					C454.8,315.65,454.8,315.65,454.8,315.65z"/>
				<g>
					<polygon style="fill:#189969;" points="416.64,319.64 438.09,326.01 466.85,316.26 491.43,307.93 471.15,309.44 466.3,307.93 
											"/>
					<polygon style="fill:#189969;" points="466.3,307.93 466.85,316.26 491.43,307.93 471.15,309.44 					"/>
					<polygon style="fill:#1AAB75;" points="437.85,322.54 445.81,437.75 410.88,427.83 416.64,319.64 432.95,320.51 					"/>
					<polygon style="fill:#21CC8D;" points="445.81,437.75 503.15,407.63 491.43,307.93 437.85,322.54 					"/>
					<polygon style="fill:#1EBD82;" points="432.95,320.51 429.87,420.4 445.81,437.75 437.85,322.54 					"/>
					<polygon style="fill:#21CC8D;" points="429.87,420.4 410.88,427.83 445.81,437.75 					"/>
				</g>
				<path style="fill:#E9FFF6;" d="M449.63,323.01c-0.4,0-0.74-0.3-0.79-0.71c-1.28-11.78,2-22.71,7.97-26.6
					c2.99-1.94,6.32-1.95,9.66-0.02c4.14,2.4,6.54,6.44,7.13,12.01c0.3,2.84,0.11,5.94-0.57,9.22c-0.02,0.1-0.04,0.17-0.04,0.21
					c-0.04,0.39-0.35,0.7-0.75,0.72c-0.44,0.03-0.81-0.31-0.83-0.75c-0.01-0.12,0.01-0.2,0.07-0.5c0.9-4.34,2.14-14.94-5.8-19.54
					c-2.78-1.61-5.55-1.62-8-0.03c-2.55,1.66-4.69,4.98-6.03,9.36c-1.42,4.66-1.85,10.1-1.24,15.74c0.05,0.44-0.27,0.83-0.7,0.87
					C449.69,323.01,449.66,323.01,449.63,323.01z M472.99,317.01C472.99,317.01,472.99,317.01,472.99,317.01
					C472.99,317.01,472.99,317.01,472.99,317.01z"/>
				<polygon style="fill:#1CB079;" points="492.04,315.17 452.2,326.01 458.19,431.25 503.15,407.63 				"/>
			</g>
			<g>
				<path style="fill:#E9FFF6;" d="M487.07,324.17c-0.44,0-0.82-0.33-0.87-0.78c-1.32-12.17,2.07-23.49,8.26-27.51
					c3.1-2.02,6.57-2.02,10.03-0.02c4.29,2.49,6.78,6.67,7.39,12.44c0.31,2.94,0.11,6.14-0.59,9.53c-0.02,0.1-0.04,0.17-0.04,0.22
					c-0.04,0.42-0.39,0.77-0.83,0.79c-0.48,0.03-0.9-0.34-0.92-0.83c-0.01-0.14,0.01-0.22,0.08-0.53c0.93-4.47,2.2-15.37-5.96-20.1
					c-2.89-1.68-5.65-1.69-8.19-0.03c-2.62,1.71-4.82,5.12-6.2,9.63c-1.46,4.8-1.91,10.41-1.27,16.22c0.05,0.48-0.3,0.91-0.78,0.97
					C487.13,324.17,487.1,324.17,487.07,324.17z M511.24,317.92C511.24,317.92,511.24,317.92,511.24,317.92
					C511.24,317.92,511.24,317.92,511.24,317.92z M511.24,317.92C511.24,317.92,511.24,317.92,511.24,317.92
					C511.24,317.92,511.24,317.92,511.24,317.92z"/>
				<g>
					<polygon style="fill:#2B8A8F;" points="469.04,322.34 492.76,329.38 524.55,318.6 551.74,309.39 529.31,311.06 523.95,309.39 
											"/>
					<polygon style="fill:#2B8A8F;" points="523.95,309.39 524.55,318.6 551.74,309.39 529.31,311.06 					"/>
					<polygon style="fill:#49C4CC;" points="492.5,325.54 501.29,452.94 462.67,441.97 469.04,322.34 487.07,323.29 					"/>
					<polygon style="fill:#74E2E8;" points="501.29,452.94 564.7,419.63 551.74,309.39 492.5,325.54 					"/>
					<polygon style="fill:#5AD0D6;" points="487.07,323.29 483.67,433.75 501.29,452.94 492.5,325.54 					"/>
					<polygon style="fill:#74E2E8;" points="483.67,433.75 462.67,441.97 501.29,452.94 					"/>
				</g>
				<path style="fill:#E9FFF6;" d="M505.52,326.06c-0.44,0-0.82-0.33-0.87-0.78c-1.41-13.02,2.21-25.11,8.82-29.41
					c3.3-2.15,6.99-2.15,10.68-0.02c4.58,2.65,7.23,7.12,7.88,13.28c0.33,3.14,0.12,6.57-0.63,10.19c-0.02,0.11-0.04,0.19-0.05,0.24
					c-0.04,0.43-0.39,0.77-0.83,0.79c-0.48,0.03-0.9-0.34-0.92-0.83c-0.01-0.14,0.01-0.22,0.08-0.56c1-4.8,2.36-16.52-6.41-21.6
					c-3.08-1.78-6.13-1.79-8.84-0.03c-2.82,1.84-5.19,5.51-6.66,10.35c-1.57,5.15-2.04,11.17-1.37,17.41
					c0.05,0.48-0.3,0.91-0.78,0.97C505.58,326.06,505.55,326.06,505.52,326.06z M531.35,319.43
					C531.35,319.43,531.35,319.43,531.35,319.43C531.35,319.43,531.35,319.43,531.35,319.43z"/>
			</g>
		</g>
	</g>
</g>
<g id="DESIGNED_BY_FREEPIK">
</g>
</svg>
