<?xml version="1.0" encoding="utf-8"?>
<!-- Generator: Adobe Illustrator 24.2.3, SVG Export Plug-In . SVG Version: 6.00 Build 0)  -->
<svg version="1.1" xmlns="http://www.w3.org/2000/svg" xmlns:xlink="http://www.w3.org/1999/xlink" x="0px" y="0px"
	 viewBox="0 0 750 500" style="enable-background:new 0 0 750 500;" xml:space="preserve">
<g id="BACKGROUND">
</g>
<g id="OBJECTS">
</g>
<g id="DESIGNED_BY_FREEPIK">
	<g>
		<g>
			<path style="fill:#DBDBDB;" d="M200.22,333.2c-7.49-14.82-1.55-32.91,13.26-40.4c14.82-7.49,32.91-1.55,40.4,13.26
				c7.49,14.82,1.55,32.91-13.26,40.4C225.8,353.96,207.71,348.02,200.22,333.2z"/>
			<path style="fill:#FFFFFF;" d="M242.85,319.81c-2.35,9.95-11.64,17.7-11.64,17.7s-11.76-2.85-18.25-10.74
				c-5.42-6.58-4.95-15.17,0.45-18.28c7.75-4.46,13.27,9.56,13.27,9.56s-1.24-15.02,7.69-14.44
				C240.59,304.01,244.8,311.51,242.85,319.81z"/>
		</g>
		<g>
			<path style="fill:#DBDBDB;" d="M565.02,418.54c-2.74,1.39-5.74,2.38-8.95,2.87c-8.3,1.29-16.32-0.94-22.55-5.59
				c-6.1-4.54-10.51-11.39-11.77-19.5c-2.54-16.42,8.69-31.78,25.11-34.32c16.41-2.55,31.77,8.69,34.32,25.11
				C583.22,400.32,576.33,412.84,565.02,418.54z"/>
			<g>
				<path style="fill:#FFFFFF;" d="M560.86,389.07c-0.43,5.03-4.86,8.77-9.9,8.33c-5.03-0.43-8.77-4.86-8.33-9.9
					c0.43-5.03,4.86-8.77,9.9-8.33C557.56,379.6,561.29,384.03,560.86,389.07z"/>
				<path style="fill:#FFFFFF;" d="M565.34,414.78l-0.32,3.76c-2.74,1.39-5.74,2.38-8.95,2.87c-8.3,1.29-16.32-0.94-22.55-5.59
					l0.32-3.75c0.75-8.68,8.4-15.15,17.11-14.4C559.64,398.43,566.08,406.11,565.34,414.78z"/>
			</g>
		</g>
		<g>
			<path style="fill:#EBEBEB;" d="M547.26,174.14h-3.56c-2.25,0-4.03-1.78-4.03-4.03c0-2.18,1.78-4.03,4.03-4.03h4.96l2.33-13.47
				h-4.5c-2.16,0-4.01-1.85-4.01-4.03c0-2.18,1.85-4.03,4.01-4.03h5.9l1.53-9.22c0.32-2.02,2.02-3.33,4.03-3.33
				c2.55,0,4.35,2.33,4.03,4.73l-1.38,7.81h12.15l1.55-9.22c0.32-2.02,2.02-3.33,4.11-3.33c2.48,0,4.33,2.33,3.95,4.73l-1.32,7.81
				h3.58c2.16,0,4.01,1.78,4.01,4.03c0,2.18-1.85,4.03-4.01,4.03h-4.96l-2.33,13.47h4.41c2.25,0,4.03,1.78,4.03,4.03
				c0,2.18-1.78,4.03-4.03,4.03h-5.81l-1.63,9.52c-0.3,1.95-2.01,3.33-4.03,3.33c-2.55,0-4.41-2.31-4.03-4.71l1.48-8.14h-12.17
				l-1.63,9.52c-0.3,1.72-1.78,3.33-4.09,3.33c-2.5,0-4.35-2.08-3.95-4.71L547.26,174.14z M569.04,166.08l2.33-13.47h-12.09
				l-2.33,13.47H569.04z"/>
		</g>
		<g>
			
				<ellipse transform="matrix(0.8166 -0.5772 0.5772 0.8166 41.6509 317.0559)" style="fill:#DBDBDB;" cx="519.7" cy="92.99" rx="33.03" ry="33.03"/>
			<g id="xsrjP0_1_">
				<g>
					<path style="fill-rule:evenodd;clip-rule:evenodd;fill:#FFFFFF;" d="M515.2,106.13c-0.87-0.55-1.63-1.35-2.8-1.23
						c-0.45,0.04-0.35-0.33-0.35-0.57c-0.01-4.4-0.01-8.8-0.01-13.2c0-0.32,0.02-0.58,0.37-0.76c3.36-1.69,4.82-5.03,6.88-7.88
						c2.2-3.04,2.96-6.34,2.44-9.98c-0.14-0.99,0.32-1.43,1.21-1.64c1.07-0.25,2.14,0.05,2.51,0.79c0.9,1.83,1.68,3.73,1.92,5.77
						c0.19,1.67-0.4,3.29-0.61,4.94c-0.15,1.21-0.43,2.4-0.66,3.63c0.29,0.21,0.64,0.1,0.95,0.11c3.72,0.01,7.43,0,11.15,0
						c1.57,0,2.33,0.45,2.55,1.49c0.27,1.3-0.42,2.61-1.62,3.22c-0.28,0.14-0.78,0.01-0.81,0.45c-0.03,0.44,0.48,0.4,0.74,0.58
						c1.34,0.92,1.1,2.83-0.46,3.93c-0.37,0.26-1.1,0.14-1.12,0.69c-0.01,0.44,0.67,0.43,0.98,0.74c1.09,1.07,0.55,3.08-1.08,3.89
						c-0.21,0.1-0.47,0.12-0.65,0.25c-0.18,0.12-0.37,0.26-0.01,0.52c1.61,1.15,1.57,2.75-0.05,3.92c-0.16,0.11-0.32,0.23-0.48,0.35
						c-0.59,0.43-1.28,0.43-1.96,0.43c-5.83,0.01-11.66,0.01-17.48,0C516.19,106.56,515.64,106.54,515.2,106.13z"/>
					<path style="fill-rule:evenodd;clip-rule:evenodd;fill:#FFFFFF;" d="M498.63,98.37c0-2.79,0.01-5.59-0.01-8.39
						c0-0.57,0.05-0.85,0.75-0.84c3.41,0.04,6.82,0.04,10.23,0c0.67-0.01,0.77,0.22,0.77,0.82c-0.02,5.63-0.02,11.25,0,16.87
						c0,0.72-0.19,0.92-0.91,0.91c-3.31-0.04-6.61-0.05-9.92,0.01c-0.82,0.01-0.94-0.28-0.93-1
						C498.66,103.96,498.63,101.17,498.63,98.37z"/>
				</g>
			</g>
		</g>
		<path style="fill:#EBEBEB;" d="M250.92,457.53c0,3.63-14.8,6.58-33.06,6.58s-33.06-2.95-33.06-6.58c0-3.63,14.8-6.58,33.06-6.58
			S250.92,453.9,250.92,457.53z"/>
		<polygon style="fill:#263238;" points="179.86,432.99 232.5,432.75 285.13,432.66 390.41,432.49 495.68,432.66 548.32,432.75 
			600.95,432.99 548.32,433.23 495.68,433.32 390.41,433.49 285.13,433.32 232.5,433.23 		"/>
		<g>
			<rect x="254.56" y="118.54" style="fill:#455A64;" width="271.69" height="338.99"/>
			<rect x="270" y="156.23" style="fill:#FFFFFF;" width="240.82" height="240.82"/>
			<g>
				<g>
					<path style="fill:#FFFFFF;" d="M281.62,144.05c-0.69,0.43-1.45,0.75-2.28,0.95c-2.14,0.52-4.29,0.12-6.02-0.96
						c-1.7-1.05-3-2.74-3.52-4.84c-1.03-4.24,1.56-8.51,5.79-9.54c4.23-1.04,8.5,1.56,9.54,5.79
						C285.97,138.87,284.45,142.3,281.62,144.05z"/>
					<g>
						<path style="fill:#37474F;" d="M279.87,136.43c0,1.33-1.08,2.4-2.4,2.4c-1.33,0-2.4-1.08-2.4-2.4c0-1.33,1.08-2.4,2.4-2.4
							C278.8,134.03,279.87,135.1,279.87,136.43z"/>
						<path style="fill:#37474F;" d="M281.62,143.05v0.99c-0.69,0.43-1.45,0.75-2.28,0.95c-2.14,0.52-4.29,0.12-6.02-0.96v-0.99
							c0-2.29,1.86-4.15,4.15-4.15S281.62,140.77,281.62,143.05z"/>
					</g>
				</g>
				<g>
					<path style="fill:#C7C7C7;" d="M505.93,136.44c0.41,0,0.74,0.34,0.74,0.74c0,0.41-0.34,0.73-0.74,0.73
						c-0.41,0-0.73-0.33-0.73-0.73C505.19,136.78,505.52,136.44,505.93,136.44z"/>
					<path style="fill:#C7C7C7;" d="M508.21,136.44c0.41,0,0.74,0.34,0.74,0.74c0,0.41-0.34,0.73-0.74,0.73
						c-0.41,0-0.73-0.33-0.73-0.73C507.48,136.78,507.8,136.44,508.21,136.44z"/>
					<path style="fill:#C7C7C7;" d="M510.49,136.44c0.41,0,0.74,0.34,0.74,0.74c0,0.41-0.34,0.73-0.74,0.73
						c-0.41,0-0.73-0.33-0.73-0.73C509.76,136.78,510.09,136.44,510.49,136.44z"/>
				</g>
				<rect x="294.53" y="135.4" style="fill:#37474F;" width="75.99" height="3.86"/>
			</g>
			<polygon style="fill:#37474F;" points="510.82,397.05 318.04,397.05 318.04,455.05 			"/>
			<g>
				<path style="fill:#FFC727;" d="M285.87,415.1c-1.02,1.88-2.73,3.64-4.2,4.93c-1.47,1.29-2.7,2.14-2.8,2.2h-0.74
					c-0.21-0.14-4.96-3.37-7-7.14c-1.43-2.63-1.63-5.56-0.49-7.47c0.73-1.22,1.9-1.89,3.3-1.89c2.31,0,3.78,1.63,4.56,3.21
					c0.78-1.59,2.24-3.21,4.55-3.21c1.41,0,2.58,0.67,3.31,1.89C287.5,409.54,287.3,412.47,285.87,415.1z"/>
				<g>
					<path style="fill:#C7C7C7;" d="M335.06,423.18l-1.17-0.23l-2.39-8.91l-5.52-6.03l0.49-1.11h19.48l0.53,1.06L335.06,423.18z
						 M327.97,408.22l4.61,5.04l0.15,0.28l2.08,7.76l9.8-13.07H327.97z"/>
					
						<rect x="330.78" y="409.97" transform="matrix(0.914 -0.4057 0.4057 0.914 -137.4289 172.8291)" style="fill:#C7C7C7;" width="16.48" height="1.32"/>
				</g>
				<path style="fill:#C7C7C7;" d="M305.64,422.34c-4.58,0-8.3-3.72-8.3-8.3c0-4.58,3.72-8.31,8.3-8.31c4.58,0,8.31,3.73,8.31,8.31
					c0,0.8-0.12,1.59-0.35,2.36l1.25,5.12l-0.79,0.8l-4.38-1.03C308.46,421.97,307.07,422.34,305.64,422.34z M305.64,407.04
					c-3.85,0-6.98,3.14-6.98,6.99c0,3.85,3.13,6.98,6.98,6.98c1.27,0,2.52-0.34,3.61-0.99l0.49-0.08l3.58,0.84l-1.04-4.25l0.01-0.36
					c0.22-0.7,0.34-1.42,0.34-2.14C312.63,410.18,309.5,407.04,305.64,407.04z"/>
				<path style="fill:#C7C7C7;" d="M499.49,422.21l-1.05-0.54v-14.12l0.66-0.66h11.47l0.66,0.66v14.12l-1.05,0.54l-5.35-4.85
					L499.49,422.21z M499.76,408.22v12.16l4.69-4.37h0.78l4.68,4.37v-12.16H499.76z"/>
			</g>
		</g>
		<g>
			<g>
				<g>
					<path style="fill:#263238;" d="M418.69,276.3c-0.04,0.42-0.38,0.82-0.82,0.82c-1.01-0.06-2.22-0.14-3.58-0.23
						c-2.09-8.7-4.65-15.73-4.09-13.04c0.81,3.89,1.07,9.36,0.58,12.79c-1.58-0.12-5.23-0.42-7.05-0.57
						c-0.84-14.94-2.96-26.22-3.18-22.85c-0.88,13.57-2.25,17.79-3.79,22.29c-17.02-1.44-39.31-3.56-55.38-5.44
						c-0.79-8.3-1.27-17.24-1.63-16.67c-2.79,4.27-4.25,10.8-4.97,15.88c-5.11-0.64-9.19-1.24-11.66-1.73c0,0-0.3-6.93-0.18-9.18
						c0.28-5.74,1.68-11.47,4.03-16.74c2.44-5.43,6.04-10.03,9.49-14.78c0.03-0.04,0.05-0.08,0.08-0.1c0-0.02,0.01-0.02,0.03-0.04
						c2.37-3.29,4.23-6.49,5.65-9.95c0.01-0.02,0.03-0.04,0.04-0.08c0.99-2.46,1.78-5.03,2.38-7.9c2.05-9.86,8.79-17.73,18.49-19.13
						c19.86-14.32,36.64-5,40.3,8.46c0.35,1.31,0.66,2.8,0.94,4.42l0.01,0.05c1.05,5.99,1.69,13.67,2.43,19.63
						c-0.01,0.02,0,0.03,0,0.03c-0.01,0.02-0.01,0.04,0.01,0.07l0,0.02c0.37,2.84,0.75,5.27,1.22,6.94
						C411.15,240.22,420.58,247.45,418.69,276.3z"/>
					<path style="fill:#263238;" d="M358.7,191.84c-6.56,2.4-10.94,6.58-12.85,13.72c-1.11,4.16-1.94,8.26-4.09,12.04
						c-2.22,3.91-5.32,6.94-8.5,9.96c-5.05,4.8-8.77,9.75-10.39,16.79c-1.64,7.15-2.41,15.74-0.86,22.82
						c0.01,0.04,0.07,0.03,0.06-0.01c-1.08-7.11,0.12-16.6,2.28-23.61c2.38-7.71,7.49-12.08,12.85-17.47
						c4.25-4.28,7.26-9.24,8.83-15.21c0.93-3.53,1.37-7.27,3.26-10.47c2.26-3.81,6.03-5.93,9.74-7.76
						C359.54,192.38,359.2,191.66,358.7,191.84z"/>
					<path style="fill:#263238;" d="M416.88,241.73c-3.59-6.21-7.47-11.61-9.08-18.94c-1.47-6.68-1.91-13.6-3.42-20.28
						c-0.02-0.11-0.18-0.09-0.16,0.03c2.14,11.79,1.34,23.3,7.39,33.77c3.29,5.69,6.63,11,8.43,17.54c1.89,6.88,2.19,13.81,1.42,21
						c-0.03,0.25,0.3,0.28,0.35,0.04C424.42,263.44,422.52,251.48,416.88,241.73z"/>
				</g>
				<g>
					<g>
						<path style="fill:#C95F50;" d="M392.69,281.13c31.94,33.48,71.65,103.43,63.79,117.35c-8.75,15.5-54.8-32.15-53.36-34.43
							c1.23-1.94-14.68-44.06-26.24-74.87C365.33,258.41,384.79,272.86,392.69,281.13z"/>
						<g>
							<path style="fill:#FFC727;" d="M431.82,321.27l-45.86,8.26c0,0-11.45-32.49-13.72-50.53c-1.27-10.11,4.67-10.53,12.14-5.15
								C410.55,292.64,431.82,321.27,431.82,321.27z"/>
							<path style="fill:#FFFFFF;" d="M382.44,284.7c-0.18,0.34-0.49,0.66-0.76,0.89c-0.27,0.23-0.49,0.39-0.51,0.4h-0.13
								c-0.04-0.03-0.9-0.61-1.27-1.29c-0.26-0.48-0.29-1.01-0.09-1.35c0.13-0.22,0.34-0.34,0.6-0.34c0.42,0,0.68,0.29,0.83,0.58
								c0.14-0.29,0.41-0.58,0.82-0.58c0.26,0,0.47,0.12,0.6,0.34C382.74,283.7,382.7,284.23,382.44,284.7z M396.62,283.56
								c-0.1,0.33-0.04,0.76,0.17,1.14c0.37,0.68,1.23,1.28,1.27,1.3h0.13c0.02-0.01,0.25-0.17,0.51-0.39
								c0.04-0.03,0.07-0.06,0.11-0.11C398.09,284.84,397.36,284.19,396.62,283.56z M374.02,272.4c-0.12-0.22-0.34-0.34-0.59-0.34
								c-0.15,0-0.27,0.03-0.38,0.09v0.01c-0.43,0.66-0.73,1.53-0.87,2.61c0.2,0.17,0.34,0.26,0.36,0.27h0.13
								c0.01-0.01,0.24-0.17,0.5-0.39c0.27-0.24,0.58-0.55,0.77-0.89C374.2,273.28,374.23,272.75,374.02,272.4z M382.53,305.17
								c-0.13-0.22-0.34-0.34-0.6-0.34c-0.42,0-0.68,0.29-0.82,0.58c-0.14-0.29-0.41-0.58-0.83-0.58c-0.25,0-0.47,0.12-0.6,0.34
								c-0.21,0.35-0.17,0.88,0.09,1.35c0.37,0.68,1.23,1.27,1.27,1.29h0.13c0.02-0.01,0.24-0.17,0.51-0.4
								c0.27-0.23,0.58-0.55,0.76-0.89C382.7,306.04,382.74,305.51,382.53,305.17z M399.55,305.17c-0.13-0.22-0.34-0.34-0.6-0.34
								c-0.42,0-0.68,0.29-0.82,0.58c-0.14-0.29-0.41-0.58-0.83-0.58c-0.25,0-0.47,0.12-0.6,0.34c-0.21,0.35-0.17,0.88,0.09,1.35
								c0.37,0.68,1.23,1.27,1.27,1.29h0.13c0.02-0.01,0.24-0.17,0.51-0.4c0.27-0.23,0.58-0.55,0.76-0.89
								C399.72,306.04,399.75,305.51,399.55,305.17z M416.56,305.17c-0.13-0.22-0.34-0.34-0.6-0.34c-0.42,0-0.68,0.29-0.82,0.58
								c-0.14-0.29-0.41-0.58-0.83-0.58c-0.25,0-0.47,0.12-0.6,0.34c-0.21,0.35-0.17,0.88,0.09,1.35c0.37,0.68,1.23,1.27,1.27,1.29
								h0.13c0.02-0.01,0.24-0.17,0.51-0.4c0.27-0.23,0.58-0.55,0.76-0.89C416.73,306.04,416.77,305.51,416.56,305.17z
								 M391.04,294.22c-0.13-0.22-0.34-0.34-0.6-0.34c-0.42,0-0.68,0.3-0.82,0.58c-0.14-0.29-0.41-0.58-0.83-0.58
								c-0.25,0-0.47,0.12-0.6,0.34c-0.21,0.35-0.17,0.88,0.09,1.35c0.37,0.68,1.23,1.27,1.27,1.29h0.13
								c0.02-0.01,0.24-0.17,0.51-0.4c0.27-0.23,0.58-0.55,0.76-0.89C391.21,295.1,391.24,294.57,391.04,294.22z M408.05,294.22
								c-0.13-0.22-0.34-0.34-0.6-0.34c-0.42,0-0.68,0.3-0.82,0.58c-0.14-0.29-0.41-0.58-0.83-0.58c-0.25,0-0.47,0.12-0.6,0.34
								c-0.21,0.35-0.17,0.88,0.09,1.35c0.37,0.68,1.23,1.27,1.27,1.29h0.13c0.02-0.01,0.24-0.17,0.51-0.4
								c0.27-0.23,0.58-0.55,0.76-0.89C408.22,295.1,408.26,294.57,408.05,294.22z M399.54,326.98c-0.13-0.22-0.34-0.34-0.6-0.34
								c-0.41,0-0.67,0.29-0.82,0.58c-0.15-0.29-0.4-0.58-0.83-0.58c-0.25,0-0.47,0.12-0.59,0.34c-0.1,0.18-0.15,0.39-0.13,0.63
								l3.01-0.54C399.58,327.04,399.56,327.01,399.54,326.98z M391.04,316.03c-0.13-0.22-0.34-0.34-0.6-0.34
								c-0.42,0-0.68,0.3-0.82,0.58c-0.14-0.29-0.41-0.58-0.83-0.58c-0.25,0-0.47,0.12-0.6,0.34c-0.21,0.35-0.17,0.88,0.09,1.35
								c0.37,0.68,1.23,1.27,1.27,1.29h0.13c0.02-0.01,0.24-0.17,0.51-0.4c0.27-0.23,0.58-0.55,0.76-0.89
								C391.21,316.91,391.24,316.38,391.04,316.03z M408.05,316.03c-0.13-0.22-0.34-0.34-0.6-0.34c-0.42,0-0.68,0.3-0.82,0.58
								c-0.14-0.29-0.41-0.58-0.83-0.58c-0.25,0-0.47,0.12-0.6,0.34c-0.21,0.35-0.17,0.88,0.09,1.35c0.37,0.68,1.23,1.27,1.27,1.29
								h0.13c0.02-0.01,0.24-0.17,0.51-0.4c0.27-0.23,0.58-0.55,0.76-0.89C408.22,316.91,408.26,316.38,408.05,316.03z
								 M425.07,316.03c-0.13-0.22-0.34-0.34-0.6-0.34c-0.42,0-0.68,0.3-0.82,0.58c-0.14-0.29-0.41-0.58-0.83-0.58
								c-0.25,0-0.47,0.12-0.6,0.34c-0.21,0.35-0.17,0.88,0.09,1.35c0.37,0.68,1.23,1.27,1.27,1.29h0.13
								c0.02-0.01,0.24-0.17,0.51-0.4c0.27-0.23,0.58-0.55,0.76-0.89C425.24,316.91,425.27,316.38,425.07,316.03z"/>
							<g>
								<g>
									<path style="fill:#263238;" d="M386.26,322.02c6.95-1.85,25.95-6.34,38.67-7.64c0.08-0.01,0.14,0.28,0.07,0.3
										c-10.42,2.68-31.56,6.52-38.64,7.77C386.22,322.47,386.13,322.05,386.26,322.02z"/>
								</g>
							</g>
							<path style="opacity:0.1;" d="M425.68,322.38l-39.72,7.15c0,0-11.44-32.49-13.71-50.53c-0.82-6.47,1.33-8.97,4.94-8.52
								L425.68,322.38z"/>
						</g>
					</g>
					<g>
						<path style="fill:#FFC727;" d="M411.31,397.11H295.09c0,0,10.57-81.08,48.01-123.71c10.1-11.5,28.42-8.1,37.08-0.31
							c2.16,1.95,5.15,5.36,8.43,9.57c7.87,10.12,20.73,34.41,21.93,40.98c1.99,10.86-7.63,22.59-7.63,22.59L411.31,397.11z"/>
						<path style="fill:#FFFFFF;" d="M348.41,284.7c-0.18,0.34-0.49,0.66-0.76,0.89c-0.27,0.23-0.49,0.39-0.51,0.4h-0.13
							c-0.04-0.03-0.9-0.61-1.27-1.29c-0.26-0.48-0.29-1.01-0.09-1.35c0.13-0.22,0.34-0.34,0.6-0.34c0.42,0,0.68,0.29,0.83,0.58
							c0.14-0.29,0.41-0.58,0.82-0.58c0.26,0,0.47,0.12,0.6,0.34C348.71,283.7,348.67,284.23,348.41,284.7z M365.52,283.35
							c-0.13-0.22-0.34-0.34-0.6-0.34c-0.42,0-0.68,0.29-0.82,0.58c-0.14-0.29-0.41-0.58-0.83-0.58c-0.25,0-0.47,0.12-0.6,0.34
							c-0.21,0.35-0.17,0.88,0.09,1.35c0.37,0.68,1.23,1.27,1.27,1.29h0.13c0.02-0.01,0.24-0.17,0.51-0.4
							c0.27-0.23,0.58-0.55,0.76-0.89C365.69,284.23,365.72,283.7,365.52,283.35z M382.53,283.35c-0.13-0.22-0.34-0.34-0.6-0.34
							c-0.42,0-0.68,0.29-0.82,0.58c-0.14-0.29-0.41-0.58-0.83-0.58c-0.25,0-0.47,0.12-0.6,0.34c-0.21,0.35-0.17,0.88,0.09,1.35
							c0.37,0.68,1.23,1.27,1.27,1.29h0.13c0.02-0.01,0.24-0.17,0.51-0.4c0.27-0.23,0.58-0.55,0.76-0.89
							C382.7,284.23,382.74,283.7,382.53,283.35z M357.01,272.4c-0.13-0.22-0.34-0.34-0.6-0.34c-0.42,0-0.68,0.29-0.82,0.58
							c-0.14-0.29-0.41-0.58-0.83-0.58c-0.25,0-0.47,0.12-0.6,0.34c-0.21,0.35-0.17,0.88,0.09,1.35c0.37,0.68,1.23,1.27,1.27,1.29
							h0.13c0.02-0.01,0.24-0.17,0.51-0.4c0.27-0.23,0.58-0.55,0.76-0.89C357.18,273.28,357.22,272.75,357.01,272.4z M374.02,272.4
							c-0.13-0.22-0.34-0.34-0.6-0.34c-0.42,0-0.68,0.29-0.82,0.58c-0.14-0.29-0.41-0.58-0.83-0.58c-0.25,0-0.47,0.12-0.6,0.34
							c-0.21,0.35-0.17,0.88,0.09,1.35c0.37,0.68,1.23,1.27,1.27,1.29h0.13c0.02-0.01,0.24-0.17,0.51-0.4
							c0.27-0.23,0.58-0.55,0.76-0.89C374.2,273.28,374.23,272.75,374.02,272.4z M331.49,305.17c-0.13-0.22-0.34-0.34-0.6-0.34
							c-0.42,0-0.68,0.29-0.82,0.58c-0.14-0.29-0.41-0.58-0.83-0.58c-0.25,0-0.47,0.12-0.6,0.34c-0.21,0.35-0.17,0.88,0.09,1.35
							c0.37,0.68,1.23,1.27,1.27,1.29h0.13c0.02-0.01,0.24-0.17,0.51-0.4c0.27-0.23,0.58-0.55,0.76-0.89
							C331.66,306.04,331.7,305.51,331.49,305.17z M348.5,305.17c-0.13-0.22-0.34-0.34-0.6-0.34c-0.42,0-0.68,0.29-0.82,0.58
							c-0.14-0.29-0.41-0.58-0.83-0.58c-0.25,0-0.47,0.12-0.6,0.34c-0.21,0.35-0.17,0.88,0.09,1.35c0.37,0.68,1.23,1.27,1.27,1.29
							h0.13c0.02-0.01,0.24-0.17,0.51-0.4c0.27-0.23,0.58-0.55,0.76-0.89C348.67,306.04,348.71,305.51,348.5,305.17z M365.52,305.17
							c-0.13-0.22-0.34-0.34-0.6-0.34c-0.42,0-0.68,0.29-0.82,0.58c-0.14-0.29-0.41-0.58-0.83-0.58c-0.25,0-0.47,0.12-0.6,0.34
							c-0.21,0.35-0.17,0.88,0.09,1.35c0.37,0.68,1.23,1.27,1.27,1.29h0.13c0.02-0.01,0.24-0.17,0.51-0.4
							c0.27-0.23,0.58-0.55,0.76-0.89C365.69,306.04,365.72,305.51,365.52,305.17z M382.53,305.17c-0.13-0.22-0.34-0.34-0.6-0.34
							c-0.42,0-0.68,0.29-0.82,0.58c-0.14-0.29-0.41-0.58-0.83-0.58c-0.25,0-0.47,0.12-0.6,0.34c-0.21,0.35-0.17,0.88,0.09,1.35
							c0.37,0.68,1.23,1.27,1.27,1.29h0.13c0.02-0.01,0.24-0.17,0.51-0.4c0.27-0.23,0.58-0.55,0.76-0.89
							C382.7,306.04,382.74,305.51,382.53,305.17z M399.55,305.17c-0.13-0.22-0.34-0.34-0.6-0.34c-0.42,0-0.68,0.29-0.82,0.58
							c-0.14-0.29-0.41-0.58-0.83-0.58c-0.25,0-0.47,0.12-0.6,0.34c-0.21,0.35-0.17,0.88,0.09,1.35c0.37,0.68,1.23,1.27,1.27,1.29
							h0.13c0.02-0.01,0.24-0.17,0.51-0.4c0.27-0.23,0.58-0.55,0.76-0.89C399.72,306.04,399.75,305.51,399.55,305.17z M340,294.22
							c-0.13-0.22-0.34-0.34-0.6-0.34c-0.42,0-0.68,0.3-0.82,0.58c-0.14-0.29-0.41-0.58-0.83-0.58c-0.25,0-0.47,0.12-0.6,0.34
							c-0.21,0.35-0.17,0.88,0.09,1.35c0.37,0.68,1.23,1.27,1.27,1.29h0.13c0.02-0.01,0.24-0.17,0.51-0.4
							c0.27-0.23,0.58-0.55,0.76-0.89C340.17,295.1,340.2,294.57,340,294.22z M357.01,294.22c-0.13-0.22-0.34-0.34-0.6-0.34
							c-0.42,0-0.68,0.3-0.82,0.58c-0.14-0.29-0.41-0.58-0.83-0.58c-0.25,0-0.47,0.12-0.6,0.34c-0.21,0.35-0.17,0.88,0.09,1.35
							c0.37,0.68,1.23,1.27,1.27,1.29h0.13c0.02-0.01,0.24-0.17,0.51-0.4c0.27-0.23,0.58-0.55,0.76-0.89
							C357.18,295.1,357.22,294.57,357.01,294.22z M374.02,294.22c-0.13-0.22-0.34-0.34-0.6-0.34c-0.42,0-0.68,0.3-0.82,0.58
							c-0.14-0.29-0.41-0.58-0.83-0.58c-0.25,0-0.47,0.12-0.6,0.34c-0.21,0.35-0.17,0.88,0.09,1.35c0.37,0.68,1.23,1.27,1.27,1.29
							h0.13c0.02-0.01,0.24-0.17,0.51-0.4c0.27-0.23,0.58-0.55,0.76-0.89C374.2,295.1,374.23,294.57,374.02,294.22z M391.04,294.22
							c-0.13-0.22-0.34-0.34-0.6-0.34c-0.42,0-0.68,0.3-0.82,0.58c-0.14-0.29-0.41-0.58-0.83-0.58c-0.25,0-0.47,0.12-0.6,0.34
							c-0.21,0.35-0.17,0.88,0.09,1.35c0.37,0.68,1.23,1.27,1.27,1.29h0.13c0.02-0.01,0.24-0.17,0.51-0.4
							c0.27-0.23,0.58-0.55,0.76-0.89C391.21,295.1,391.24,294.57,391.04,294.22z M314.47,326.98c-0.12-0.22-0.34-0.34-0.59-0.34
							c-0.43,0-0.68,0.29-0.83,0.58c-0.02-0.03-0.03-0.07-0.05-0.1c-0.25,0.64-0.49,1.28-0.72,1.92v0.01
							c0.34,0.33,0.68,0.57,0.71,0.58h0.13c0.01-0.01,0.24-0.17,0.51-0.39c0.26-0.24,0.57-0.56,0.76-0.89
							C314.65,327.86,314.68,327.33,314.47,326.98z M331.49,326.98c-0.13-0.22-0.34-0.34-0.6-0.34c-0.42,0-0.68,0.29-0.82,0.58
							c-0.14-0.29-0.41-0.58-0.83-0.58c-0.25,0-0.47,0.12-0.6,0.34c-0.21,0.35-0.17,0.88,0.09,1.35c0.37,0.68,1.23,1.27,1.27,1.29
							h0.13c0.02-0.01,0.24-0.17,0.51-0.4c0.27-0.23,0.58-0.55,0.76-0.89C331.66,327.86,331.7,327.33,331.49,326.98z M348.5,326.98
							c-0.13-0.22-0.34-0.34-0.6-0.34c-0.42,0-0.68,0.29-0.82,0.58c-0.14-0.29-0.41-0.58-0.83-0.58c-0.25,0-0.47,0.12-0.6,0.34
							c-0.21,0.35-0.17,0.88,0.09,1.35c0.37,0.68,1.23,1.27,1.27,1.29h0.13c0.02-0.01,0.24-0.17,0.51-0.4
							c0.27-0.23,0.58-0.55,0.76-0.89C348.67,327.86,348.71,327.33,348.5,326.98z M365.52,326.98c-0.13-0.22-0.34-0.34-0.6-0.34
							c-0.42,0-0.68,0.29-0.82,0.58c-0.14-0.29-0.41-0.58-0.83-0.58c-0.25,0-0.47,0.12-0.6,0.34c-0.21,0.35-0.17,0.88,0.09,1.35
							c0.37,0.68,1.23,1.27,1.27,1.29h0.13c0.02-0.01,0.24-0.17,0.51-0.4c0.27-0.23,0.58-0.55,0.76-0.89
							C365.69,327.86,365.72,327.33,365.52,326.98z M382.53,326.98c-0.13-0.22-0.34-0.34-0.6-0.34c-0.42,0-0.68,0.29-0.82,0.58
							c-0.14-0.29-0.41-0.58-0.83-0.58c-0.25,0-0.47,0.12-0.6,0.34c-0.21,0.35-0.17,0.88,0.09,1.35c0.37,0.68,1.23,1.27,1.27,1.29
							h0.13c0.02-0.01,0.24-0.17,0.51-0.4c0.27-0.23,0.58-0.55,0.76-0.89C382.7,327.86,382.74,327.33,382.53,326.98z M399.55,326.98
							c-0.13-0.22-0.34-0.34-0.6-0.34c-0.42,0-0.68,0.29-0.82,0.58c-0.14-0.29-0.41-0.58-0.83-0.58c-0.25,0-0.47,0.12-0.6,0.34
							c-0.21,0.35-0.17,0.88,0.09,1.35c0.37,0.68,1.23,1.27,1.27,1.29h0.13c0.02-0.01,0.24-0.17,0.51-0.4
							c0.27-0.23,0.58-0.55,0.76-0.89C399.72,327.86,399.75,327.33,399.55,326.98z M322.98,316.03c-0.13-0.22-0.34-0.34-0.6-0.34
							c-0.42,0-0.68,0.3-0.82,0.58c-0.14-0.29-0.41-0.58-0.83-0.58c-0.25,0-0.47,0.12-0.6,0.34c-0.21,0.35-0.17,0.88,0.09,1.35
							c0.37,0.68,1.23,1.27,1.27,1.29h0.13c0.02-0.01,0.24-0.17,0.51-0.4c0.27-0.23,0.58-0.55,0.76-0.89
							C323.15,316.91,323.19,316.38,322.98,316.03z M340,316.03c-0.13-0.22-0.34-0.34-0.6-0.34c-0.42,0-0.68,0.3-0.82,0.58
							c-0.14-0.29-0.41-0.58-0.83-0.58c-0.25,0-0.47,0.12-0.6,0.34c-0.21,0.35-0.17,0.88,0.09,1.35c0.37,0.68,1.23,1.27,1.27,1.29
							h0.13c0.02-0.01,0.24-0.17,0.51-0.4c0.27-0.23,0.58-0.55,0.76-0.89C340.17,316.91,340.2,316.38,340,316.03z M357.01,316.03
							c-0.13-0.22-0.34-0.34-0.6-0.34c-0.42,0-0.68,0.3-0.82,0.58c-0.14-0.29-0.41-0.58-0.83-0.58c-0.25,0-0.47,0.12-0.6,0.34
							c-0.21,0.35-0.17,0.88,0.09,1.35c0.37,0.68,1.23,1.27,1.27,1.29h0.13c0.02-0.01,0.24-0.17,0.51-0.4
							c0.27-0.23,0.58-0.55,0.76-0.89C357.18,316.91,357.22,316.38,357.01,316.03z M374.02,316.03c-0.13-0.22-0.34-0.34-0.6-0.34
							c-0.42,0-0.68,0.3-0.82,0.58c-0.14-0.29-0.41-0.58-0.83-0.58c-0.25,0-0.47,0.12-0.6,0.34c-0.21,0.35-0.17,0.88,0.09,1.35
							c0.37,0.68,1.23,1.27,1.27,1.29h0.13c0.02-0.01,0.24-0.17,0.51-0.4c0.27-0.23,0.58-0.55,0.76-0.89
							C374.2,316.91,374.23,316.38,374.02,316.03z M391.04,316.03c-0.13-0.22-0.34-0.34-0.6-0.34c-0.42,0-0.68,0.3-0.82,0.58
							c-0.14-0.29-0.41-0.58-0.83-0.58c-0.25,0-0.47,0.12-0.6,0.34c-0.21,0.35-0.17,0.88,0.09,1.35c0.37,0.68,1.23,1.27,1.27,1.29
							h0.13c0.02-0.01,0.24-0.17,0.51-0.4c0.27-0.23,0.58-0.55,0.76-0.89C391.21,316.91,391.24,316.38,391.04,316.03z
							 M407.65,315.72c-0.06-0.02-0.12-0.03-0.2-0.03c-0.43,0-0.68,0.3-0.83,0.58c-0.15-0.28-0.4-0.58-0.83-0.58
							c-0.25,0-0.46,0.12-0.59,0.34c-0.21,0.35-0.18,0.88,0.08,1.36c0.37,0.68,1.23,1.27,1.28,1.3h0.13c0.01-0.02,0.24-0.17,0.5-0.4
							c0.27-0.23,0.58-0.55,0.77-0.89c0.09-0.18,0.16-0.35,0.19-0.52v-0.01L407.65,315.72z M314.48,348.8
							c-0.13-0.22-0.34-0.34-0.6-0.34c-0.42,0-0.68,0.3-0.82,0.58c-0.14-0.29-0.41-0.58-0.83-0.58c-0.25,0-0.47,0.12-0.6,0.34
							c-0.21,0.35-0.17,0.88,0.09,1.35c0.37,0.68,1.23,1.27,1.27,1.29h0.13c0.02-0.01,0.24-0.17,0.51-0.4
							c0.27-0.23,0.58-0.55,0.76-0.89C314.65,349.68,314.68,349.15,314.48,348.8z M331.49,348.8c-0.13-0.22-0.34-0.34-0.6-0.34
							c-0.42,0-0.68,0.3-0.82,0.58c-0.14-0.29-0.41-0.58-0.83-0.58c-0.25,0-0.47,0.12-0.6,0.34c-0.21,0.35-0.17,0.88,0.09,1.35
							c0.37,0.68,1.23,1.27,1.27,1.29h0.13c0.02-0.01,0.24-0.17,0.51-0.4c0.27-0.23,0.58-0.55,0.76-0.89
							C331.66,349.68,331.7,349.15,331.49,348.8z M348.5,348.8c-0.13-0.22-0.34-0.34-0.6-0.34c-0.42,0-0.68,0.3-0.82,0.58
							c-0.14-0.29-0.41-0.58-0.83-0.58c-0.25,0-0.47,0.12-0.6,0.34c-0.21,0.35-0.17,0.88,0.09,1.35c0.37,0.68,1.23,1.27,1.27,1.29
							h0.13c0.02-0.01,0.24-0.17,0.51-0.4c0.27-0.23,0.58-0.55,0.76-0.89C348.67,349.68,348.71,349.15,348.5,348.8z M365.52,348.8
							c-0.13-0.22-0.34-0.34-0.6-0.34c-0.42,0-0.68,0.3-0.82,0.58c-0.14-0.29-0.41-0.58-0.83-0.58c-0.25,0-0.47,0.12-0.6,0.34
							c-0.21,0.35-0.17,0.88,0.09,1.35c0.37,0.68,1.23,1.27,1.27,1.29h0.13c0.02-0.01,0.24-0.17,0.51-0.4
							c0.27-0.23,0.58-0.55,0.76-0.89C365.69,349.68,365.72,349.15,365.52,348.8z M382.53,348.8c-0.13-0.22-0.34-0.34-0.6-0.34
							c-0.42,0-0.68,0.3-0.82,0.58c-0.14-0.29-0.41-0.58-0.83-0.58c-0.25,0-0.47,0.12-0.6,0.34c-0.21,0.35-0.17,0.88,0.09,1.35
							c0.37,0.68,1.23,1.27,1.27,1.29h0.13c0.02-0.01,0.24-0.17,0.51-0.4c0.27-0.23,0.58-0.55,0.76-0.89
							C382.7,349.68,382.74,349.15,382.53,348.8z M399.55,348.8c-0.13-0.22-0.34-0.34-0.6-0.34c-0.42,0-0.68,0.3-0.82,0.58
							c-0.14-0.29-0.41-0.58-0.83-0.58c-0.25,0-0.47,0.12-0.6,0.34c-0.21,0.35-0.17,0.88,0.09,1.35c0.37,0.68,1.23,1.27,1.27,1.29
							h0.13c0.02-0.01,0.24-0.17,0.51-0.4c0.27-0.23,0.58-0.55,0.76-0.89C399.72,349.68,399.75,349.15,399.55,348.8z M322.98,337.85
							c-0.13-0.22-0.34-0.34-0.6-0.34c-0.42,0-0.68,0.29-0.82,0.58c-0.14-0.29-0.41-0.58-0.83-0.58c-0.25,0-0.47,0.12-0.6,0.34
							c-0.21,0.35-0.17,0.88,0.09,1.35c0.37,0.68,1.23,1.27,1.27,1.29h0.13c0.02-0.01,0.24-0.17,0.51-0.4
							c0.27-0.23,0.58-0.55,0.76-0.89C323.15,338.73,323.19,338.2,322.98,337.85z M340,337.85c-0.13-0.22-0.34-0.34-0.6-0.34
							c-0.42,0-0.68,0.29-0.82,0.58c-0.14-0.29-0.41-0.58-0.83-0.58c-0.25,0-0.47,0.12-0.6,0.34c-0.21,0.35-0.17,0.88,0.09,1.35
							c0.37,0.68,1.23,1.27,1.27,1.29h0.13c0.02-0.01,0.24-0.17,0.51-0.4c0.27-0.23,0.58-0.55,0.76-0.89
							C340.17,338.73,340.2,338.2,340,337.85z M357.01,337.85c-0.13-0.22-0.34-0.34-0.6-0.34c-0.42,0-0.68,0.29-0.82,0.58
							c-0.14-0.29-0.41-0.58-0.83-0.58c-0.25,0-0.47,0.12-0.6,0.34c-0.21,0.35-0.17,0.88,0.09,1.35c0.37,0.68,1.23,1.27,1.27,1.29
							h0.13c0.02-0.01,0.24-0.17,0.51-0.4c0.27-0.23,0.58-0.55,0.76-0.89C357.18,338.73,357.22,338.2,357.01,337.85z M374.02,337.85
							c-0.13-0.22-0.34-0.34-0.6-0.34c-0.42,0-0.68,0.29-0.82,0.58c-0.14-0.29-0.41-0.58-0.83-0.58c-0.25,0-0.47,0.12-0.6,0.34
							c-0.21,0.35-0.17,0.88,0.09,1.35c0.37,0.68,1.23,1.27,1.27,1.29h0.13c0.02-0.01,0.24-0.17,0.51-0.4
							c0.27-0.23,0.58-0.55,0.76-0.89C374.2,338.73,374.23,338.2,374.02,337.85z M391.04,337.85c-0.13-0.22-0.34-0.34-0.6-0.34
							c-0.42,0-0.68,0.29-0.82,0.58c-0.14-0.29-0.41-0.58-0.83-0.58c-0.25,0-0.47,0.12-0.6,0.34c-0.21,0.35-0.17,0.88,0.09,1.35
							c0.37,0.68,1.23,1.27,1.27,1.29h0.13c0.02-0.01,0.24-0.17,0.51-0.4c0.27-0.23,0.58-0.55,0.76-0.89
							C391.21,338.73,391.24,338.2,391.04,337.85z M407.46,337.51c-0.43,0-0.68,0.29-0.83,0.58c-0.15-0.29-0.4-0.58-0.83-0.58
							c-0.25,0-0.46,0.12-0.59,0.34c-0.21,0.34-0.18,0.88,0.08,1.35c0.37,0.68,1.23,1.28,1.28,1.3h0.13
							c0.45-0.82,0.9-1.71,1.34-2.65C407.91,337.63,407.71,337.51,407.46,337.51z M314.48,370.61c-0.13-0.22-0.34-0.34-0.6-0.34
							c-0.42,0-0.68,0.29-0.82,0.58c-0.14-0.29-0.41-0.58-0.83-0.58c-0.25,0-0.47,0.12-0.6,0.34c-0.21,0.35-0.17,0.88,0.09,1.35
							c0.37,0.68,1.23,1.27,1.27,1.29h0.13c0.02-0.01,0.24-0.17,0.51-0.4c0.27-0.23,0.58-0.55,0.76-0.89
							C314.65,371.49,314.68,370.96,314.48,370.61z M331.49,370.61c-0.13-0.22-0.34-0.34-0.6-0.34c-0.42,0-0.68,0.29-0.82,0.58
							c-0.14-0.29-0.41-0.58-0.83-0.58c-0.25,0-0.47,0.12-0.6,0.34c-0.21,0.35-0.17,0.88,0.09,1.35c0.37,0.68,1.23,1.27,1.27,1.29
							h0.13c0.02-0.01,0.24-0.17,0.51-0.4c0.27-0.23,0.58-0.55,0.76-0.89C331.66,371.49,331.7,370.96,331.49,370.61z M348.5,370.61
							c-0.13-0.22-0.34-0.34-0.6-0.34c-0.42,0-0.68,0.29-0.82,0.58c-0.14-0.29-0.41-0.58-0.83-0.58c-0.25,0-0.47,0.12-0.6,0.34
							c-0.21,0.35-0.17,0.88,0.09,1.35c0.37,0.68,1.23,1.27,1.27,1.29h0.13c0.02-0.01,0.24-0.17,0.51-0.4
							c0.27-0.23,0.58-0.55,0.76-0.89C348.67,371.49,348.71,370.96,348.5,370.61z M365.52,370.61c-0.13-0.22-0.34-0.34-0.6-0.34
							c-0.42,0-0.68,0.29-0.82,0.58c-0.14-0.29-0.41-0.58-0.83-0.58c-0.25,0-0.47,0.12-0.6,0.34c-0.21,0.35-0.17,0.88,0.09,1.35
							c0.37,0.68,1.23,1.27,1.27,1.29h0.13c0.02-0.01,0.24-0.17,0.51-0.4c0.27-0.23,0.58-0.55,0.76-0.89
							C365.69,371.49,365.72,370.96,365.52,370.61z M382.53,370.61c-0.13-0.22-0.34-0.34-0.6-0.34c-0.42,0-0.68,0.29-0.82,0.58
							c-0.14-0.29-0.41-0.58-0.83-0.58c-0.25,0-0.47,0.12-0.6,0.34c-0.21,0.35-0.17,0.88,0.09,1.35c0.37,0.68,1.23,1.27,1.27,1.29
							h0.13c0.02-0.01,0.24-0.17,0.51-0.4c0.27-0.23,0.58-0.55,0.76-0.89C382.7,371.49,382.74,370.96,382.53,370.61z M399.55,370.61
							c-0.13-0.22-0.34-0.34-0.6-0.34c-0.42,0-0.68,0.29-0.82,0.58c-0.14-0.29-0.41-0.58-0.83-0.58c-0.25,0-0.47,0.12-0.6,0.34
							c-0.21,0.35-0.17,0.88,0.09,1.35c0.37,0.68,1.23,1.27,1.27,1.29h0.13c0.02-0.01,0.24-0.17,0.51-0.4
							c0.27-0.23,0.58-0.55,0.76-0.89C399.72,371.49,399.75,370.96,399.55,370.61z M305.97,359.67c-0.13-0.22-0.34-0.34-0.6-0.34
							c-0.42,0-0.68,0.3-0.82,0.58c-0.14-0.29-0.41-0.58-0.83-0.58c-0.25,0-0.47,0.12-0.6,0.34c-0.21,0.35-0.17,0.88,0.09,1.35
							c0.37,0.68,1.23,1.27,1.27,1.29h0.13c0.02-0.01,0.24-0.17,0.51-0.4c0.27-0.23,0.58-0.55,0.76-0.89
							C306.14,360.55,306.17,360.01,305.97,359.67z M322.98,359.67c-0.13-0.22-0.34-0.34-0.6-0.34c-0.42,0-0.68,0.3-0.82,0.58
							c-0.14-0.29-0.41-0.58-0.83-0.58c-0.25,0-0.47,0.12-0.6,0.34c-0.21,0.35-0.17,0.88,0.09,1.35c0.37,0.68,1.23,1.27,1.27,1.29
							h0.13c0.02-0.01,0.24-0.17,0.51-0.4c0.27-0.23,0.58-0.55,0.76-0.89C323.15,360.55,323.19,360.01,322.98,359.67z M340,359.67
							c-0.13-0.22-0.34-0.34-0.6-0.34c-0.42,0-0.68,0.3-0.82,0.58c-0.14-0.29-0.41-0.58-0.83-0.58c-0.25,0-0.47,0.12-0.6,0.34
							c-0.21,0.35-0.17,0.88,0.09,1.35c0.37,0.68,1.23,1.27,1.27,1.29h0.13c0.02-0.01,0.24-0.17,0.51-0.4
							c0.27-0.23,0.58-0.55,0.76-0.89C340.17,360.55,340.2,360.01,340,359.67z M357.01,359.67c-0.13-0.22-0.34-0.34-0.6-0.34
							c-0.42,0-0.68,0.3-0.82,0.58c-0.14-0.29-0.41-0.58-0.83-0.58c-0.25,0-0.47,0.12-0.6,0.34c-0.21,0.35-0.17,0.88,0.09,1.35
							c0.37,0.68,1.23,1.27,1.27,1.29h0.13c0.02-0.01,0.24-0.17,0.51-0.4c0.27-0.23,0.58-0.55,0.76-0.89
							C357.18,360.55,357.22,360.01,357.01,359.67z M374.02,359.67c-0.13-0.22-0.34-0.34-0.6-0.34c-0.42,0-0.68,0.3-0.82,0.58
							c-0.14-0.29-0.41-0.58-0.83-0.58c-0.25,0-0.47,0.12-0.6,0.34c-0.21,0.35-0.17,0.88,0.09,1.35c0.37,0.68,1.23,1.27,1.27,1.29
							h0.13c0.02-0.01,0.24-0.17,0.51-0.4c0.27-0.23,0.58-0.55,0.76-0.89C374.2,360.55,374.23,360.01,374.02,359.67z M391.04,359.67
							c-0.13-0.22-0.34-0.34-0.6-0.34c-0.42,0-0.68,0.3-0.82,0.58c-0.14-0.29-0.41-0.58-0.83-0.58c-0.25,0-0.47,0.12-0.6,0.34
							c-0.21,0.35-0.17,0.88,0.09,1.35c0.37,0.68,1.23,1.27,1.27,1.29h0.13c0.02-0.01,0.24-0.17,0.51-0.4
							c0.27-0.23,0.58-0.55,0.76-0.89C391.21,360.55,391.24,360.01,391.04,359.67z M405.15,359.8c-0.15,0.34-0.09,0.8,0.13,1.22
							c0.03,0.06,0.06,0.11,0.1,0.17L405.15,359.8z M297.46,392.43c-0.13-0.22-0.34-0.34-0.6-0.34c-0.41,0-0.68,0.29-0.82,0.58
							c-0.05-0.1-0.12-0.22-0.22-0.31c-0.16,0.89-0.27,1.67-0.37,2.31c0.27,0.24,0.5,0.39,0.52,0.4h0.13
							c0.02-0.01,0.24-0.17,0.51-0.39c0.27-0.24,0.58-0.56,0.76-0.9C297.63,393.31,297.67,392.78,297.46,392.43z M314.48,392.43
							c-0.13-0.22-0.34-0.34-0.6-0.34c-0.42,0-0.68,0.3-0.82,0.58c-0.14-0.29-0.41-0.58-0.83-0.58c-0.25,0-0.47,0.12-0.6,0.34
							c-0.21,0.35-0.17,0.88,0.09,1.35c0.37,0.68,1.23,1.27,1.27,1.29h0.13c0.02-0.01,0.24-0.17,0.51-0.4
							c0.27-0.23,0.58-0.55,0.76-0.89C314.65,393.31,314.68,392.78,314.48,392.43z M331.49,392.43c-0.13-0.22-0.34-0.34-0.6-0.34
							c-0.42,0-0.68,0.3-0.82,0.58c-0.14-0.29-0.41-0.58-0.83-0.58c-0.25,0-0.47,0.12-0.6,0.34c-0.21,0.35-0.17,0.88,0.09,1.35
							c0.37,0.68,1.23,1.27,1.27,1.29h0.13c0.02-0.01,0.24-0.17,0.51-0.4c0.27-0.23,0.58-0.55,0.76-0.89
							C331.66,393.31,331.7,392.78,331.49,392.43z M348.5,392.43c-0.13-0.22-0.34-0.34-0.6-0.34c-0.42,0-0.68,0.3-0.82,0.58
							c-0.14-0.29-0.41-0.58-0.83-0.58c-0.25,0-0.47,0.12-0.6,0.34c-0.21,0.35-0.17,0.88,0.09,1.35c0.37,0.68,1.23,1.27,1.27,1.29
							h0.13c0.02-0.01,0.24-0.17,0.51-0.4c0.27-0.23,0.58-0.55,0.76-0.89C348.67,393.31,348.71,392.78,348.5,392.43z M365.52,392.43
							c-0.13-0.22-0.34-0.34-0.6-0.34c-0.42,0-0.68,0.3-0.82,0.58c-0.14-0.29-0.41-0.58-0.83-0.58c-0.25,0-0.47,0.12-0.6,0.34
							c-0.21,0.35-0.17,0.88,0.09,1.35c0.37,0.68,1.23,1.27,1.27,1.29h0.13c0.02-0.01,0.24-0.17,0.51-0.4
							c0.27-0.23,0.58-0.55,0.76-0.89C365.69,393.31,365.72,392.78,365.52,392.43z M382.53,392.43c-0.13-0.22-0.34-0.34-0.6-0.34
							c-0.42,0-0.68,0.3-0.82,0.58c-0.14-0.29-0.41-0.58-0.83-0.58c-0.25,0-0.47,0.12-0.6,0.34c-0.21,0.35-0.17,0.88,0.09,1.35
							c0.37,0.68,1.23,1.27,1.27,1.29h0.13c0.02-0.01,0.24-0.17,0.51-0.4c0.27-0.23,0.58-0.55,0.76-0.89
							C382.7,393.31,382.74,392.78,382.53,392.43z M399.55,392.43c-0.13-0.22-0.34-0.34-0.6-0.34c-0.42,0-0.68,0.3-0.82,0.58
							c-0.14-0.29-0.41-0.58-0.83-0.58c-0.25,0-0.47,0.12-0.6,0.34c-0.21,0.35-0.17,0.88,0.09,1.35c0.37,0.68,1.23,1.27,1.27,1.29
							h0.13c0.02-0.01,0.24-0.17,0.51-0.4c0.27-0.23,0.58-0.55,0.76-0.89C399.72,393.31,399.75,392.78,399.55,392.43z
							 M305.97,381.48c-0.13-0.22-0.34-0.34-0.6-0.34c-0.42,0-0.68,0.29-0.82,0.58c-0.14-0.29-0.41-0.58-0.83-0.58
							c-0.25,0-0.47,0.12-0.6,0.34c-0.21,0.35-0.17,0.88,0.09,1.35c0.37,0.68,1.23,1.27,1.27,1.29h0.13
							c0.02-0.01,0.24-0.17,0.51-0.4c0.27-0.23,0.58-0.55,0.76-0.89C306.14,382.36,306.17,381.83,305.97,381.48z M322.98,381.48
							c-0.13-0.22-0.34-0.34-0.6-0.34c-0.42,0-0.68,0.29-0.82,0.58c-0.14-0.29-0.41-0.58-0.83-0.58c-0.25,0-0.47,0.12-0.6,0.34
							c-0.21,0.35-0.17,0.88,0.09,1.35c0.37,0.68,1.23,1.27,1.27,1.29h0.13c0.02-0.01,0.24-0.17,0.51-0.4
							c0.27-0.23,0.58-0.55,0.76-0.89C323.15,382.36,323.19,381.83,322.98,381.48z M340,381.48c-0.13-0.22-0.34-0.34-0.6-0.34
							c-0.42,0-0.68,0.29-0.82,0.58c-0.14-0.29-0.41-0.58-0.83-0.58c-0.25,0-0.47,0.12-0.6,0.34c-0.21,0.35-0.17,0.88,0.09,1.35
							c0.37,0.68,1.23,1.27,1.27,1.29h0.13c0.02-0.01,0.24-0.17,0.51-0.4c0.27-0.23,0.58-0.55,0.76-0.89
							C340.17,382.36,340.2,381.83,340,381.48z M357.01,381.48c-0.13-0.22-0.34-0.34-0.6-0.34c-0.42,0-0.68,0.29-0.82,0.58
							c-0.14-0.29-0.41-0.58-0.83-0.58c-0.25,0-0.47,0.12-0.6,0.34c-0.21,0.35-0.17,0.88,0.09,1.35c0.37,0.68,1.23,1.27,1.27,1.29
							h0.13c0.02-0.01,0.24-0.17,0.51-0.4c0.27-0.23,0.58-0.55,0.76-0.89C357.18,382.36,357.22,381.83,357.01,381.48z
							 M374.02,381.48c-0.13-0.22-0.34-0.34-0.6-0.34c-0.42,0-0.68,0.29-0.82,0.58c-0.14-0.29-0.41-0.58-0.83-0.58
							c-0.25,0-0.47,0.12-0.6,0.34c-0.21,0.35-0.17,0.88,0.09,1.35c0.37,0.68,1.23,1.27,1.27,1.29h0.13
							c0.02-0.01,0.24-0.17,0.51-0.4c0.27-0.23,0.58-0.55,0.76-0.89C374.2,382.36,374.23,381.83,374.02,381.48z M391.04,381.48
							c-0.13-0.22-0.34-0.34-0.6-0.34c-0.42,0-0.68,0.29-0.82,0.58c-0.14-0.29-0.41-0.58-0.83-0.58c-0.25,0-0.47,0.12-0.6,0.34
							c-0.21,0.35-0.17,0.88,0.09,1.35c0.37,0.68,1.23,1.27,1.27,1.29h0.13c0.02-0.01,0.24-0.17,0.51-0.4
							c0.27-0.23,0.58-0.55,0.76-0.89C391.21,382.36,391.24,381.83,391.04,381.48z M408.05,381.48c-0.13-0.22-0.34-0.34-0.6-0.34
							c-0.42,0-0.68,0.29-0.82,0.58c-0.14-0.29-0.41-0.58-0.83-0.58c-0.25,0-0.47,0.12-0.6,0.34c-0.21,0.35-0.17,0.88,0.09,1.35
							c0.37,0.68,1.23,1.27,1.27,1.29h0.13c0.02-0.01,0.24-0.17,0.51-0.4c0.27-0.23,0.58-0.55,0.76-0.89
							C408.22,382.36,408.26,381.83,408.05,381.48z"/>
						<path style="fill:#263238;" d="M411.73,323.04c-1.08-4.48-3.56-8.57-5.75-12.58c-2.31-4.23-4.74-8.39-7.23-12.51
							c-0.09-0.15-0.18-0.29-0.27-0.44c-0.41-1.32-1.01-2.61-1.51-3.88c-0.64-1.64-1.33-3.26-1.97-4.9
							c-0.02-0.06-0.11-0.03-0.09,0.03c0.52,1.71,1.04,3.42,1.66,5.09c0.16,0.43,0.32,0.87,0.48,1.31
							c-0.84-1.38-1.69-2.75-2.56-4.11c-1.48-2.31-3.04-4.57-4.52-6.88c-0.04-0.06-0.12,0-0.09,0.06c2.37,4.05,4.65,8.16,7.02,12.22
							c2.37,4.05,4.68,8.14,6.9,12.28c1.1,2.05,2.16,4.12,3.19,6.21c0.98,1.98,1.95,3.97,2.67,6.06c1.42,4.11,1.38,8.31,0.09,12.44
							c-1.43,4.58-3.98,8.74-6.4,12.84c-0.1,0.17,0.16,0.36,0.28,0.2C408.72,339.81,413.84,331.82,411.73,323.04z"/>
					</g>
					<g>
						<g>
							<path style="fill:#C95F50;" d="M456.48,398.48c-7.49,10.34-27.43,12-77.24,20.89c-6.89,1.23-28.67-45.08-21.37-46.77
								c9.19-2.13,45.3-8.42,48-8.54C428.63,363,461.56,391.47,456.48,398.48z"/>
							<g>
								<path style="fill:#C95F50;" d="M367.84,370.51c0,0-21.09,2.83-31.71,7.74c-14.22,6.58-23.79,18.12-27.5,23.19
									c-7.76,10.6-19.2,41.58-10.85,46.43c7.56,4.39,17.65-27.87,17.65-27.87s-15.72,31.2-5.64,34.81
									c10.07,3.61,19.65-34.51,19.65-34.51s-15.43,32.42-4.45,34.5c8.3,1.57,18.92-32.46,18.92-32.46s-13.07,27.95-4.61,29.94
									c9.35,2.2,21.13-28.61,21.13-28.61c22.36,1.43,33.59-7.04,40.86-14.01C403.05,407.98,367.84,370.51,367.84,370.51z"/>
								<g>
									<path style="fill:#263238;" d="M320.17,408.86c-1.98,3.6-4.01,7.23-5.66,10.99c-1.65,3.76-3.17,7.58-4.47,11.48
										c-3.17,9.56-3.67,16.05-3.59,15.65c1.75-9.39,7.46-22.95,9.11-26.71c1.65-3.75,3.11-7.59,4.76-11.35
										C320.36,408.83,320.22,408.78,320.17,408.86z"/>
									<path style="fill:#263238;" d="M333.86,414.58c-2.33,4.7-4.81,9.29-6.93,14.1c-2.11,4.78-3.69,9.51-5.47,14.42
										c-0.14,0.38,0.11,0.33,0.26-0.05c1.97-4.84,4.17-9.17,6.19-13.98c2.02-4.8,3.87-9.72,6.06-14.44
										C334.02,414.55,333.9,414.51,333.86,414.58z"/>
									<path style="fill:#263238;" d="M346.5,417.38c-3.93,7.01-6.55,14.73-8.95,22.36c-0.12,0.38,0.19,0.28,0.34-0.1
										c2.83-7.49,5.01-13.39,8.86-22.12C346.8,417.38,346.58,417.23,346.5,417.38z"/>
								</g>
							</g>
						</g>
						<path style="fill:#263238;" d="M427.85,369.64c-3.31-2.1-12.69-7.02-21.91-5.66c-0.1,0.02-0.1,0.16,0,0.16
							c7.6-0.04,18.46,3.86,21.83,5.63C427.86,369.82,427.93,369.7,427.85,369.64z"/>
					</g>
				</g>
				<g>
					<g>
						<g>
							<g>
								<path style="fill:#C95F50;" d="M358.83,267.93c0.5,1.92,10.05,14.18,18.85,13.52c2.87-0.22,2.37-15.92,2.37-15.92l0.23-1.17
									l3.19-16.34l-19.41-11.72l-2.8-1.54c0,0-0.58,4.53-1.24,10.17c-0.03,0.26-0.06,0.52-0.09,0.8
									c-0.05,0.32-0.09,0.62-0.12,0.92c-0.11,0.84-0.22,1.7-0.31,2.56c-0.07,0.65-0.14,1.29-0.19,1.98
									c-0.07,0.69-0.12,1.36-0.19,2.05C358.59,260.07,358.63,267.11,358.83,267.93z"/>
								<path style="fill:#263238;" d="M360.01,244.94c5.01,12.8,15.48,17.78,20.27,19.43l3.19-16.34l-19.41-11.72l-2.8-1.54
									C361.25,234.76,360.68,239.29,360.01,244.94z"/>
							</g>
							<g>
								<path style="fill:#C95F50;" d="M407.63,220.17c4.71,28.84-12.03,34.91-18.25,35.92c-5.65,0.92-24.99,3.32-32.65-24.88
									c-7.66-28.2,4.25-39.5,17.05-42.28C386.59,186.16,402.92,191.34,407.63,220.17z"/>
								<g>
									<path style="fill:#263238;" d="M400.78,214.34c-0.69,0-1.33-0.12-2.01-0.2c-0.77-0.08-1.39-0.07-2.01-0.59
										c-0.33-0.28-0.38-0.91-0.14-1.26c0.56-0.81,1.53-0.94,2.46-0.88c1.01,0.07,1.77,0.38,2.51,1.07
										C402.31,213.15,401.69,214.34,400.78,214.34z"/>
									<path style="fill:#263238;" d="M382.1,216.56c0.67-0.16,1.27-0.41,1.92-0.63c0.73-0.25,1.34-0.37,1.83-1.02
										c0.26-0.34,0.17-0.97-0.14-1.26c-0.72-0.67-1.7-0.58-2.59-0.32c-0.97,0.29-1.64,0.76-2.21,1.59
										C380.35,215.73,381.21,216.76,382.1,216.56z"/>
									<g>
										<g>
											<path style="fill:#263238;" d="M386.78,223.45c-0.03-0.07-0.14,0.11-0.13,0.19c0.33,1.96,0.38,4.27-1.32,5.16
												c-0.05,0.03-0.03,0.13,0.03,0.11C387.5,228.32,387.41,225.26,386.78,223.45z"/>
											<path style="fill:#263238;" d="M384.75,221.63c-3.2,0.19-2.59,6.58,0.38,6.41C388.04,227.87,387.43,221.48,384.75,221.63
												z"/>
										</g>
										<path style="fill:#263238;" d="M383.52,222.09c-0.52,0.41-1.01,1.11-1.68,1.24c-0.77,0.15-1.42-0.46-1.99-1.06
											c-0.06-0.06-0.11,0-0.1,0.08c0.1,1.23,0.69,2.44,2.02,2.5c1.21,0.05,1.97-1.11,2.16-2.38
											C383.96,222.24,383.73,221.92,383.52,222.09z"/>
									</g>
									<g>
										<g>
											<path style="fill:#263238;" d="M398.12,221.51c0.01-0.08,0.16,0.08,0.17,0.16c0.11,1.99,0.57,4.24,2.42,4.75
												c0.06,0.02,0.06,0.12-0.01,0.11C398.49,226.42,397.91,223.41,398.12,221.51z"/>
											<path style="fill:#263238;" d="M399.71,219.29c3.17-0.52,3.98,5.85,1.04,6.33C397.87,226.1,397.06,219.73,399.71,219.29z
												"/>
										</g>
										<path style="fill:#263238;" d="M401.09,219.54c0.55,0.27,1.12,0.82,1.73,0.79c0.7-0.04,1.13-0.8,1.49-1.51
											c0.04-0.07,0.09-0.03,0.11,0.06c0.19,1.21-0.05,2.53-1.19,2.92c-1.04,0.35-1.96-0.6-2.4-1.77
											C400.74,219.79,400.87,219.43,401.09,219.54z"/>
									</g>
									<path style="fill:#263238;" d="M387.37,239.13c0.5,0.44,1.01,1.06,1.73,1.08c0.69,0.02,1.49-0.33,2.11-0.61
										c0.06-0.03,0.13,0.04,0.09,0.1c-0.48,0.79-1.54,1.32-2.47,1.2c-0.91-0.11-1.39-0.87-1.65-1.68
										C387.14,239.12,387.29,239.07,387.37,239.13z"/>
									<g>
										<path style="fill:#263238;" d="M395.74,230.67c0,0,0.73,2.92,0.88,4.32c0.01,0.13-4.22,1.53-7.58-1.47
											c-0.13-0.11,0.05-0.29,0.19-0.22c1.99,1.16,4.07,1.29,6.27,1.09c0.06-0.4-1.42-4.97-1.2-5.01
											c0.76-0.15,2.32,0.21,3.26,0.38c-1.34-6.14-3.66-12.01-4.9-18.13c-0.04-0.22,0.27-0.32,0.36-0.13
											c2.86,5.98,4.56,13.01,6.11,19.31C399.32,231.59,396.32,230.85,395.74,230.67z"/>
									</g>
									<g>
										<path style="fill:#263238;" d="M394.69,235.05c0,0-1.08,1.76-2.7,2.51c-0.6,0.28-1.26,0.42-1.97,0.3
											c-1.47-0.25-1.62-1.56-1.46-2.71c0.13-0.94,0.49-1.78,0.49-1.78S391.32,235.14,394.69,235.05z"/>
										<path style="fill:#FF9ABB;" d="M391.99,237.56c-0.6,0.28-1.26,0.42-1.97,0.3c-1.47-0.25-1.62-1.56-1.46-2.71
											C390.11,235.17,391.73,236.08,391.99,237.56z"/>
									</g>
								</g>
								<g>
									<g>
										<path style="fill:#263238;" d="M357.59,229.77c5.52,0.49,6.45-12.15,6.45-12.15s23.26-4.86,24.52-23.99
											c0,0,4.47,12,16.94,17.03c0,0-1.61-20.87-18.33-24.3c0,0-20.84-6.7-31.78,10.05
											C344.45,213.16,353.88,229.44,357.59,229.77z"/>
									</g>
									<path style="fill:#263238;" d="M388.59,192.21c0.42,2.9,0.11,5.9-0.71,8.74c-0.83,2.84-2.2,5.57-4.13,7.87
										c-0.43,0.61-1.02,1.09-1.52,1.64l-0.78,0.8c-0.28,0.24-0.58,0.47-0.87,0.7c-0.59,0.45-1.16,0.93-1.77,1.36
										c-0.63,0.39-1.27,0.76-1.92,1.13c-0.32,0.18-0.64,0.38-0.96,0.54l-1.02,0.44l-2.03,0.87c-1.4,0.45-2.82,0.82-4.23,1.17
										c1.32-0.64,2.68-1.13,3.97-1.77l1.9-1.02l0.95-0.5c0.3-0.19,0.59-0.4,0.89-0.6c0.59-0.41,1.17-0.81,1.77-1.2
										c0.56-0.43,1.09-0.92,1.63-1.37l0.81-0.68l0.73-0.77c0.47-0.53,1.02-0.99,1.42-1.57c1.85-2.15,3.17-4.69,4.19-7.34
										c0.5-1.33,0.88-2.72,1.16-4.12C388.37,195.1,388.53,193.67,388.59,192.21z"/>
								</g>
								<g>
									<g>
										<path style="fill:#C95F50;" d="M361.68,231.71c0,0-7.05-8.61-11-6.03c-3.96,2.58,1.82,15.4,6.8,16.84
											c4.98,1.44,6.4-3.15,6.4-3.15L361.68,231.71z"/>
										<path style="fill:#263238;" d="M352.42,229.31c-0.08,0-0.09,0.11-0.02,0.13c3.5,1.12,5.53,4.13,7.03,7.31
											c-1.11-1.18-2.53-1.77-4.13-0.44c-0.08,0.07,0.01,0.2,0.11,0.17c1.37-0.4,2.39-0.24,3.42,0.81
											c0.73,0.74,1.26,1.7,1.8,2.58c0.18,0.29,0.72,0.09,0.58-0.25c-0.01-0.02-0.02-0.05-0.03-0.08
											C360.93,235.2,357.1,229.39,352.42,229.31z"/>
									</g>
									<g>
										<path style="fill:#FFFFFF;" d="M360.21,241c0,0.65-0.53,1.19-1.19,1.19c-0.65,0-1.19-0.53-1.19-1.19
											c0-0.65,0.53-1.19,1.19-1.19C359.68,239.82,360.21,240.35,360.21,241z"/>
										<circle style="fill:#FFFFFF;" cx="356.44" cy="239.06" r="0.85"/>
									</g>
									<path style="fill:#FFC727;" d="M350.62,228.99l-1.8-0.15c-0.33-0.03-0.58-0.32-0.55-0.65l0-0.04
										c0.03-0.33,0.32-0.58,0.65-0.55l1.8,0.15c0.33,0.03,0.58,0.32,0.55,0.65l0,0.04C351.24,228.78,350.95,229.02,350.62,228.99
										z"/>
									<path style="fill:#FFC727;" d="M350.69,230.81l-1.79,0.23c-0.33,0.04-0.63-0.19-0.67-0.52l-0.01-0.04
										c-0.04-0.33,0.19-0.63,0.52-0.67l1.79-0.23c0.33-0.04,0.63,0.19,0.67,0.52l0.01,0.04
										C351.25,230.47,351.02,230.77,350.69,230.81z"/>
								</g>
								<g>
									<path style="fill:#FFC727;" d="M349.9,211.91l-1.66,2.65l8.49,7.67l3.6-5.97L349.9,211.91z M356.4,219.29l-5.94-4.77
										l0.37-0.63l6.87,3.31L356.4,219.29z"/>
									<path style="fill:#FFC727;" d="M350.8,207.02l-0.54,3.08l10.76,3.91l1.09-6.89L350.8,207.02z M359.59,211.41l-7.29-2.18
										l0.11-0.72l7.61,0.48L359.59,211.41z"/>
								</g>
							</g>
						</g>
					</g>
					<g>
						<path style="fill:#263238;" d="M361.27,189.79c2.23-0.83,4.34-13.27-3.84-19.2c-8.06-5.84-18.66,0.84-14.26,11.04
							C345.95,188.08,356.56,191.55,361.27,189.79z"/>
						<path style="fill:#263238;" d="M346,169.86c-2.5,2.04-4.1,4.94-4.72,7.89c-0.62,2.98,0.27,6.03,2.48,8.02
							c2.14,2.1,5.11,3.27,8.13,3.98c1.52,0.33,3.09,0.52,4.67,0.57c1.58,0.07,3.18-0.01,4.71-0.52c-1.38,0.89-3.06,1.17-4.68,1.39
							c-1.64,0.16-3.3,0.15-4.94-0.08c-3.26-0.46-6.59-1.65-9.11-4.06c-1.24-1.21-2.25-2.75-2.69-4.46
							c-0.44-1.71-0.38-3.51,0.1-5.15C340.87,174.16,343.11,171.34,346,169.86z"/>
					</g>
				</g>
				<g>
					<g>
						<g>
							<g>
								<polygon style="fill:#FFC727;" points="435.11,303.73 449.03,301.85 443.59,261.55 425.97,263.92 								"/>
								<polygon style="fill:#FFC727;" points="425.98,263.92 429.46,279.11 435.11,303.74 449.03,301.86 443.59,261.55 								"/>
								<polygon style="opacity:0.1;" points="425.98,263.92 429.46,279.11 445.67,276.92 443.59,261.55 								"/>
							</g>
							
								<rect x="423.92" y="251.89" transform="matrix(-0.991 0.1337 -0.1337 -0.991 900.8463 460.0776)" style="fill:#FFC727;" width="22.11" height="16.8"/>
						</g>
						<g>
							<g>
								<polygon style="fill:#FFC727;" points="407.4,249.35 424.65,248.75 421.02,221.81 404.22,225.81 								"/>
							</g>
							<polygon style="fill:#FFC727;" points="429.05,215.3 434.42,255.05 463.44,254.62 533.15,270.09 520.26,174.62 
								457.15,208.02 							"/>
							
								<ellipse transform="matrix(0.991 -0.1337 0.1337 0.991 -24.9637 72.6417)" style="fill:#FFC727;" cx="528.25" cy="222.15" rx="15.56" ry="48.41"/>
							
								<ellipse transform="matrix(0.991 -0.1337 0.1337 0.991 -24.8328 72.7254)" style="opacity:0.2;" cx="528.94" cy="221.21" rx="12.74" ry="42.97"/>
							<path style="fill:#FFC727;" d="M518.37,222.64c0.42,3.13,0.94,6.17,1.53,9.08c1.82,1.12,4.02,1.63,6.3,1.32
								c5.26-0.71,8.95-5.55,8.23-10.82l-0.61-4.5c-0.71-5.27-5.55-8.96-10.81-8.25c-2.24,0.3-4.2,1.36-5.65,2.88
								C517.56,215.67,517.9,219.12,518.37,222.64z"/>
							<g>
								<polygon style="fill:#FFC727;" points="419.31,259.33 452.67,258.18 445.64,206.09 413.16,213.82 								"/>
								<polygon style="opacity:0.2;" points="419.31,259.33 452.67,258.18 445.64,206.09 413.16,213.82 								"/>
							</g>
							<path style="opacity:0.2;" d="M516.68,181.76c-2.01,3.04-2.98,6.63-3.77,10.15c-0.71,3.56-1.15,7.18-1.29,10.81
								c-0.12,1.81-0.08,3.63-0.11,5.45c0.08,1.81,0.1,3.63,0.22,5.44c0.15,1.81,0.24,3.62,0.44,5.43c0.21,1.8,0.38,3.61,0.63,5.41
								c1.03,7.18,2.47,14.33,4.79,21.22c1.19,3.43,2.55,6.82,4.33,10c1.82,3.12,3.91,6.23,6.88,8.34c-2.82-2.3-4.78-5.41-6.44-8.59
								c-1.66-3.19-2.93-6.58-4.02-10.01c-2.15-6.88-3.58-13.97-4.52-21.12c-1-7.14-1.62-14.35-1.42-21.55
								c0.04-3.6,0.39-7.2,0.99-10.75C514.02,188.48,514.88,184.91,516.68,181.76z"/>
						</g>
						<g>
							<path style="fill:#263238;" d="M551.59,174.93c-2.04,1.48-3.99,3.05-5.93,4.64c-1.95,1.58-3.84,3.22-5.73,4.86
								c-1.87,1.66-3.74,3.33-5.55,5.06l-2.72,2.6c-0.88,0.9-1.78,1.77-2.64,2.69c1.03-0.73,2-1.52,3-2.27l2.93-2.36
								c1.95-1.58,3.84-3.22,5.73-4.87c1.87-1.67,3.74-3.33,5.55-5.06C548.06,178.49,549.87,176.76,551.59,174.93z"/>
							<path style="fill:#263238;" d="M534.67,247.61c2.71,0.82,5.45,1.53,8.19,2.21c2.74,0.7,5.5,1.31,8.26,1.91
								c2.76,0.58,5.53,1.16,8.31,1.66l4.18,0.74c1.4,0.21,2.79,0.45,4.2,0.62c-1.35-0.42-2.72-0.77-4.08-1.16l-4.11-1.05
								c-2.74-0.7-5.5-1.3-8.26-1.91c-2.76-0.58-5.53-1.16-8.31-1.65C540.26,248.47,537.48,247.98,534.67,247.61z"/>
							<path style="fill:#263238;" d="M587.06,239.87c-4.13-0.49-8.27-0.86-12.41-1.21c-4.14-0.36-8.28-0.64-12.42-0.91
								c-4.15-0.25-8.29-0.49-12.44-0.65l-6.23-0.23c-2.08-0.04-4.15-0.11-6.23-0.11c2.06,0.26,4.13,0.44,6.2,0.67l6.21,0.55
								c4.14,0.36,8.28,0.64,12.42,0.91c4.15,0.25,8.29,0.49,12.44,0.65C578.75,239.69,582.9,239.84,587.06,239.87z"/>
							<path style="fill:#263238;" d="M574.73,176.69c-3.64,2.13-7.21,4.37-10.77,6.62c-3.57,2.24-7.08,4.56-10.6,6.88
								c-3.5,2.34-7,4.68-10.45,7.1l-5.18,3.63c-1.7,1.24-3.43,2.45-5.11,3.73c1.83-1.06,3.61-2.18,5.42-3.26l5.35-3.36
								c3.57-2.24,7.08-4.56,10.6-6.88c3.5-2.34,7-4.68,10.45-7.1C567.9,181.63,571.35,179.21,574.73,176.69z"/>
							<path style="fill:#263238;" d="M536.31,220.69c4.85-0.47,9.67-1.06,14.5-1.67c4.83-0.61,9.64-1.32,14.46-1.97
								c4.81-0.74,9.62-1.44,14.42-2.23l7.2-1.21c2.39-0.44,4.79-0.85,7.18-1.33c-2.42,0.22-4.84,0.52-7.26,0.77l-7.24,0.89
								c-4.83,0.61-9.64,1.32-14.46,1.97c-4.81,0.75-9.62,1.44-14.42,2.23C545.88,218.94,541.09,219.75,536.31,220.69z"/>
						</g>
					</g>
					<g>
						<path style="fill:#C95F50;" d="M332.35,287.75c-15.14,24.79-40.76,78.3-31.02,97.75c9.39,18.73,104.14-32.64,116.14-41.97
							c5.23-4.07-19.22-52.16-25.19-48.35c-7.98,5.1-46.67,36.64-47.51,36.8c-1.81,0.35,3.57-17.47,7.21-39.56
							C357.28,260.29,343.24,269.93,332.35,287.75z"/>
						<g>
							<path style="fill:#C95F50;" d="M455.63,275.54c3.55,4.18,0.53,8.99,0.53,8.99s4.21,1.21,6.3,4.86
								c2.39,4.18-3.12,9.77-3.12,9.77s4.01,2.1,5.83,6.18c1.89,4.23-2.87,10.67-2.87,10.67s2.66,4.01,1.7,8.67
								c-1.64,7.96-13.24,12.36-20.64,15.11c-10.99,4.08-30.91,3.93-35.37,4.6l-18.53-47.13c0,0,29.43-22.06,38.57-24.15
								C435.73,271.35,451.64,270.85,455.63,275.54z"/>
							<g>
								<path style="fill:#263238;" d="M455.53,283.9c-8.63-0.09-16.82,2.37-25.13,4.37c-0.18,0.04-0.11,0.33,0.07,0.29
									c8.24-2.08,16.79-2.5,25.1-4.25C455.81,284.26,455.77,283.91,455.53,283.9z"/>
								<path style="fill:#263238;" d="M458.95,298.61c-1.95,0.04-3.89,0.72-5.75,1.27c-2,0.59-3.99,1.21-5.97,1.86
									c-3.96,1.31-7.9,2.71-11.79,4.22c-0.17,0.07-0.11,0.35,0.07,0.29c3.95-1.3,7.93-2.53,11.93-3.66c2-0.57,4.01-1.11,6.02-1.65
									c1.87-0.5,3.89-0.87,5.62-1.77C459.34,299.03,459.24,298.6,458.95,298.61z"/>
								<path style="fill:#263238;" d="M462.14,316.07c-1.7-0.04-3.53,0.86-5.11,1.42c-1.79,0.63-3.59,1.26-5.39,1.87
									c-3.6,1.23-7.2,2.45-10.84,3.55c-0.18,0.05-0.11,0.34,0.07,0.29c3.71-1.1,7.43-2.15,11.12-3.28
									c1.81-0.56,3.63-1.12,5.43-1.7c1.54-0.49,3.52-0.93,4.79-1.97C462.28,316.19,462.22,316.07,462.14,316.07z"/>
							</g>
						</g>
						<path style="fill:#263238;" d="M368.88,370.09c-6.13,3-12.32,5.86-18.65,8.43c-6.28,2.55-12.66,4.86-19.12,6.91
							c-3.62,1.15-7.27,2.25-10.94,3.22c-0.1,0.03-0.05,0.18,0.05,0.16c6.69-1.33,13.32-2.97,19.79-5.17
							c3.23-1.1,6.42-2.3,9.57-3.61c3.11-1.29,6.23-2.62,9.23-4.16c3.44-1.77,6.88-3.59,10.19-5.6
							C369.1,370.2,368.99,370.04,368.88,370.09z"/>
						<path style="fill:#263238;" d="M436.37,341.55c-7.33,2.01-19.02,1.45-19.11,1.53c-2.21,1.95-11.32,7.85-13.64,9.16
							c-0.09,0.05-0.01,0.18,0.09,0.14c5.02-2.28,11.28-5.7,13.93-8.22c10.37,0.35,15.55-1.43,18.78-2.38
							C436.62,341.71,436.58,341.49,436.37,341.55z"/>
					</g>
					<g>
						<path style="fill:#FFC727;" d="M300.84,328.09l46.57,1.6c0,0,6.68-33.8,6.34-51.98c-0.19-10.19-6.13-9.75-12.76-3.36
							C317.79,296.72,300.84,328.09,300.84,328.09z"/>
						<path style="fill:#FFFFFF;" d="M331.57,284.25c-0.03,0.16-0.09,0.31-0.18,0.46c-0.18,0.33-0.49,0.65-0.76,0.89
							c-0.27,0.23-0.49,0.38-0.51,0.39h-0.08C330.56,285.41,331.05,284.83,331.57,284.25z M348.5,283.35
							c-0.13-0.22-0.34-0.34-0.6-0.34c-0.42,0-0.68,0.29-0.82,0.58c-0.14-0.29-0.41-0.58-0.83-0.58c-0.25,0-0.47,0.12-0.6,0.34
							c-0.21,0.35-0.17,0.88,0.09,1.35c0.37,0.68,1.23,1.27,1.27,1.29h0.13c0.02-0.01,0.24-0.17,0.51-0.4
							c0.27-0.23,0.58-0.55,0.76-0.89C348.67,284.23,348.71,283.7,348.5,283.35z M313.87,307.17c0.2-0.19,0.39-0.41,0.52-0.65
							c0.04-0.08,0.08-0.16,0.1-0.24C314.28,306.58,314.08,306.88,313.87,307.17z M331.49,305.17c-0.13-0.22-0.34-0.34-0.6-0.34
							c-0.42,0-0.68,0.29-0.82,0.58c-0.14-0.29-0.41-0.58-0.83-0.58c-0.25,0-0.47,0.12-0.6,0.34c-0.21,0.35-0.17,0.88,0.09,1.35
							c0.37,0.68,1.23,1.27,1.27,1.29h0.13c0.02-0.01,0.24-0.17,0.51-0.4c0.27-0.23,0.58-0.55,0.76-0.89
							C331.66,306.04,331.7,305.51,331.49,305.17z M348.5,305.17c-0.13-0.22-0.34-0.34-0.6-0.34c-0.42,0-0.68,0.29-0.82,0.58
							c-0.14-0.29-0.41-0.58-0.83-0.58c-0.25,0-0.47,0.12-0.6,0.34c-0.21,0.35-0.17,0.88,0.09,1.35c0.37,0.68,1.23,1.27,1.27,1.29
							h0.13c0.02-0.01,0.24-0.17,0.51-0.4c0.27-0.23,0.58-0.55,0.76-0.89C348.67,306.04,348.71,305.51,348.5,305.17z M321.37,296.78
							c0.07,0.05,0.11,0.08,0.12,0.08h0.13c0.02-0.01,0.24-0.17,0.51-0.4c0.27-0.23,0.57-0.55,0.76-0.89
							c0.19-0.34,0.26-0.73,0.21-1.04C322.5,295.28,321.93,296.03,321.37,296.78z M340,294.22c-0.13-0.22-0.34-0.34-0.6-0.34
							c-0.42,0-0.68,0.3-0.82,0.58c-0.14-0.29-0.41-0.58-0.83-0.58c-0.25,0-0.47,0.12-0.6,0.34c-0.21,0.35-0.17,0.88,0.09,1.35
							c0.37,0.68,1.23,1.27,1.27,1.29h0.13c0.02-0.01,0.24-0.17,0.51-0.4c0.27-0.23,0.58-0.55,0.76-0.89
							C340.17,295.1,340.2,294.57,340,294.22z M314.47,326.98c-0.12-0.22-0.34-0.34-0.59-0.34c-0.43,0-0.68,0.29-0.83,0.58
							c-0.13-0.29-0.4-0.58-0.82-0.58c-0.26,0-0.47,0.12-0.6,0.34c-0.21,0.34-0.18,0.88,0.08,1.35c0.02,0.04,0.05,0.09,0.08,0.13
							l2.46,0.09c0.05-0.07,0.09-0.15,0.13-0.22C314.65,327.86,314.68,327.33,314.47,326.98z M331.49,326.98
							c-0.13-0.22-0.34-0.34-0.6-0.34c-0.41,0-0.68,0.29-0.82,0.58c-0.15-0.29-0.41-0.58-0.83-0.58c-0.25,0-0.47,0.12-0.6,0.34
							c-0.2,0.34-0.17,0.88,0.09,1.35c0.15,0.27,0.37,0.54,0.6,0.75l1.42,0.05c0.24-0.23,0.49-0.5,0.64-0.79
							C331.66,327.86,331.7,327.33,331.49,326.98z M347.91,326.64c-0.43,0-0.68,0.29-0.83,0.58c-0.13-0.29-0.4-0.58-0.82-0.58
							c-0.26,0-0.47,0.12-0.6,0.34c-0.21,0.34-0.18,0.88,0.09,1.35c0.36,0.68,1.22,1.28,1.27,1.3h0.13
							c0.01-0.01,0.13-0.09,0.32-0.24c0.08-0.46,0.27-1.4,0.51-2.74C347.96,326.64,347.93,326.64,347.91,326.64z M322.98,316.03
							c-0.13-0.22-0.34-0.34-0.6-0.34c-0.42,0-0.68,0.3-0.82,0.58c-0.14-0.29-0.41-0.58-0.83-0.58c-0.25,0-0.47,0.12-0.6,0.34
							c-0.21,0.35-0.17,0.88,0.09,1.35c0.37,0.68,1.23,1.27,1.27,1.29h0.13c0.02-0.01,0.24-0.17,0.51-0.4
							c0.27-0.23,0.58-0.55,0.76-0.89C323.15,316.91,323.19,316.38,322.98,316.03z M340,316.03c-0.13-0.22-0.34-0.34-0.6-0.34
							c-0.42,0-0.68,0.3-0.82,0.58c-0.14-0.29-0.41-0.58-0.83-0.58c-0.25,0-0.47,0.12-0.6,0.34c-0.21,0.35-0.17,0.88,0.09,1.35
							c0.37,0.68,1.23,1.27,1.27,1.29h0.13c0.02-0.01,0.24-0.17,0.51-0.4c0.27-0.23,0.58-0.55,0.76-0.89
							C340.17,316.91,340.2,316.38,340,316.03z"/>
						<g>
							<g>
								<path style="fill:#263238;" d="M346.04,322.31c-7.14-0.84-26.59-2.56-39.37-2.02c-0.08,0-0.1,0.3-0.02,0.3
									c10.7,1.16,32.17,1.94,39.36,2.15C346.14,322.75,346.17,322.32,346.04,322.31z"/>
							</g>
						</g>
						<path style="fill:#263238;" d="M353.71,295.07c-0.53,2.01-1.03,4.04-1.52,6.06c0.03-0.25,0.06-0.49,0.08-0.74
							c0.29-2.83,0.56-5.66,0.77-8.5c0.01-0.07-0.11-0.08-0.12-0.01c-1.38,9.9-5.3,34.9-5.52,37.64c-0.22-0.03-2.34,0.05-2.84,0.03
							c-0.11,0-0.1,0.15,0,0.16c0.25,0.03,3.44,0.42,3.46,0.34c1.39-4.82,3.49-23.05,3.95-27.09c0.72-2.6,1.32-5.23,1.79-7.89
							C353.77,295.05,353.72,295.03,353.71,295.07z"/>
					</g>
				</g>
			</g>
		</g>
		<g>
			<path style="fill:#FFC727;" d="M440.17,179.03c-0.78,7.72-7.01,14.46-7.01,14.46s-9.12-0.98-14.79-6.27
				c-4.73-4.42-5.23-10.92-1.47-13.8c5.39-4.12,10.93,5.88,10.93,5.88s-2.42-11.17,4.36-11.62
				C436.91,167.36,440.82,172.59,440.17,179.03z"/>
			<path style="fill:#FFC727;" d="M423.66,129.11c-0.31,3.1-2.81,5.8-2.81,5.8s-3.66-0.39-5.93-2.52c-1.9-1.77-2.1-4.38-0.59-5.54
				c2.16-1.65,4.38,2.36,4.38,2.36s-0.97-4.48,1.75-4.66C422.35,124.43,423.92,126.53,423.66,129.11z"/>
			<path style="fill:#FFC727;" d="M451.46,153.06c-3.43,4.56-9.92,6.44-9.92,6.44s-5.37-4.09-6.93-9.58
				c-1.29-4.58,0.87-8.87,4.33-9.25c4.96-0.54,4.64,7.86,4.64,7.86s2.73-7.96,7.17-5.66C453.85,144.47,454.32,149.25,451.46,153.06z
				"/>
		</g>
		<g>
			<g>
				<rect x="196.69" y="156.18" style="fill:#FFC727;" width="97.78" height="55.21"/>
				<polygon style="fill:#FFC727;" points="213.22,211.39 196.69,228.36 196.69,211.39 				"/>
				<g>
					<rect x="210.82" y="167.27" style="fill:#FFFFFF;" width="58.06" height="1.71"/>
					<rect x="210.82" y="172.49" style="fill:#FFFFFF;" width="39.78" height="1.71"/>
					<rect x="210.82" y="177.71" style="fill:#FFFFFF;" width="69.51" height="1.71"/>
					<rect x="210.82" y="182.93" style="fill:#FFFFFF;" width="23.91" height="1.71"/>
					<rect x="210.82" y="188.15" style="fill:#FFFFFF;" width="54.54" height="1.71"/>
					<rect x="210.82" y="193.38" style="fill:#FFFFFF;" width="58.06" height="1.71"/>
					<rect x="210.82" y="198.6" style="fill:#FFFFFF;" width="43.5" height="1.71"/>
				</g>
			</g>
			<g>
				
					<rect x="215.98" y="228.79" transform="matrix(-1 -1.224647e-16 1.224647e-16 -1 529.7343 497.9767)" style="fill:#DBDBDB;" width="97.78" height="40.4"/>
				<polygon style="fill:#DBDBDB;" points="297.22,269.19 313.76,286.16 313.76,269.19 				"/>
				<g>
					<rect x="231.05" y="237.36" style="fill:#FFFFFF;" width="52.64" height="1.76"/>
					<rect x="231.05" y="242.73" style="fill:#FFFFFF;" width="67.01" height="1.76"/>
					<rect x="231.05" y="248.11" style="fill:#FFFFFF;" width="48.7" height="1.76"/>
					<rect x="231.05" y="253.49" style="fill:#FFFFFF;" width="61.25" height="1.76"/>
					<rect x="231.05" y="258.86" style="fill:#FFFFFF;" width="40.17" height="1.76"/>
				</g>
			</g>
		</g>
		<g>
			<rect x="444.47" y="95.48" style="fill:#FFC727;" width="76" height="32.14"/>
			<polygon style="fill:#FFC727;" points="473.65,127.62 491.3,127.62 482.47,139.76 			"/>
			<path style="fill:#FFFFFF;" d="M473.33,112.66c-1.02,1.88-2.73,3.64-4.2,4.93c-1.47,1.29-2.7,2.14-2.8,2.2h-0.74
				c-0.21-0.14-4.96-3.37-7-7.14c-1.43-2.63-1.63-5.56-0.49-7.47c0.73-1.22,1.9-1.89,3.3-1.89c2.31,0,3.78,1.63,4.56,3.21
				c0.78-1.59,2.24-3.21,4.55-3.21c1.41,0,2.58,0.67,3.31,1.89C474.96,107.1,474.76,110.03,473.33,112.66z"/>
			<g>
				<path style="fill:#FFFFFF;" d="M505.69,105.81l-9.06,12.1l-1.94-7.22l-1.12,0.5l-0.54-1.2l1.05-0.47l-4.29-4.69h14.85l2.97-1.32
					h-19.32l-0.49,1.11l5.52,6.03l2.4,8.91l1.17,0.23l11.3-15.08L505.69,105.81z"/>
				<polygon style="fill:#FFFFFF;" points="505.69,105.81 496.62,117.91 494.69,110.7 				"/>
				<polygon style="fill:#FFFFFF;" points="504.63,104.84 494.07,109.52 489.78,104.84 				"/>
			</g>
		</g>
		<g>
			<g>
				<g>
					<path style="fill:#FFC727;" d="M246.67,372.53c-11.62,15.74-23.73,34-26.68,53.73c-0.04,0.3,0.44,0.4,0.51,0.1
						c1.35-5.41,3.06-10.67,5.14-15.8c7.64-2.1,15.14-3.83,19.15-11.41c4.09-7.79,3.57-17.95,2.79-26.44
						C247.53,372.25,246.91,372.22,246.67,372.53z"/>
					<g>
						<path style="fill:#263238;" d="M225.75,410.41c5.22-11.71,11.92-23.47,20.44-33.1c0.06-0.06,0.15,0.03,0.09,0.09
							c-5.58,6.86-9.81,14.33-13.95,21.93c3.85-3.91,8.06-7.4,11.71-11.55c0.07-0.08,0.18,0.04,0.12,0.12
							c-3.62,4.34-7.57,9.06-12.28,12.27c-1.27,2.33-2.54,4.67-3.83,7.01c0.32-0.18,0.64-0.33,0.97-0.5
							c0.06-0.03,0.11,0.06,0.05,0.09c-0.36,0.18-0.72,0.37-1.09,0.53c-0.61,1.11-1.22,2.21-1.85,3.32
							C225.99,410.87,225.64,410.66,225.75,410.41z"/>
						<path style="fill:#263238;" d="M229.64,406.32c3.11-1.79,6.12-3.7,8.92-5.95c0.08-0.06,0.19,0.04,0.11,0.11
							c-2.75,2.33-5.69,4.42-8.9,6.06C229.62,406.61,229.49,406.4,229.64,406.32z"/>
					</g>
				</g>
				<g>
					<path style="fill:#FFC727;" d="M218.65,423.32c0.02,0.24,0.43,0.23,0.42-0.02c0.06-6.5,0.01-13.03,0.1-19.55
						c1.66-3.36,5.24-5.22,7.72-7.91c1.79-1.94,3.32-4.13,4.63-6.45c3.07-5.5,4.74-11.68,5.38-17.93
						c0.69-6.95-1.95-29.89-4.88-29.09c-1.52,0.41-6.44,11.77-7.74,15.53c-2.14,6.18-3.64,12.58-4.62,19.04
						C217.28,392.23,217.48,407.93,218.65,423.32z"/>
					<g>
						<path style="fill:#263238;" d="M218.6,395.29c0.01-0.01,0.02-0.02,0.03-0.03c0.36-8.22,2.21-16.53,3.94-24.5
							c1.87-8.59,4.05-16.68,8.47-24.34c0.08-0.14,0.29-0.02,0.22,0.13c-3.01,5.93-5.16,12.22-6.81,18.69
							c0.3-0.46,0.66-0.9,0.96-1.34c0.12-0.17,0.41-0.01,0.29,0.17c-0.43,0.65-0.82,1.4-1.38,1.95c-0.02,0.02-0.04,0.02-0.06,0.03
							c-1.52,6.14-2.61,12.42-3.55,18.69c0.07-0.08,0.14-0.17,0.21-0.24c0.05-0.05,0.13,0.01,0.1,0.07
							c-0.12,0.21-0.25,0.41-0.37,0.62c-0.47,3.18-0.91,6.35-1.35,9.5c5.66-4.84,10.5-10.54,13.23-17.57
							c0.01-0.03,0.07-0.02,0.05,0.01c-2.67,7.29-6.88,13.77-13.37,18.2c-0.12,0.85-0.24,1.7-0.36,2.54
							c-0.02,0.18-0.3,0.13-0.3-0.04c0-0.75,0.04-1.5,0.07-2.25C218.54,395.49,218.5,395.37,218.6,395.29z"/>
						<path style="fill:#263238;" d="M221.27,383.38c4.33-6.46,8.37-12.73,11.54-19.87c0.04-0.08,0.17-0.02,0.14,0.06
							c-2.67,7.09-6.41,14.28-11.46,19.98C221.38,383.66,221.18,383.51,221.27,383.38z"/>
						<path style="fill:#263238;" d="M227.02,361.91c1.79-3.17,3.68-6.26,5.37-9.49c0.05-0.09,0.17-0.01,0.13,0.08
							c-1.42,3.31-3.11,6.66-5.23,9.58C227.17,362.24,226.91,362.1,227.02,361.91z"/>
						<path style="fill:#263238;" d="M226.32,363.29c0.04,0,0.04,0.06,0,0.06C226.28,363.35,226.28,363.29,226.32,363.29z"/>
					</g>
				</g>
				<g>
					<path style="fill:#FFC727;" d="M214.25,404.53c-0.11,4.31-0.58,8.61-1.52,12.8c0.07,0.46,0.13,0.92,0.2,1.4
						c1.36-4.66,2.07-9.45,2.29-14.27c0.07-0.13,0.1-0.28,0.02-0.44c0,0,0,0,0-0.01c0.25-6.44-0.35-12.96-1.43-19.34
						c-2.01-11.94-6.41-23.4-14.74-32.35c-0.26-0.28-0.79-0.13-0.92,0.19c-3.36,8.55-2.19,18.74,0.67,27.27
						c1.56,4.59,3.78,9,6.6,12.95C208.28,396.74,211.93,400.14,214.25,404.53z"/>
					<g>
						<path style="fill:#263238;" d="M200.05,356.32c7.89,12.81,13.39,28,14.06,43.13c0.01,0.27-0.44,0.34-0.48,0.06
							c-0.19-1.36-0.39-2.71-0.61-4.05c0,0-0.01,0-0.01,0c-3.27-3.13-6.62-6.43-8.96-10.34c-0.04-0.07,0.06-0.15,0.11-0.09
							c2.84,3.25,5.49,6.57,8.7,9.47c-0.57-3.35-1.23-6.64-2.03-9.88c-0.21-0.24-0.42-0.49-0.62-0.73
							c-0.14-0.16,0.09-0.39,0.23-0.23c0.06,0.07,0.13,0.14,0.19,0.21c-1.12-4.45-2.48-8.82-4.13-13.1
							c-2.01-2.4-4.26-4.47-5.72-7.36c-0.04-0.07,0.06-0.12,0.1-0.06c1.18,1.65,2.32,3.31,3.65,4.84c0.53,0.61,1.12,1.18,1.67,1.78
							c-1.8-4.57-3.93-9.06-6.46-13.47C199.63,356.3,199.93,356.12,200.05,356.32z"/>
						<path style="fill:#263238;" d="M201.65,372.12c2.55,3.43,5.46,6.71,7.83,10.26c0.07,0.1-0.08,0.21-0.16,0.13
							c-3.05-2.86-5.63-6.76-7.84-10.29C201.41,372.11,201.57,372.02,201.65,372.12z"/>
						<path style="fill:#263238;" d="M209.84,383.17l0.11,0.11c0.08,0.08-0.04,0.19-0.12,0.12l-0.11-0.11
							C209.64,383.22,209.76,383.1,209.84,383.17z"/>
					</g>
				</g>
				<g>
					<path style="fill:#FFC727;" d="M187.68,380.94c0.63,6.59,4.1,14.46,8.33,19.54c1.87,2.25,4.15,3.96,6.75,5.27
						c2.93,1.45,5.99,3.11,9.01,4.3c1.41,3.61,2.5,7.4,3.19,11.34c0.1-0.33,0.19-0.67,0.29-1c-1.94-16.69-12.74-30.95-26.55-40.11
						C188.22,379.96,187.63,380.38,187.68,380.94z"/>
					<g>
						<path style="fill:#263238;" d="M192.46,385.87c-0.1-0.09,0.03-0.26,0.14-0.18c7.32,5.42,13.91,13.33,17.6,21.69
							c0.1,0.23-0.21,0.43-0.34,0.2c-0.64-1.12-1.3-2.22-1.96-3.29c0,0-0.01,0-0.01,0c-3.15-0.59-6.14-2.81-8.48-4.92
							c-0.06-0.06,0.03-0.15,0.09-0.09c1.22,1.08,2.53,2.06,3.99,2.8c1.28,0.65,2.67,1.06,4.01,1.59c-1.17-1.85-2.39-3.63-3.66-5.36
							c-3.39-1.16-6.62-3.24-9.47-5.33c-0.09-0.07-0.01-0.21,0.09-0.15c2.91,1.75,5.77,3.29,8.81,4.71
							c-1.91-2.53-3.98-4.93-6.22-7.25c-1.07-0.57-2.16-1.13-3.2-1.74c-0.08-0.05-0.03-0.19,0.07-0.16
							c0.83,0.28,1.67,0.71,2.45,1.21C195.12,388.33,193.83,387.09,192.46,385.87z"/>
						<path style="fill:#263238;" d="M192.75,391.64c0.19,0.12,0.36,0.23,0.53,0.38c0.05,0.05-0.01,0.11-0.07,0.09
							c-0.2-0.09-0.37-0.2-0.55-0.31C192.57,391.73,192.65,391.57,192.75,391.64z"/>
					</g>
				</g>
			</g>
			<g>
				<g>
					<polygon style="fill:#455A64;" points="236.82,457.53 198.97,457.53 202.03,423.07 202.7,415.47 233.1,415.47 233.77,423.07 
											"/>
					<polygon style="fill:#263238;" points="233.77,423.07 202.03,423.07 202.7,415.47 233.1,415.47 					"/>
				</g>
				<rect x="200.89" y="410.15" style="fill:#455A64;" width="34.02" height="7.52"/>
			</g>
		</g>
	</g>
</g>
</svg>
